<?xml version="1.0" encoding="utf-8"?>
<!-- Generator: Adobe Illustrator 14.0.0, SVG Export Plug-In . SVG Version: 6.00 Build 43363)  -->
<!DOCTYPE svg PUBLIC "-//W3C//DTD SVG 1.1//EN" "http://www.w3.org/Graphics/SVG/1.1/DTD/svg11.dtd">
<svg version="1.1" id="Calque_1" xmlns="http://www.w3.org/2000/svg" xmlns:xlink="http://www.w3.org/1999/xlink" x="0px" y="0px"
	 width="200px" height="125px" viewBox="0 0 200 125" enable-background="new 0 0 200 125" xml:space="preserve">
<g>
	<rect fill="#2D9499" width="200" height="125"/>
	<g>
		<polygon fill="#FFFFFF" points="69.921,71.252 64.374,67.135 56.138,66.309 54.913,68.307 53.246,67.754 52.428,64.667 
			49.963,64.496 50.988,61.574 48.931,61.369 46.87,63.023 45.43,60.955 46.665,57.46 52.227,56.635 53.246,59.515 54.696,59.312 
			54.696,56.635 58.604,51.282 63.544,48.606 69.921,45.731 65.392,35.638 63.335,36.872 61.696,32.347 57.776,32.552 
			56.763,40.581 55.317,40.789 49.341,34.404 50.576,31.109 56.763,29.879 56.763,22.052 41.313,23.703 33.295,18.967 
			29.587,22.465 19.493,16.904 13.942,20.199 15.998,23.292 13.73,23.292 13.116,25.554 16.202,25.965 13.116,28.435 14.142,31.933 
			16.818,32.552 12.5,36.052 19.292,32.76 22.993,30.694 28.964,34.404 33.702,42.433 33.702,49.638 36.584,54.991 41.313,62.401 
			47.082,64.451 49.551,65.689 52.428,69.395 54.438,69.083 52.227,72.693 54.074,80.096 57.99,83.592 53.246,102.746 
			54.902,106.861 59.635,108.096 56.763,105.006 60.664,97.6 69.104,90.395 69.719,87.1 73.841,86.479 77.958,78.041 70.754,74.547 
					"/>
		<polygon fill="#FFFFFF" points="168.248,72.699 167.809,76.195 164.842,75.119 165.391,73.227 162.148,72.963 157.948,76.876 
			153.494,78.488 154.585,84.553 154.173,85.756 155.802,86.701 162.408,85.064 164.964,86.553 166.18,85.875 166.988,88.326 
			170.357,89.273 172.793,87.783 174.139,80.516 170.499,76.876 		"/>
		<polygon fill="#FFFFFF" points="151.878,69.322 155.385,69.996 157.01,65.006 156.061,64.189 151.342,67.162 		"/>
		<polygon fill="#FFFFFF" points="172.246,72.963 171.037,70.396 165.509,67.705 162.676,67.971 166.312,71.749 168.402,71.896 
			169.282,71.072 		"/>
		<polygon fill="#FFFFFF" points="169.282,37.347 168.346,37.347 168.205,42.201 165.779,47.328 162.676,49.628 162.539,51.645 
			168.205,48.274 168.473,44.768 170.357,43.014 168.883,41.801 169.682,38.974 		"/>
		<polygon fill="#FFFFFF" points="183.854,86.316 184.26,90.094 180.078,94.01 182.779,94.277 185.199,90.632 187.09,88.073 
			185.878,87.943 		"/>
		<polygon fill="#FFFFFF" points="93.686,29.547 93.686,33.475 96.411,32.278 97.179,31.072 94.227,25.395 92.489,26.601 
			92.596,28.125 90.954,30.101 90.841,32.169 92.813,32.169 		"/>
		<polygon fill="#FFFFFF" points="118.361,75.832 118.252,80.205 120.009,80.962 121.752,75.725 121.311,73.543 		"/>
		<path fill="#FFFFFF" d="M182.641,29.257l4.859-2.702l-1.35-3.773l-35.791-5.048c0,0-21.684,2.295-33.645,3.553l-10.361-1.911
			l-4.156,2.292l-1.635,4.039l-1.971,1.535l-0.108,3.386l1.094,0.647l2.291-1.304l1.104,3.488l1.957-0.762l1.314-3.497l-1.314-1.415
			l1.205-2.62l1.408-1.752l0.865,0.137l-0.807,2.049l-0.924,0.66l0.338,0.832l-0.063,0.139l0.12,0.012l0.805,1.958l2.295-0.649
			l0.789,0.926l-2.539,0.824l0.555,2.077l-1.647-0.558l-1.194,3.062l-4.268-0.107l-0.764-2.184l-0.98,1.309l0.329,1.42l-1.533,0.111
			l-1.855,2.511l-3.384,1.092l0.877,1.859l1.408,2.29l-4.469-0.328l0.217,4.372l3.497,0.547l2.29-3.609l3.281-1.639l1.414,1.639
			l1.961,2.628l1.43-1.647l-2.734-1.849l-0.111-1.75l1.312,0.653l2.188,1.753l-0.108,1.736l1.636,2.083l0.767-2.629l0.875,0.441
			l1.196,2.076l3.701,0.617l-0.602,2.021l-1.393,0.834l-5.361-1.372l-1.35,1.887l-3.504-2.295l-0.541-2.283l-8.633,1.477
			l-4.455,5.397l-0.814,7.284l4.596,4.455l8.23-0.543l2.423,7.559l-0.938,4.312l3.907,9.441l4.454-0.811l4.446-8.363l2.429-1.891
			l-0.668-5.794l4.315-3.913l1.351-4.724l-4.321,2.023l-4.411-10.1l0.902-0.154l4.323,8.497l8.365-4.988l-2.842-2.155l-2.156,1.077
			l-1.352-3.24l0.947-0.533l1.885,1.613l6.486,1.213l2.686,3.24l2.434,6.068l1.896-1.884v-2.295l5.255-3.65l1.889,4.055l1.565-0.395
			l0.321,4.033l1.623,2.968l-3.51-1.758l2.567,3.641l2.833,2.703l6.742,1.213l-3.641-1.48l-2.707-0.945l-0.937-4.318l-2.164-2.438
			l0.082-2.434l2.483,2.573l2.429-2.023l-2.287-3.374l1.073-1.753l4.992-0.27l2.291-4.177l-1.612-4.58l2.022-2.158l1.491,2.021
			l0.538,2.56l1.752-0.935l-0.673-2.837l1.481-2.158l2.43-0.4l2.83-7.827l-2.426-1.753l3.369-3.242l4.453,0.269l3.647-2.963
			l2.827-0.41l-4.582,5.537l0.133,4.852l3.512-4.319L179,30.06L182.641,29.257z M116.616,45.357l-2.394-0.648l-3.285,0.543
			l-0.763-1.413l1.742-3.061l5.685,2.953L116.616,45.357z M120.555,47.225l0.534-2.082l-1.196-3.052l3.392-1.856v1.636l-1.316,0.545
			l1.103,1.643l0.533,3.385L120.555,47.225z"/>
		<polygon fill="#FFFFFF" points="74.687,20.9 71.646,20.073 67.891,24.084 72.723,36.66 75.008,37.224 75.194,33.136 
			76.737,32.183 76.826,30.631 78.419,27.637 77.31,25.364 		"/>
	</g>
</g>
</svg>
