<?xml version="1.0" encoding="utf-8"?>
<!-- Generator: Adobe Illustrator 14.0.0, SVG Export Plug-In . SVG Version: 6.00 Build 43363)  -->
<!DOCTYPE svg PUBLIC "-//W3C//DTD SVG 1.1//EN" "http://www.w3.org/Graphics/SVG/1.1/DTD/svg11.dtd">
<svg version="1.1" id="Calque_1" xmlns="http://www.w3.org/2000/svg" xmlns:xlink="http://www.w3.org/1999/xlink" x="0px" y="0px"
	 width="200px" height="125px" viewBox="0 0 200 125" enable-background="new 0 0 200 125" xml:space="preserve">
<rect fill="#00247D" width="200" height="125"/>
<g id="Flag_of_the_United_Kingdom">
	<g>
		<defs>
			<rect id="SVGID_1_" width="95" height="62.5"/>
		</defs>
		<clipPath id="SVGID_2_">
			<use xlink:href="#SVGID_1_"  overflow="visible"/>
		</clipPath>
		<g id="Saint_Andrews_Cross" clip-path="url(#SVGID_2_)">
			<path d="M0,0l95,62.5 M0,62.5L95,0"/>
			<polygon fill="#FFFFFF" points="92.205,68.09 47.5,38.238 2.795,68.09 -2.795,56.91 33.524,31.25 -2.795,5.59 2.795,-5.59 
				47.5,24.262 92.205,-5.59 97.795,5.59 61.476,31.25 97.795,56.91 92.205,68.09 			"/>
		</g>
	</g>
	<g>
		<defs>
			<path id="SVGID_3_" d="M0,0l47.5,31.25H0V0z M47.5,0H95L47.5,31.25V0z M47.5,31.25H95V62.5L47.5,31.25z M47.5,31.25V62.5H0
				L47.5,31.25z"/>
		</defs>
		<clipPath id="SVGID_4_">
			<use xlink:href="#SVGID_3_"  overflow="visible"/>
		</clipPath>
		<g id="Saint_Patricks_Cross" clip-path="url(#SVGID_4_)">
			<path d="M0,0l95,62.5 M0,62.5L95,0"/>
			<polygon fill="#CC142B" points="93.137,66.227 47.5,35.909 1.863,66.227 -1.863,58.773 38.183,31.25 -1.863,3.727 1.863,-3.727 
				47.5,26.591 93.137,-3.727 96.863,3.727 56.817,31.25 96.863,58.773 93.137,66.227 			"/>
		</g>
	</g>
	<g id="Saint_Georges_Cross">
		<g>
			<defs>
				<rect id="SVGID_5_" width="95" height="62.5"/>
			</defs>
			<clipPath id="SVGID_6_">
				<use xlink:href="#SVGID_5_"  overflow="visible"/>
			</clipPath>
			<g clip-path="url(#SVGID_6_)">
				<path d="M47.5,0v62.5 M0,31.25h95"/>
				<polygon fill="#FFFFFF" points="57.917,62.5 37.083,62.5 37.083,41.667 0,41.667 0,20.833 37.083,20.833 37.083,0 57.917,0 
					57.917,20.833 95,20.833 95,41.667 57.917,41.667 57.917,62.5 				"/>
			</g>
		</g>
		<g>
			<defs>
				<rect id="SVGID_7_" width="95" height="62.5"/>
			</defs>
			<clipPath id="SVGID_8_">
				<use xlink:href="#SVGID_7_"  overflow="visible"/>
			</clipPath>
			<g clip-path="url(#SVGID_8_)">
				<path d="M47.5,0v62.5 M0,31.25h95"/>
				<polygon fill="#CC142B" points="53.75,62.5 41.25,62.5 41.25,37.5 0,37.5 0,25 41.25,25 41.25,0 53.75,0 53.75,25 95,25 
					95,37.5 53.75,37.5 53.75,62.5 				"/>
			</g>
		</g>
	</g>
</g>
<polygon fill="#FFFFFF" points="64.447,96.422 54.292,90.396 60.826,80.56 49.783,84.742 46.167,73.5 42.551,84.742 31.508,80.56 
	38.042,90.396 27.887,96.422 39.652,97.446 38.032,109.144 46.167,100.583 54.302,109.144 52.682,97.446 "/>
<g id="αCrucis_1_">
	<path id="Star7_8_" fill="#FFFFFF" d="M149.165,93.738l1.722,5.354l5.259-1.992l-3.111,4.684l4.836,2.87l-5.603,0.487l0.771,5.57
		l-3.874-4.076l-3.874,4.076l0.771-5.57l-5.603-0.487l4.836-2.87l-3.111-4.684l5.259,1.992L149.165,93.738z"/>
</g>
<g id="βCrucis_1_">
	<path id="Star7_7_" fill="#FFFFFF" d="M117.915,44.259l1.722,5.354l5.259-1.991l-3.111,4.684l4.836,2.869l-5.603,0.488l0.771,5.57
		l-3.874-4.076l-3.874,4.076l0.771-5.57l-5.603-0.488l4.836-2.869l-3.111-4.684l5.259,1.991L117.915,44.259z"/>
</g>
<g id="γCrucis_1_">
	<path id="Star7_6_" fill="#FFFFFF" d="M149.165,10.404l1.722,5.354l5.259-1.991l-3.111,4.684l4.836,2.87l-5.603,0.487l0.771,5.57
		l-3.874-4.076l-3.874,4.076l0.771-5.57l-5.603-0.487l4.836-2.87l-3.111-4.684l5.259,1.991L149.165,10.404z"/>
</g>
<g id="δCrucis_1_">
	<path id="Star7_5_" fill="#FFFFFF" d="M176.943,35.926l1.722,5.354l5.259-1.992l-3.112,4.684l4.836,2.87l-5.603,0.487l0.771,5.57
		l-3.873-4.076l-3.874,4.076l0.771-5.57l-5.603-0.487l4.836-2.87l-3.112-4.684l5.259,1.992L176.943,35.926z"/>
</g>
<g id="εCrucis_1_">
	<path id="Star5_1_" fill="#FFFFFF" d="M161.665,61l1.36,3.336l3.593,0.263l-2.752,2.325l0.86,3.498l-3.062-1.898l-3.062,1.898
		l0.86-3.498l-2.752-2.325l3.593-0.263L161.665,61z"/>
</g>
</svg>
