<?xml version="1.0" encoding="utf-8"?>
<!-- Generator: Adobe Illustrator 14.0.0, SVG Export Plug-In . SVG Version: 6.00 Build 43363)  -->
<!DOCTYPE svg PUBLIC "-//W3C//DTD SVG 1.1//EN" "http://www.w3.org/Graphics/SVG/1.1/DTD/svg11.dtd">
<svg version="1.1" id="Calque_1" xmlns="http://www.w3.org/2000/svg" xmlns:xlink="http://www.w3.org/1999/xlink" x="0px" y="0px"
	 width="200px" height="125px" viewBox="0 0 200 125" enable-background="new 0 0 200 125" xml:space="preserve">
<g>
	<rect x="0.002" y="0.003" fill="#C8313E" width="199.998" height="124.994"/>
	<rect x="0.002" y="83.332" fill="#4AA657" width="199.998" height="41.665"/>
	<rect x="0.002" y="0.003" fill="#FFFFFF" width="27.777" height="124.994"/>
	<g id="a">
		<path id="b" fill="#C8313E" d="M4.833,0.003h3.622v2.049h1.208v2.05h1.208V6.15h1.208v2.049h1.208v2.049h-1.208v2.049h-1.208
			v2.049H9.663v2.05H8.455v2.049H7.247v2.05H6.04v-2.05H4.832v-2.049H3.624v-2.05H2.417v-2.049H1.208v-2.049H0.001V8.199h1.208V6.15
			h1.208V4.102h1.208v-2.05h1.208L4.833,0.003z M6.041,4.1h1.208v2.049h1.208v2.049h1.208v2.05H8.456v2.049H7.249v2.05H6.041v-2.05
			H4.833v-2.049H3.625v-2.05h1.208V6.148h1.208V4.1z M6.041,8.197h1.208v2.049H6.041V8.197z M0.002,2.05H1.21V4.1H0.002V2.05z
			 M0.002,14.344H1.21v2.049H0.002V14.344z M13.285,0h0.725v4.098h-0.725V0z M13.285,14.344h0.725v4.098h-0.725V14.344z
			 M2.416,18.441h1.208v2.049h1.208v2.049h1.208v2.049H4.831v2.049H3.624v2.049H2.416v-2.049H1.208v-2.049H0v-2.049h1.208V20.49
			h1.208V18.441z M2.416,22.537h1.208v2.05H2.416V22.537z M9.663,18.441h1.208v2.049h1.208v2.049h1.208v2.049h-1.208v2.049h-1.208
			v2.049H9.663v-2.049H8.455v-2.049H7.247v-2.049h1.208V20.49h1.208V18.441z M9.663,22.537h1.208v2.05H9.663V22.537z M0.002,30.734
			H1.21v2.049H0.002V30.734z M13.285,28.686h0.725v4.098h-0.725V28.686z M0.002,36.883H1.21v-2.049h1.208v-2.05h1.208v-2.049h1.208
			v-2.05h1.208v-2.049h1.208v2.049h1.208v2.05h1.208v2.049h1.208v2.05h1.208v2.049h1.208v2.049h0.725v8.197h-0.725v2.049h-1.208
			v2.049h-1.208v2.049H9.664v2.049H8.456v2.05H7.249v5.327H4.833v-1.229H3.625v-2.05H2.418v-2.049H1.21v-2.05H0.002v-6.146H1.21
			v2.049h1.208v2.049h1.208v2.05h1.208v-2.05h1.208v-2.049h1.208v-2.049h1.208v-2.049h1.208V45.08h1.208v-2.049H9.664v-2.05H8.457
			v-2.05H4.834v2.05H7.25v2.05H6.042v2.049H4.834v2.049H3.626V45.08H2.418v-2.049H1.211v-2.05H0.003L0.002,36.883z M0.002,45.08
			H1.21v2.049H0.002V45.08z M13.285,51.227h0.725v2.049h-0.725V51.227z M10.87,55.323h1.208v2.05h1.208v2.049h0.725v3.277h-0.725
			V61.47h-1.208v-2.049H10.87V55.323z M8.455,61.471h1.208v1.229H8.455V61.471z"/>
		<g transform="matrix(-1 0 0 1 1e3 0)">
			<path id="b_1_" fill="#C8313E" d="M22.949,0.003h-3.622v2.049h-1.208v2.05h-1.208V6.15h-1.208v2.049h-1.208v2.049h1.208v2.049
				h1.208v2.049h1.208v2.05h1.208v2.049h1.208v2.05h1.208v-2.05h1.208v-2.049h1.208v-2.05h1.208v-2.049h1.208v-2.049h1.208V8.199
				h-1.208V6.15h-1.208V4.102h-1.208v-2.05H22.95L22.949,0.003z M21.741,4.1h-1.208v2.049h-1.208v2.049h-1.208v2.05h1.208v2.049
				h1.208v2.05h1.208v-2.05h1.208v-2.049h1.208v-2.05h-1.208V6.148h-1.208V4.1z M21.741,8.197h-1.208v2.049h1.208V8.197z
				 M27.78,2.05h-1.208V4.1h1.208V2.05z M27.78,14.344h-1.208v2.049h1.208V14.344z M14.497,0h-0.725v4.098h0.725V0z M14.497,14.344
				h-0.725v4.098h0.725V14.344z M25.366,18.441h-1.208v2.049h-1.208v2.049h-1.208v2.049h1.208v2.049h1.208v2.049h1.208v-2.049h1.208
				v-2.049h1.208v-2.049h-1.208V20.49h-1.208V18.441z M25.366,22.537h-1.208v2.05h1.208V22.537z M18.119,18.441h-1.208v2.049h-1.208
				v2.049h-1.208v2.049h1.208v2.049h1.208v2.049h1.208v-2.049h1.208v-2.049h1.208v-2.049h-1.208V20.49h-1.208V18.441z
				 M18.119,22.537h-1.208v2.05h1.208V22.537z M27.78,30.734h-1.208v2.049h1.208V30.734z M14.497,28.686h-0.725v4.098h0.725V28.686z
				 M27.78,36.883h-1.208v-2.049h-1.208v-2.05h-1.208v-2.049h-1.208v-2.05h-1.208v-2.049h-1.208v2.049h-1.208v2.05h-1.208v2.049
				H16.91v2.05h-1.208v2.049h-1.208v2.049H13.77v8.197h0.725v2.049h1.208v2.049h1.208v2.049h1.208v2.049h1.208v2.05h1.208v5.327
				h2.416v-1.229h1.208v-2.05h1.208v-2.049h1.208v-2.05h1.208v-6.146h-1.208v2.049h-1.208v2.049h-1.208v2.05h-1.208v-2.05h-1.208
				v-2.049h-1.208v-2.049h-1.208v-2.049h-1.208V45.08H16.91v-2.049h1.208v-2.05h1.208v-2.05h3.622v2.05h-2.415v2.05h1.208v2.049
				h1.208v2.049h1.208V45.08h1.208v-2.049h1.208v-2.05h1.208L27.78,36.883z M27.78,45.08h-1.208v2.049h1.208V45.08z M14.497,51.227
				h-0.725v2.049h0.725V51.227z M16.912,55.323h-1.208v2.05h-1.208v2.049h-0.725v3.277h0.725V61.47h1.208v-2.049h1.208V55.323z
				 M19.327,61.471H18.12v1.229h1.208V61.471z"/>
		</g>
	</g>
	<g>
		<g id="a_1_">
			<path id="b_2_" fill="#C8313E" d="M4.833,124.997h3.622v-2.049h1.208v-2.049h1.208v-2.05h1.208v-2.049h1.208v-2.049h-1.208
				v-2.049h-1.208v-2.049H9.663v-2.05H8.455v-2.049H7.247v-2.049H6.04v2.049H4.832v2.049H3.624v2.05H2.417v2.049H1.208v2.049H0.001
				v2.049h1.208v2.049h1.208v2.05h1.208v2.049h1.208L4.833,124.997z M6.041,120.9h1.208v-2.049h1.208v-2.05h1.208v-2.049H8.456
				v-2.049H7.249v-2.049H6.041v2.049H4.833v2.049H3.625v2.049h1.208v2.05h1.208V120.9z M6.041,116.803h1.208v-2.049H6.041V116.803z
				 M0.002,122.95H1.21v-2.049H0.002V122.95z M0.002,110.656H1.21v-2.049H0.002V110.656z M13.285,125h0.725v-4.097h-0.725V125z
				 M13.285,110.656h0.725v-4.097h-0.725V110.656z M2.416,106.56h1.208v-2.05h1.208v-2.049h1.208v-2.049H4.831v-2.049H3.624v-2.05
				H2.416v2.05H1.208v2.049H0v2.049h1.208v2.049h1.208V106.56z M2.416,102.462h1.208v-2.049H2.416V102.462z M9.663,106.56h1.208
				v-2.05h1.208v-2.049h1.208v-2.049h-1.208v-2.049h-1.208v-2.05H9.663v2.05H8.455v2.049H7.247v2.049h1.208v2.049h1.208V106.56z
				 M9.663,102.462h1.208v-2.049H9.663V102.462z M0.002,94.266H1.21v-2.049H0.002V94.266z M13.285,96.314h0.725v-4.097h-0.725
				V96.314z M0.002,88.117H1.21v2.049h1.208v2.05h1.208v2.049h1.208v2.049h1.208v2.05h1.208v-2.05h1.208v-2.049h1.208v-2.049h1.208
				v-2.05h1.208v-2.049h1.208v-2.049h0.725v-8.197h-0.725v-2.049h-1.208v-2.049h-1.208v-2.049H9.664v-2.05H8.456v-2.049H7.249
				v-5.327H4.833v1.229H3.625v2.049H2.418v2.049H1.21v2.049H0.002v6.147H1.21v-2.049h1.208v-2.05h1.208v-2.049h1.208v2.049h1.208
				v2.05h1.208v2.049h1.208v2.049h1.208v2.049h1.208v2.05H9.664v2.049H8.457v2.049H4.834v-2.049H7.25V81.97H6.042v-2.05H4.834
				v-2.049H3.626v2.049H2.418v2.05H1.211v2.049H0.003L0.002,88.117z M0.002,79.921H1.21v-2.05H0.002V79.921z M13.285,73.773h0.725
				v-2.049h-0.725V73.773z M10.87,69.677h1.208v-2.049h1.208v-2.05h0.725v-3.277h-0.725v1.229h-1.208v2.049H10.87V69.677z
				 M8.455,63.529h1.208v-1.229H8.455V63.529z"/>
			<g transform="matrix(1 0 0 -1 0 4500)">
				<path id="b_3_" fill="#C8313E" d="M22.949,124.997h-3.622v-2.049h-1.208v-2.049h-1.208v-2.05h-1.208v-2.049h-1.208v-2.049h1.208
					v-2.049h1.208v-2.049h1.208v-2.05h1.208v-2.049h1.208v-2.049h1.208v2.049h1.208v2.049h1.208v2.05h1.208v2.049h1.208v2.049h1.208
					v2.049h-1.208v2.049h-1.208v2.05h-1.208v2.049H22.95L22.949,124.997z M21.741,120.9h-1.208v-2.049h-1.208v-2.05h-1.208v-2.049
					h1.208v-2.049h1.208v-2.049h1.208v2.049h1.208v2.049h1.208v2.049h-1.208v2.05h-1.208V120.9z M21.741,116.803h-1.208v-2.049
					h1.208V116.803z M27.78,122.95h-1.208v-2.049h1.208V122.95z M27.78,110.656h-1.208v-2.049h1.208V110.656z M14.497,125h-0.725
					v-4.097h0.725V125z M14.497,110.656h-0.725v-4.097h0.725V110.656z M25.366,106.56h-1.208v-2.05h-1.208v-2.049h-1.208v-2.049
					h1.208v-2.049h1.208v-2.05h1.208v2.05h1.208v2.049h1.208v2.049h-1.208v2.049h-1.208V106.56z M25.366,102.462h-1.208v-2.049
					h1.208V102.462z M18.119,106.56h-1.208v-2.05h-1.208v-2.049h-1.208v-2.049h1.208v-2.049h1.208v-2.05h1.208v2.05h1.208v2.049
					h1.208v2.049h-1.208v2.049h-1.208V106.56z M18.119,102.462h-1.208v-2.049h1.208V102.462z M27.78,94.266h-1.208v-2.049h1.208
					V94.266z M14.497,96.314h-0.725v-4.097h0.725V96.314z M27.78,88.117h-1.208v2.049h-1.208v2.05h-1.208v2.049h-1.208v2.049h-1.208
					v2.05h-1.208v-2.05h-1.208v-2.049h-1.208v-2.049H16.91v-2.05h-1.208v-2.049h-1.208v-2.049H13.77v-8.197h0.725v-2.049h1.208
					v-2.049h1.208v-2.049h1.208v-2.05h1.208v-2.049h1.208v-5.327h2.416v1.229h1.208v2.049h1.208v2.049h1.208v2.049h1.208v6.147
					h-1.208v-2.049h-1.208v-2.05h-1.208v-2.049h-1.208v2.049h-1.208v2.05h-1.208v2.049h-1.208v2.049h-1.208v2.049H16.91v2.05h1.208
					v2.049h1.208v2.049h3.622v-2.049h-2.415V81.97h1.208v-2.05h1.208v-2.049h1.208v2.049h1.208v2.05h1.208v2.049h1.208L27.78,88.117
					z M27.78,79.921h-1.208v-2.05h1.208V79.921z M14.497,73.773h-0.725v-2.049h0.725V73.773z M16.912,69.677h-1.208v-2.049h-1.208
					v-2.05h-0.725v-3.277h0.725v1.229h1.208v2.049h1.208V69.677z M19.327,63.529H18.12v-1.229h1.208V63.529z"/>
			</g>
		</g>
	</g>
</g>
</svg>
