<?xml version="1.0" encoding="utf-8"?>
<!-- Generator: Adobe Illustrator 14.0.0, SVG Export Plug-In . SVG Version: 6.00 Build 43363)  -->
<!DOCTYPE svg PUBLIC "-//W3C//DTD SVG 1.1//EN" "http://www.w3.org/Graphics/SVG/1.1/DTD/svg11.dtd">
<svg version="1.1" id="Calque_1" xmlns="http://www.w3.org/2000/svg" xmlns:xlink="http://www.w3.org/1999/xlink" x="0px" y="0px"
	 width="200px" height="125px" viewBox="0 0 200 125" enable-background="new 0 0 200 125" xml:space="preserve">
<g>
	<rect fill="#FF0000" width="200" height="125"/>
	<path fill="#D52B1E" d="M0,0h200v125H0V0z"/>
	<rect x="50" fill="#FFFFFF" width="100" height="125"/>
	<path fill="#D52B1E" d="M99.999,21.875L93.176,34.6c-0.774,1.384-2.161,1.255-3.548,0.482l-4.939-2.558L88.37,52.07
		c0.774,3.57-1.71,3.57-2.936,2.026l-8.621-9.649l-1.399,4.9c-0.161,0.643-0.871,1.319-1.935,1.158l-10.9-2.292l2.863,10.409
		c0.613,2.316,1.091,3.275-0.619,3.886l-3.885,1.826l18.764,15.241c0.743,0.577,1.118,1.613,0.854,2.553l-1.643,5.39
		c6.461-0.745,12.25-1.865,18.714-2.556c0.571-0.061,1.526,0.881,1.522,1.543l-0.856,19.744h3.142l-0.495-19.702
		c-0.004-0.662,0.863-1.646,1.434-1.585c6.465,0.69,12.254,1.811,18.714,2.556l-1.643-5.39c-0.264-0.939,0.111-1.976,0.854-2.553
		l18.764-15.241l-3.885-1.826c-1.711-0.61-1.232-1.569-0.619-3.886l2.863-10.409l-10.9,2.292c-1.065,0.161-1.774-0.515-1.936-1.158
		l-1.4-4.9l-8.62,9.649c-1.225,1.544-3.709,1.544-2.935-2.026l3.681-19.546l-4.938,2.558c-1.388,0.772-2.774,0.901-3.549-0.482"/>
</g>
</svg>
