<?xml version="1.0" encoding="utf-8"?>
<!-- Generator: Adobe Illustrator 14.0.0, SVG Export Plug-In . SVG Version: 6.00 Build 43363)  -->
<!DOCTYPE svg PUBLIC "-//W3C//DTD SVG 1.1//EN" "http://www.w3.org/Graphics/SVG/1.1/DTD/svg11.dtd">
<svg version="1.1" id="Calque_1" xmlns="http://www.w3.org/2000/svg" xmlns:xlink="http://www.w3.org/1999/xlink" x="0px" y="0px"
	 width="200px" height="125px" viewBox="0 0 200 125" enable-background="new 0 0 200 125" xml:space="preserve">
<rect x="0" fill="#DE2910" width="200" height="125"/>
<polygon fill="#FFDE00" points="40.599,35.694 52.355,27.153 37.824,27.153 33.334,13.333 28.844,27.153 14.312,27.153 
	26.068,35.694 21.578,49.514 33.334,40.973 45.089,49.514 "/>
<polygon fill="#FFDE00" points="68.588,15.005 73.308,13.918 68.851,12.023 69.276,7.198 66.096,10.851 61.639,8.956 64.131,13.109 
	60.951,16.763 65.671,15.677 68.163,19.831 "/>
<polygon fill="#FFDE00" points="81.122,28.953 85.894,29.783 82.521,26.306 84.786,22.024 80.437,24.157 77.065,20.681 
	77.75,25.476 73.401,27.61 78.173,28.44 78.858,33.235 "/>
<polygon fill="#FFDE00" points="82.449,47.366 86.263,44.38 81.422,44.554 79.761,40.004 78.431,44.661 73.59,44.834 77.608,47.54 
	76.278,52.197 80.092,49.211 84.11,51.917 "/>
<polygon fill="#FFDE00" points="68.655,61.591 73.327,60.309 68.794,58.6 69.019,53.762 65.994,57.544 61.461,55.835 64.124,59.882 
	61.098,63.664 65.769,62.383 68.431,66.43 "/>
</svg>
