<?xml version="1.0" encoding="utf-8"?>
<!-- Generator: Adobe Illustrator 14.0.0, SVG Export Plug-In . SVG Version: 6.00 Build 43363)  -->
<!DOCTYPE svg PUBLIC "-//W3C//DTD SVG 1.1//EN" "http://www.w3.org/Graphics/SVG/1.1/DTD/svg11.dtd">
<svg version="1.1" id="Calque_1" xmlns="http://www.w3.org/2000/svg" xmlns:xlink="http://www.w3.org/1999/xlink" x="0px" y="0px"
	 width="200px" height="125px" viewBox="0 0 200 125" enable-background="new 0 0 200 125" xml:space="preserve">
<g>
	<polyline fill="#005FA7" points="0,0 200,0 200,13.888 0,13.888 0,0 	"/>
	<polyline fill="#FFFFFF" points="0,13.888 200,13.888 200,27.778 0,27.778 0,13.888 	"/>
	<polyline fill="#005FA7" points="0,27.778 200,27.778 200,41.667 0,41.667 0,27.778 	"/>
	<polyline fill="#FFFFFF" points="0,41.667 200,41.667 200,55.555 0,55.555 0,41.667 	"/>
	<polyline fill="#005FA7" points="0,55.555 200,55.555 200,69.445 0,69.445 0,55.555 	"/>
	<polyline fill="#FFFFFF" points="0,69.445 200,69.445 200,83.334 0,83.334 0,69.445 	"/>
	<polyline fill="#005FA7" points="0,83.334 200,83.334 200,97.223 0,97.223 0,83.334 	"/>
	<polyline fill="#FFFFFF" points="0,97.223 200,97.223 200,111.111 0,111.111 0,97.223 	"/>
	<polyline fill="#005FA7" points="0,111.111 200,111.111 200,125 0,125 0,111.111 	"/>
	<polyline fill="#005FA7" points="68.941,69.445 0,69.445 0,0.123 68.941,0.123 68.941,69.445 	"/>
	<polyline fill="#FFFFFF" points="0,27.778 68.941,27.778 68.941,41.667 0,41.667 0,27.778 	"/>
	<polygon fill="#FFFFFF" points="41.377,0.123 41.377,71.506 27.564,71.506 27.564,0.123 	"/>
</g>
</svg>
