<?xml version="1.0" encoding="utf-8"?>
<!-- Generator: Adobe Illustrator 14.0.0, SVG Export Plug-In . SVG Version: 6.00 Build 43363)  -->
<!DOCTYPE svg PUBLIC "-//W3C//DTD SVG 1.1//EN" "http://www.w3.org/Graphics/SVG/1.1/DTD/svg11.dtd">
<svg version="1.1" id="Calque_1" xmlns="http://www.w3.org/2000/svg" xmlns:xlink="http://www.w3.org/1999/xlink" x="0px" y="0px"
	 width="200px" height="125px" viewBox="0 0 200 125" enable-background="new 0 0 200 125" xml:space="preserve">
<g>
	<g>
		<path fill="#002395" d="M0,0v125h200V0H0z"/>
	</g>
	<polygon fill="#FFFFFF" points="100,74.293 181.132,125 200,125 200,113.207 118.868,62.5 200,11.792 200,0 181.132,0 100,50.708 
		18.868,0 0,0 0,11.792 81.132,62.5 0,113.207 0,125 18.869,125 	"/>
	<path d="M0,0l200,125 M200,0L0,125"/>
	<path d="M0,0l200,125 M200,0L0,125"/>
	<path d="M100,0v125 M0,62.5h200"/>
	<polygon fill="#DB152E" points="100,67.217 192.453,125 200,125 200,120.283 107.547,62.5 200,4.717 200,0 192.452,0 100,57.783 
		7.547,0 0,0 0,4.717 92.453,62.5 0,120.283 0,125 7.547,125 	"/>
	<polygon fill="#FFFFFF" points="116,125 84,125 84,78.5 0,78.5 0,46.5 84,46.5 84,0 116,0 116,46.5 200,46.5 200,78.5 116,78.5 
		116,125 	"/>
	<g>
		<path d="M100,0v125 M0,62.5h200"/>
		<polygon fill="#DB152E" points="108,125 92,125 92,70.5 0,70.5 0,54.5 92,54.5 92,0 108,0 108,54.5 200,54.5 200,70.5 108,70.5 
			108,125 		"/>
	</g>
</g>
</svg>
