<?xml version="1.0" encoding="utf-8"?>
<!-- Generator: Adobe Illustrator 14.0.0, SVG Export Plug-In . SVG Version: 6.00 Build 43363)  -->
<!DOCTYPE svg PUBLIC "-//W3C//DTD SVG 1.1//EN" "http://www.w3.org/Graphics/SVG/1.1/DTD/svg11.dtd">
<svg version="1.1" id="Calque_1" xmlns="http://www.w3.org/2000/svg" xmlns:xlink="http://www.w3.org/1999/xlink" x="0px" y="0px"
	 width="200px" height="125px" viewBox="0 0 200 125" enable-background="new 0 0 200 125" xml:space="preserve">
<g>
	<rect y="-0.5" fill="#FFFFFF" width="200" height="125"/>
	<path fill="#FF0000" d="M87.25-0.5v50H0v25h87.25v50h25.5v-50H200v-25h-87.25v-50H87.25z"/>
	<path fill="#FF0000" d="M43.281,12.281c-1.443,0-2.865-0.09-4.261-0.263c0.743,3.933,1.136,7.989,1.136,12.138
		s-0.394,8.205-1.136,12.138c1.396-0.172,2.818-0.263,4.261-0.263s2.865,0.09,4.261,0.263c-0.743-3.933-1.136-7.989-1.136-12.138
		s0.394-8.205,1.136-12.138C46.146,12.191,44.724,12.281,43.281,12.281z"/>
	<path fill="#FF0000" d="M31.406,24.156c0,1.443-0.09,2.865-0.263,4.261c3.933-0.743,7.989-1.136,12.138-1.136
		s8.205,0.394,12.138,1.136c-0.172-1.396-0.263-2.818-0.263-4.261s0.09-2.865,0.263-4.261c-3.933,0.743-7.989,1.136-12.138,1.136
		s-8.205-0.394-12.138-1.136C31.316,21.292,31.406,22.713,31.406,24.156z"/>
	<path fill="#FF0000" d="M156.719,87.969c-1.443,0-2.865-0.09-4.262-0.263c0.744,3.933,1.137,7.989,1.137,12.138
		s-0.393,8.205-1.137,12.138c1.396-0.173,2.818-0.263,4.262-0.263s2.865,0.09,4.262,0.263c-0.743-3.933-1.137-7.989-1.137-12.138
		s0.394-8.205,1.137-12.138C159.584,87.879,158.162,87.969,156.719,87.969z"/>
	<path fill="#FF0000" d="M144.844,99.844c0,1.443-0.09,2.865-0.263,4.262c3.933-0.743,7.989-1.137,12.138-1.137
		s8.205,0.394,12.138,1.137c-0.173-1.396-0.263-2.818-0.263-4.262s0.09-2.865,0.263-4.262c-3.933,0.744-7.989,1.137-12.138,1.137
		s-8.205-0.393-12.138-1.137C144.754,96.979,144.844,98.4,144.844,99.844z"/>
	<path fill="#FF0000" d="M156.719,12.281c-1.443,0-2.865-0.09-4.262-0.263c0.744,3.933,1.137,7.989,1.137,12.138
		s-0.393,8.205-1.137,12.138c1.396-0.172,2.818-0.263,4.262-0.263s2.865,0.09,4.262,0.263c-0.743-3.933-1.137-7.989-1.137-12.138
		s0.394-8.205,1.137-12.138C159.584,12.191,158.162,12.281,156.719,12.281z"/>
	<path fill="#FF0000" d="M144.844,24.156c0,1.443-0.09,2.865-0.263,4.261c3.933-0.743,7.989-1.136,12.138-1.136
		s8.205,0.394,12.138,1.136c-0.173-1.396-0.263-2.818-0.263-4.261s0.09-2.865,0.263-4.261c-3.933,0.743-7.989,1.136-12.138,1.136
		s-8.205-0.394-12.138-1.136C144.754,21.292,144.844,22.713,144.844,24.156z"/>
	<path fill="#FF0000" d="M43.281,87.969c-1.443,0-2.865-0.09-4.261-0.263c0.743,3.933,1.136,7.989,1.136,12.138
		s-0.394,8.205-1.136,12.138c1.396-0.173,2.818-0.263,4.261-0.263s2.865,0.09,4.261,0.263c-0.743-3.933-1.136-7.989-1.136-12.138
		s0.394-8.205,1.136-12.138C46.146,87.879,44.724,87.969,43.281,87.969z"/>
	<path fill="#FF0000" d="M31.406,99.844c0,1.443-0.09,2.865-0.263,4.262c3.933-0.743,7.989-1.137,12.138-1.137
		s8.205,0.394,12.138,1.137c-0.172-1.396-0.263-2.818-0.263-4.262s0.09-2.865,0.263-4.262c-3.933,0.744-7.989,1.137-12.138,1.137
		s-8.205-0.393-12.138-1.137C31.316,96.979,31.406,98.4,31.406,99.844z"/>
</g>
</svg>
