<?xml version="1.0" encoding="utf-8"?>
<!-- Generator: Adobe Illustrator 14.0.0, SVG Export Plug-In . SVG Version: 6.00 Build 43363)  -->
<!DOCTYPE svg PUBLIC "-//W3C//DTD SVG 1.1//EN" "http://www.w3.org/Graphics/SVG/1.1/DTD/svg11.dtd">
<svg version="1.1" id="Calque_1" xmlns="http://www.w3.org/2000/svg" xmlns:xlink="http://www.w3.org/1999/xlink" x="0px" y="0px"
	 width="200px" height="125px" viewBox="0 0 200 125" enable-background="new 0 0 200 125" xml:space="preserve">
<g>
	<rect y="-0.5" fill="#DA0000" width="200" height="125"/>
	<rect y="-0.5" fill="#FFFFFF" width="200" height="86.904"/>
	<rect y="-0.5" fill="#239F40" width="200" height="38.095"/>
	<g id="tb1">
		<path id="tbp1" fill="none" stroke="#FFFFFF" stroke-width="0.6349" d="M2.667,31.818h11.556 M3.111,35.818v-2.222h3.556v1.778
			h3.556v-1.778H8 M4.444,35.374h0.889 M14.222,35.374H12v-1.778h3.556 M15.556,31.374v4h3.556v-4 M17.333,31.374v4"/>
		<path id="tbp2" fill="none" stroke="#FFFFFF" stroke-width="0.6349" d="M2.667,37.596h8 M11.556,37.596h8"/>
		<g>
			<path id="tbp2_1_" fill="none" stroke="#FFFFFF" stroke-width="0.6349" d="M2.667,86.404h8 M11.556,86.404h8"/>
		</g>
		<g>
			<path id="tbp1_1_" fill="none" stroke="#FFFFFF" stroke-width="0.6349" d="M2.667,88.627h11.556 M3.111,92.627v-2.223h3.556
				v1.779h3.556v-1.779H8 M4.444,92.184h0.889 M14.222,92.184H12v-1.779h3.556 M15.556,88.184v4h3.556v-4 M17.333,88.184v4"/>
		</g>
	</g>
	<g>
		<g>
			<g id="tb1_1_">
				<path id="tbp1_2_" fill="none" stroke="#FFFFFF" stroke-width="0.6349" d="M20.444,31.818H32 M20.889,35.818v-2.222h3.556v1.778
					H28v-1.778h-2.222 M22.222,35.374h0.889 M32,35.374h-2.222v-1.778h3.556 M33.333,31.374v4h3.556v-4 M35.111,31.374v4"/>
				<path id="tbp2_2_" fill="none" stroke="#FFFFFF" stroke-width="0.6349" d="M20.444,37.596h8 M29.333,37.596h8"/>
				<g>
					<path id="tbp2_3_" fill="none" stroke="#FFFFFF" stroke-width="0.6349" d="M20.444,86.404h8 M29.333,86.404h8"/>
				</g>
				<g>
					<path id="tbp1_3_" fill="none" stroke="#FFFFFF" stroke-width="0.6349" d="M20.444,88.627H32 M20.889,92.627v-2.223h3.556
						v1.779H28v-1.779h-2.222 M22.222,92.184h0.889 M32,92.184h-2.222v-1.779h3.556 M33.333,88.184v4h3.556v-4 M35.111,88.184v4"/>
				</g>
			</g>
			<g id="tb4">
				<g id="tb1_2_">
					<path id="tbp1_4_" fill="none" stroke="#FFFFFF" stroke-width="0.6349" d="M38.222,31.818h11.556 M38.667,35.818v-2.222h3.556
						v1.778h3.556v-1.778h-2.222 M40,35.374h0.889 M49.778,35.374h-2.222v-1.778h3.556 M51.111,31.374v4h3.555v-4 M52.889,31.374v4"
						/>
					<path id="tbp2_4_" fill="none" stroke="#FFFFFF" stroke-width="0.6349" d="M38.222,37.596h8 M47.111,37.596h8"/>
					<g>
						<path id="tbp2_5_" fill="none" stroke="#FFFFFF" stroke-width="0.6349" d="M38.222,86.404h8 M47.111,86.404h8"/>
					</g>
					<g>
						<path id="tbp1_5_" fill="none" stroke="#FFFFFF" stroke-width="0.6349" d="M38.222,88.627h11.556 M38.667,92.627v-2.223h3.556
							v1.779h3.556v-1.779h-2.222 M40,92.184h0.889 M49.778,92.184h-2.222v-1.779h3.556 M51.111,88.184v4h3.555v-4 M52.889,88.184v4
							"/>
					</g>
				</g>
				<g id="tb3">
					<g id="tb1_3_">
						<path id="tbp1_6_" fill="none" stroke="#FFFFFF" stroke-width="0.6349" d="M56,31.818h11.556 M56.444,35.818v-2.222H60v1.778
							h3.556v-1.778h-2.222 M57.778,35.374h0.889 M67.556,35.374h-2.222v-1.778h3.555 M68.889,31.374v4h3.556v-4 M70.667,31.374v4"
							/>
						<path id="tbp2_6_" fill="none" stroke="#FFFFFF" stroke-width="0.6349" d="M56,37.596h8 M64.889,37.596h8"/>
						<g>
							<path id="tbp2_7_" fill="none" stroke="#FFFFFF" stroke-width="0.6349" d="M56,86.404h8 M64.889,86.404h8"/>
						</g>
						<g>
							<path id="tbp1_7_" fill="none" stroke="#FFFFFF" stroke-width="0.6349" d="M56,88.627h11.556 M56.444,92.627v-2.223H60v1.779
								h3.556v-1.779h-2.222 M57.778,92.184h0.889 M67.556,92.184h-2.222v-1.779h3.555 M68.889,88.184v4h3.556v-4 M70.667,88.184v4"
								/>
						</g>
					</g>
				</g>
			</g>
			<g>
				<g>
					<g>
						<g id="tb1_4_">
							<path id="tbp1_8_" fill="none" stroke="#FFFFFF" stroke-width="0.6349" d="M73.778,31.818h11.556 M74.222,35.818v-2.222
								h3.556v1.778h3.556v-1.778h-2.222 M75.556,35.374h0.889 M85.333,35.374h-2.223v-1.778h3.556 M86.667,31.374v4h3.556v-4
								 M88.444,31.374v4"/>
							<path id="tbp2_8_" fill="none" stroke="#FFFFFF" stroke-width="0.6349" d="M73.778,37.596h8 M82.667,37.596h8"/>
							<g>
								<path id="tbp2_9_" fill="none" stroke="#FFFFFF" stroke-width="0.6349" d="M73.778,86.404h8 M82.667,86.404h8"/>
							</g>
							<g>
								<path id="tbp1_9_" fill="none" stroke="#FFFFFF" stroke-width="0.6349" d="M73.778,88.627h11.556 M74.222,92.627v-2.223
									h3.556v1.779h3.556v-1.779h-2.222 M75.556,92.184h0.889 M85.333,92.184h-2.223v-1.779h3.556 M86.667,88.184v4h3.556v-4
									 M88.444,88.184v4"/>
							</g>
						</g>
						<g>
							<g id="tb1_5_">
								<path id="tbp1_10_" fill="none" stroke="#FFFFFF" stroke-width="0.6349" d="M91.556,31.818h11.556 M92,35.818v-2.222h3.556
									v1.778h3.556v-1.778h-2.222 M93.333,35.374h0.889 M103.111,35.374h-2.223v-1.778h3.556 M104.444,31.374v4H108v-4
									 M106.223,31.374v4"/>
								<path id="tbp2_10_" fill="none" stroke="#FFFFFF" stroke-width="0.6349" d="M91.556,37.596h8 M100.444,37.596h8"/>
								<g>
									<path id="tbp2_11_" fill="none" stroke="#FFFFFF" stroke-width="0.6349" d="M91.556,86.404h8 M100.444,86.404h8"/>
								</g>
								<g>
									<path id="tbp1_11_" fill="none" stroke="#FFFFFF" stroke-width="0.6349" d="M91.556,88.627h11.556 M92,92.627v-2.223h3.556
										v1.779h3.556v-1.779h-2.222 M93.333,92.184h0.889 M103.111,92.184h-2.223v-1.779h3.556 M104.444,88.184v4H108v-4
										 M106.223,88.184v4"/>
								</g>
							</g>
							<g id="tb3_1_">
								<g id="tb1_6_">
									<path id="tbp1_12_" fill="none" stroke="#FFFFFF" stroke-width="0.6349" d="M109.334,31.818h11.555 M109.777,35.818v-2.222
										h3.557v1.778h3.555v-1.778h-2.223 M111.111,35.374H112 M120.889,35.374h-2.223v-1.778h3.557 M122.223,31.374v4h3.555v-4
										 M124,31.374v4"/>
									<path id="tbp2_12_" fill="none" stroke="#FFFFFF" stroke-width="0.6349" d="M109.334,37.596h7.999 M118.223,37.596h8"/>
									<g>
										<path id="tbp2_13_" fill="none" stroke="#FFFFFF" stroke-width="0.6349" d="M109.334,86.404h7.999 M118.223,86.404h8"/>
									</g>
									<g>
										<path id="tbp1_13_" fill="none" stroke="#FFFFFF" stroke-width="0.6349" d="M109.334,88.627h11.555 M109.777,92.627
											v-2.223h3.557v1.779h3.555v-1.779h-2.223 M111.111,92.184H112 M120.889,92.184h-2.223v-1.779h3.557 M122.223,88.184v4
											h3.555v-4 M124,88.184v4"/>
									</g>
								</g>
							</g>
							<g>
								<g>
									<g id="tb1_7_">
										<path id="tbp1_14_" fill="none" stroke="#FFFFFF" stroke-width="0.6349" d="M127.111,31.818h11.555 M127.556,35.818
											v-2.222h3.556v1.778h3.555v-1.778h-2.222 M128.889,35.374h0.889 M138.666,35.374h-2.222v-1.778H140 M140,31.374v4h3.556
											v-4 M141.777,31.374v4"/>
										<path id="tbp2_14_" fill="none" stroke="#FFFFFF" stroke-width="0.6349" d="M127.111,37.596h8 M136,37.596h8"/>
										<g>
											<path id="tbp2_15_" fill="none" stroke="#FFFFFF" stroke-width="0.6349" d="M127.111,86.404h8 M136,86.404h8"/>
										</g>
										<g>
											<path id="tbp1_15_" fill="none" stroke="#FFFFFF" stroke-width="0.6349" d="M127.111,88.627h11.555 M127.556,92.627
												v-2.223h3.556v1.779h3.555v-1.779h-2.222 M128.889,92.184h0.889 M138.666,92.184h-2.222v-1.779H140 M140,88.184v4h3.556
												v-4 M141.777,88.184v4"/>
										</g>
									</g>
									<g>
										<g transform="translate(8.4,100.4)">
											<g id="tb1_8_">
												<path id="tbp1_16_" fill="none" stroke="#FFFFFF" stroke-width="0.6349" d="M144.889,31.818h11.556 M145.334,35.818
													v-2.222h3.555v1.778h3.556v-1.778h-2.222 M146.666,35.374h0.89 M156.444,35.374h-2.222v-1.778h3.555 M157.777,31.374v4
													h3.557v-4 M159.556,31.374v4"/>
												<path id="tbp2_16_" fill="none" stroke="#FFFFFF" stroke-width="0.6349" d="M144.889,37.596h8 M153.777,37.596h8"/>
												<g>
													<path id="tbp2_17_" fill="none" stroke="#FFFFFF" stroke-width="0.6349" d="M144.889,86.404h8 M153.777,86.404h8"/>
												</g>
												<g>
													<path id="tbp1_17_" fill="none" stroke="#FFFFFF" stroke-width="0.6349" d="M144.889,88.627h11.556 M145.334,92.627
														v-2.223h3.555v1.779h3.556v-1.779h-2.222 M146.666,92.184h0.89 M156.444,92.184h-2.222v-1.779h3.555 M157.777,88.184v4
														h3.557v-4 M159.556,88.184v4"/>
												</g>
											</g>
											<g id="tb4_1_">
												<g id="tb1_9_">
													<path id="tbp1_18_" fill="none" stroke="#FFFFFF" stroke-width="0.6349" d="M162.667,31.818h11.556 M163.111,35.818
														v-2.222h3.555v1.778h3.557v-1.778H168 M164.444,35.374h0.89 M174.223,35.374H172v-1.778h3.556 M175.556,31.374v4h3.556
														v-4 M177.333,31.374v4"/>
													<path id="tbp2_18_" fill="none" stroke="#FFFFFF" stroke-width="0.6349" d="M162.667,37.596h7.999 M171.556,37.596h8"
														/>
													<g>
														<path id="tbp2_19_" fill="none" stroke="#FFFFFF" stroke-width="0.6349" d="M162.667,86.404h7.999 M171.556,86.404h8"
															/>
													</g>
													<g>
														<path id="tbp1_19_" fill="none" stroke="#FFFFFF" stroke-width="0.6349" d="M162.667,88.627h11.556 M163.111,92.627
															v-2.223h3.555v1.779h3.557v-1.779H168 M164.444,92.184h0.89 M174.223,92.184H172v-1.779h3.556 M175.556,88.184v4
															h3.556v-4 M177.333,88.184v4"/>
													</g>
												</g>
												<g id="tb3_2_">
													<g id="tb1_10_">
														<path id="tbp1_20_" fill="none" stroke="#FFFFFF" stroke-width="0.6349" d="M180.444,31.818H192 M180.889,35.818
															v-2.222h3.556v1.778H188v-1.778h-2.223 M182.223,35.374h0.889 M192,35.374h-2.223v-1.778h3.557 M193.334,31.374v4
															h3.555v-4 M195.111,31.374v4"/>
														<path id="tbp2_20_" fill="none" stroke="#FFFFFF" stroke-width="0.6349" d="M180.444,37.596h8 M189.334,37.596h7.999"
															/>
														<g>
															<path id="tbp2_21_" fill="none" stroke="#FFFFFF" stroke-width="0.6349" d="M180.444,86.404h8 M189.334,86.404h7.999
																"/>
														</g>
														<g>
															<path id="tbp1_21_" fill="none" stroke="#FFFFFF" stroke-width="0.6349" d="M180.444,88.627H192 M180.889,92.627
																v-2.223h3.556v1.779H188v-1.779h-2.223 M182.223,92.184h0.889 M192,92.184h-2.223v-1.779h3.557 M193.334,88.184v4
																h3.555v-4 M195.111,88.184v4"/>
														</g>
													</g>
												</g>
											</g>
										</g>
										<g transform="matrix(45,0,0,45,315,180)">
											<g id="emblem_half">
												<path fill="#DA0000" d="M-5.009-2.274c0.202,0.066,0.419-0.045,0.485-0.247c0.048-0.148,0.003-0.31-0.115-0.411
													c0.131,0.193,0.08,0.456-0.113,0.586C-4.828-2.295-4.918-2.27-5.009-2.274"/>
												<path fill="#DA0000" d="M-4.517-2.348c0.154-0.089,0.207-0.286,0.118-0.441C-4.443-2.864-4.515-2.919-4.6-2.94
													C-4.413-2.8-4.376-2.535-4.517-2.348C-4.516-2.349-4.517-2.348-4.517-2.348"/>
												<path fill="#DA0000" d="M-4.778-2.205l-0.021-0.422l0.021-0.332c0.013,0.018,0.03,0.032,0.05,0.042v0.248L-4.745-2.25
													L-4.778-2.205z"/>
												<path fill="#DA0000" d="M-4.786-2.986l0.008,0.008c0.019,0.027,0.057,0.034,0.085,0.015
													c0.023-0.016,0.032-0.046,0.021-0.072C-4.677-3.004-4.707-2.984-4.739-2.99c-0.016-0.003-0.031-0.013-0.039-0.028"/>
											</g>
											<g transform="scale(-1,1)">
												<g id="emblem_half_1_">
													<path fill="#DA0000" d="M-4.546-2.274c-0.202,0.066-0.419-0.045-0.485-0.247c-0.048-0.148-0.003-0.31,0.115-0.411
														c-0.131,0.193-0.08,0.456,0.113,0.586C-4.727-2.295-4.637-2.27-4.546-2.274"/>
													<path fill="#DA0000" d="M-5.039-2.348c-0.154-0.089-0.207-0.286-0.118-0.441c0.044-0.076,0.116-0.13,0.201-0.151
														C-5.142-2.8-5.18-2.535-5.039-2.348C-5.039-2.349-5.039-2.348-5.039-2.348"/>
													<path fill="#DA0000" d="M-4.778-2.205l0.021-0.422l-0.021-0.332c-0.013,0.018-0.03,0.032-0.05,0.042v0.248l0.017,0.419
														L-4.778-2.205z"/>
													<path fill="#DA0000" d="M-4.769-2.986l-0.008,0.008c-0.019,0.027-0.057,0.034-0.085,0.015
														c-0.023-0.016-0.032-0.046-0.021-0.072c0.006,0.031,0.036,0.052,0.067,0.046C-4.8-2.993-4.786-3.003-4.778-3.017"/>
												</g>
											</g>
										</g>
									</g>
								</g>
							</g>
						</g>
					</g>
				</g>
			</g>
		</g>
	</g>
</g>
</svg>
