<?xml version="1.0" encoding="utf-8"?>
<!-- Generator: Adobe Illustrator 14.0.0, SVG Export Plug-In . SVG Version: 6.00 Build 43363)  -->
<!DOCTYPE svg PUBLIC "-//W3C//DTD SVG 1.1//EN" "http://www.w3.org/Graphics/SVG/1.1/DTD/svg11.dtd">
<svg version="1.1" id="Calque_1" xmlns="http://www.w3.org/2000/svg" xmlns:xlink="http://www.w3.org/1999/xlink" x="0px" y="0px"
	 width="200px" height="125px" viewBox="0 0 200 125" enable-background="new 0 0 200 125" xml:space="preserve">
<title>Flag of South Korea</title>
<g>
	<rect x="0" y="-0.5" fill="#FFFFFF" width="200" height="125"/>
	<g id="b">
		<path d="M52.331,48.998l-4.333-2.889l17.334-26.002l4.333,2.89L52.331,48.998L52.331,48.998z M45.83,44.665l-4.333-2.89
			l17.334-26.001l4.333,2.89L45.83,44.665L45.83,44.665z M39.33,40.332l-4.333-2.89l17.334-26.001l4.333,2.889L39.33,40.332
			L39.33,40.332z"/>
	</g>
	<g>
		
			<rect x="145.405" y="84.025" transform="matrix(-0.5547 0.8321 -0.8321 -0.5547 309.0727 7.8471)" width="14.063" height="5.208"/>
		
			<rect x="138.906" y="79.692" transform="matrix(-0.5546 0.8321 -0.8321 -0.5546 295.3523 6.5001)" width="14.062" height="5.207"/>
		
			<rect x="151.905" y="88.359" transform="matrix(-0.5547 0.8321 -0.8321 -0.5547 322.7843 9.1768)" width="14.063" height="5.208"/>
		
			<rect x="142.372" y="102.659" transform="matrix(0.5547 -0.8321 0.8321 0.5547 -21.0554 171.185)" width="14.063" height="5.208"/>
		
			<rect x="135.871" y="98.326" transform="matrix(0.5547 -0.8321 0.8321 0.5547 -20.3442 163.8459)" width="14.063" height="5.207"/>
		<rect x="129.37" y="93.992" transform="matrix(0.5546 -0.8321 0.8321 0.5546 -19.6261 156.5249)" width="14.062" height="5.207"/>
	</g>
	<circle fill="#CD2E3A" cx="100" cy="62" r="31.25"/>
	<path fill="#0047A0" d="M73.999,44.665c-4.787,7.181-2.847,16.882,4.333,21.668S95.213,69.18,100,62
		c4.787-7.181,14.488-9.121,21.668-4.334s9.121,14.488,4.334,21.668c-9.574,14.36-28.976,18.24-43.336,8.667
		S64.425,59.025,73.999,44.665z"/>
	<polygon points="154.17,44.665 136.836,18.664 141.168,15.774 158.504,41.775 154.17,44.665 	"/>
	<g>
		<rect x="40.532" y="84.025" transform="matrix(0.5547 0.8321 -0.8321 0.5547 93.2621 -0.998)" width="14.063" height="5.208"/>
		
			<rect x="30.205" y="95.509" transform="matrix(-0.5547 -0.8321 0.8321 -0.5547 -10.3835 190.6694)" width="31.25" height="5.208"/>
		<rect x="50.066" y="98.326" transform="matrix(-0.5547 -0.8321 0.8321 -0.5547 4.7908 204.4233)" width="14.063" height="5.208"/>
		<rect x="56.227" y="73.82" transform="matrix(0.8321 -0.5547 0.5547 0.8321 -39.7325 47.6508)" width="5.208" height="31.25"/>
	</g>
	<g>
		
			<rect x="129.371" y="24.799" transform="matrix(0.5547 0.8321 -0.8321 0.5547 83.5405 -101.2911)" width="14.063" height="5.207"/>
		<rect x="143.332" y="34.672" transform="matrix(0.832 -0.5547 0.5547 0.832 1.3797 87.9626)" width="5.209" height="14.062"/>
	</g>
	<g>
		
			<rect x="142.372" y="16.132" transform="matrix(0.5546 0.8321 -0.8321 0.5546 82.1284 -115.9724)" width="14.061" height="5.208"/>
		<rect x="156.332" y="26.006" transform="matrix(0.8321 -0.5546 0.5546 0.8321 8.3613 93.695)" width="5.208" height="14.063"/>
	</g>
</g>
</svg>
