<?xml version="1.0" encoding="utf-8"?>
<!-- Generator: Adobe Illustrator 14.0.0, SVG Export Plug-In . SVG Version: 6.00 Build 43363)  -->
<!DOCTYPE svg PUBLIC "-//W3C//DTD SVG 1.1//EN" "http://www.w3.org/Graphics/SVG/1.1/DTD/svg11.dtd">
<svg version="1.1" id="Calque_1" xmlns="http://www.w3.org/2000/svg" xmlns:xlink="http://www.w3.org/1999/xlink" x="0px" y="0px"
	 width="200px" height="125px" viewBox="0 0 200 125" enable-background="new 0 0 200 125" xml:space="preserve">
<g>
	<rect y="-0.5" fill="#ED1C24" width="200" height="125"/>
	<rect y="30.75" fill="#FFFFFF" width="200" height="62.5"/>
	<path fill="#00A651" d="M99.147,30.75c-1.342,2.825-3.868,4.799-6.283,6.668c-0.397,0.347-1.385,1.019-0.668,1.53
		c0.614-0.686,2.299,0.223,1.319,0.96c-0.877,0.821-2.085,1.122-3.059,1.799c-0.863,0.468-1.737,0.958-2.421,1.675
		c-0.047,1.121,1.39,0.5,1.973,0.967c0.76,0.812-0.322,2.181-1.318,1.868c-1.274,0.039-2.154,1.16-2.636,2.23
		c-0.997,1.542-2.886,1.998-4.389,2.875c-0.86,0.501-1.695,1.057-2.496,1.642c-1.033,0.706-0.135,2.104,0.964,1.761
		c1.186-0.119,2.253-1.05,3.481-0.782c1.114,0.391,1.426,1.847,1.047,2.863c-0.281,0.813-0.962,1.387-1.508,2.022
		c-0.886,0.898-2.045,1.48-3.267,1.759c-1.181,0.396-2.242,1.12-3.017,2.097c-0.899,0.904-1.794,1.824-2.828,2.578
		c-0.326,0.834,0.595,1.543,1.363,1.521c1.618-0.102,2.739-1.426,4.117-2.106c1.144-0.514,2.489,0.719,2.21,1.91
		c-0.089,1.158-1.174,1.747-2.139,2.104c-2.836,1.426-5.299,3.494-7.486,5.775c-0.452,0.922-1.695,0.65-2.365,1.294
		c-0.436,0.813,0.658,1.243,1.312,1.159c2.806-0.338,5.425-1.523,7.905-2.828c0.922-0.441,1.789-1.021,2.748-1.373
		c0.901-0.223,2.157,0.168,2.318,1.193c-0.001,1.083-1.074,1.683-1.923,2.105c-2.619,1.376-5.493,2.137-8.292,3.046
		c-1.048-0.293-1.837,1.571-0.688,1.906c1.216,0.417,2.508,0.083,3.751,0.028c3.845-0.589,7.207-2.67,10.801-4.014
		c1.494-0.487,3.258,0.192,3.995,1.592c0.741,1.248,0.673,2.889-0.108,4.102c-1.235,2.643-3.112,5.07-5.633,6.59
		c-1.582,0.783-3.429,1.082-4.785,2.281c-1.254,0.414,0.628,2.108,0.9,0.764c0.754-1.027,2.083-1.335,3.289-1.377
		c1.812-0.197,3.736-0.532,5.144-1.786c1.262-0.98,2.506-2.332,4.22-2.354c0.947,0.112,1.884,0.874,2.846,0.409
		c0.841-0.385,2.162-0.159,2.382,0.875c0.402,1.211,1.65,1.762,2.639,2.409c0.358,0.503,1.548,1.8,1.822,0.657
		c-0.222-0.816,0.095-2.064,1.165-1.792c0.935,0.042,1.825,0.387,2.758,0.443c1.242,0.257,2.279,1.107,2.984,2.134
		c0.484,0.671,1.548,1.822,2.338,0.934c0.49-0.919-0.445-1.686-1.207-2.014c-1.111-0.688-2.061-1.604-3.031-2.473
		c-1.431-1.336-2.667-3.036-2.895-5.033c-0.308-1.99-0.146-4.021,0.114-6.006c0.327-1.279,1.962-1.977,3.104-1.297
		c1.608,0.733,3.205,1.783,5.049,1.669c2.664,0.058,5.402-0.452,8.006,0.319c2.533,0.799,4.345,2.937,6.812,3.861
		c0.553,0.336,1.26,0.017,1.462-0.573c0.245-0.53,0.072-1.209-0.438-1.511c-2.86-2.888-6.77-4.29-10.079-6.547
		c-1.042-0.264-1.231-1.94-0.269-2.424c1.267-0.921,3.059-0.492,4.182,0.457c0.949,0.555,2.018,0.972,3.131,0.973
		c1.141-0.357,0.588-2.007-0.434-2.131c-1.85-1.045-3.175-2.759-4.777-4.117c-0.922-0.781-1.933-1.572-3.172-1.724
		c-0.678-0.123-1.372-0.15-2.059-0.104c-0.645-0.699,0.215-1.771,1.047-1.684c0.855,0.058,1.705,0.121,2.559,0.002
		c0.953-0.07,1.906-0.168,2.863-0.175c0.773,0.527,2.316-0.382,1.619-1.29c-0.762-0.668-1.863-0.61-2.773-0.952
		c-1.599-0.525-3.227-0.949-4.874-1.281c-1.153-0.069-1.011-1.586,0.003-1.753c0.662-0.248,1.239,0.262,1.875,0.341
		c1.088,0.233,2.21,0.23,3.297,0.467c0.921-0.455,0.209-1.801-0.625-1.879c-1.966-0.703-3.665-1.972-5.326-3.207
		c-1.835-1.379-3.499-2.975-5.355-4.322c-0.674-0.417-1.777-0.538-1.955-1.463c-0.062-0.851,0.939-1.239,1.649-1.04
		c1.008,0.297,1.946,0.815,2.974,1.07c0.806,0.137,1.637,0.375,2.413,0.274c0.985-0.619-0.423-1.015-0.933-1.23
		c-1.314-0.708-2.482-1.653-3.665-2.554c-0.999-0.853,0.848-1.23,1.483-0.901c1.062,0.444,1.184-1.104,0.389-1.494
		c-0.936-0.398-1.74-1.058-2.588-1.634c-1.533-1.091-3.271-1.956-5.154-2.195c-2.113-0.212-4.086-1.428-5.207-3.234
		C100.15,33.025,99.641,31.886,99.147,30.75z M92.208,42.604c1.089,0.032,0.922,1.995-0.15,1.864
		C91.016,44.401,91.08,42.394,92.208,42.604z M102.48,43.661c1.06-0.189,1.284,1.745,0.226,1.835
		C101.603,45.694,101.193,43.539,102.48,43.661z M99.472,43.914c1.074,0.211,0.883,2.083-0.201,2.099
		c-0.793,0.177-1.648,0.718-2.451,0.312c-0.653-0.69,0.291-1.711,1.019-1.936C98.398,44.277,98.912,44.023,99.472,43.914z
		 M106.396,43.922c1.035,0.377,0.67,2.205-0.422,2.182c-1.033,0.139-1.514-1.584-0.551-1.993
		C105.735,44,106.062,43.907,106.396,43.922z M94.715,45.995c0.761,0.724,0.312,2.123-0.627,2.457
		c-0.677,0.376-1.599,1.267-2.336,0.534c-0.399-0.895,0.604-1.568,1.194-2.065C93.473,46.511,94.055,46.139,94.715,45.995z
		 M103.41,50.036c1.09,0.515,0.536,2.479-0.66,2.357c-0.982-0.249-0.854-1.934,0.136-2.068
		C103.072,50.252,103.244,50.147,103.41,50.036z M99.951,50.231c1.02,0.477,0.241,2.178-0.786,1.933
		c-1.065-0.125-1.045-1.997,0.129-1.828C99.516,50.326,99.744,50.32,99.951,50.231z M107.406,51.207
		c1.117-0.347,2.463,0.804,2.101,1.972c-0.498,0.905-1.729,1.02-2.611,0.681c-1.013-0.05-1.694-1.572-0.792-2.217
		C106.477,51.36,106.947,51.244,107.406,51.207z M90.903,51.499c0.924-0.502,1.905,1.008,1.119,1.675
		c-0.52,0.765-1.856,1.078-2.446,0.227C89.086,52.569,89.878,51.173,90.903,51.499z M86.641,52.215
		c1.048,0.144,1.73,1.095,2.118,2.001c0.095,1.104-1.535,1.71-2.246,0.907c-0.799-0.501-1.5-1.533-1.08-2.49
		C85.69,52.253,86.205,52.096,86.641,52.215z M112.141,56.207c1.138-0.3,1.964,1.518,0.986,2.175
		c-0.893,0.811-2.629-0.263-2.163-1.42C111.195,56.533,111.658,56.248,112.141,56.207z M97.665,58.28
		c0.954,0.122,0.645,1.774-0.237,1.719C96.481,59.824,96.698,58.187,97.665,58.28z M92.828,59.158
		c0.778-0.55,1.781,0.793,1.134,1.419C93.186,61.124,92.18,59.801,92.828,59.158z M100.52,59.321c0.9,0.548,1.437,1.569,1.549,2.6
		c-0.433,0.963-2.101,0.731-2.289-0.294C99.449,60.815,99.753,59.772,100.52,59.321z M103.203,60.915
		c1.162-0.292,0.745,2.136-0.225,1.294C102.656,61.826,102.828,61.196,103.203,60.915z M86.345,62.605
		c0.77-0.225,1.891,0.012,2.103,0.895c0.09,0.83-0.822,1.262-1.491,1.467c-1.072,0.331-2.12,0.874-3.272,0.801
		c-0.864-0.493-1.174-1.504-1.481-2.385c0.833-0.781,2.061-0.553,3.095-0.748C85.646,62.617,85.996,62.608,86.345,62.605z
		 M112.495,66.411c0.981-0.481,2.036,1.076,1.216,1.804c-1.028,1.184-3.007,1.402-4.236,0.409c-0.147-1.047,0.898-1.808,1.827-1.958
		C111.692,66.557,112.081,66.392,112.495,66.411z M118.012,67.605c1.114-0.191,1.992,1.399,1.196,2.223
		c-0.753,1.137-2.551,1.435-3.578,0.503c-0.4-0.942,0.412-1.924,1.276-2.226C117.278,67.947,117.631,67.744,118.012,67.605z
		 M90.276,69.297c1.033-0.102,1.979,0.923,1.843,1.941c0.748,0.735-0.576,2.105-1.321,1.344c-0.656-0.795-0.652-1.874-0.907-2.826
		C89.88,69.545,90.036,69.271,90.276,69.297z M98.203,69.891c1.068-0.461,2.449,0.816,1.868,1.896
		c-0.415,0.881-2.034,0.586-1.98-0.434C98.088,70.865,98.049,70.365,98.203,69.891z M94.347,70.582
		c1.07-0.246,2.053,1.143,1.458,2.068C94.737,72.745,94.183,71.479,94.347,70.582z"/>
</g>
</svg>
