<?xml version="1.0" encoding="utf-8"?>
<!-- Generator: Adobe Illustrator 14.0.0, SVG Export Plug-In . SVG Version: 6.00 Build 43363)  -->
<!DOCTYPE svg PUBLIC "-//W3C//DTD SVG 1.1//EN" "http://www.w3.org/Graphics/SVG/1.1/DTD/svg11.dtd">
<svg version="1.1" id="Calque_1" xmlns="http://www.w3.org/2000/svg" xmlns:xlink="http://www.w3.org/1999/xlink" x="0px" y="0px"
	 width="200px" height="125px" viewBox="0 0 200 125" enable-background="new 0 0 200 125" xml:space="preserve">
<g>
	<rect y="-0.5" fill="#D20000" width="200" height="125"/>
	<path fill="#FFE600" stroke="#D20000" stroke-width="0.1786" d="M117.953,53.023L200-0.5h-37.5l-47.071,49.641
		c-3.168-3.797-7.714-6.392-12.866-7.049L112.5-0.5h-25l9.938,42.592c-5.153,0.658-9.699,3.252-12.867,7.049L37.5-0.5H0
		l82.047,53.523c-1.072,2.139-1.789,4.487-2.035,6.978L0,49.5v25l80.012-10.501c0.246,2.491,0.963,4.839,2.035,6.978L0,124.5h37.5
		l47.071-49.641c3.168,3.797,7.714,6.391,12.867,7.049L87.5,124.5h25l-9.938-42.592c5.152-0.658,9.698-3.252,12.866-7.049
		L162.5,124.5H200l-82.047-53.523c1.072-2.139,1.789-4.486,2.035-6.978L200,74.5v-25l-80.012,10.501
		C119.742,57.51,119.025,55.163,117.953,53.023z"/>
</g>
</svg>
