<?xml version="1.0" encoding="utf-8"?>
<!-- Generator: Adobe Illustrator 14.0.0, SVG Export Plug-In . SVG Version: 6.00 Build 43363)  -->
<!DOCTYPE svg PUBLIC "-//W3C//DTD SVG 1.1//EN" "http://www.w3.org/Graphics/SVG/1.1/DTD/svg11.dtd">
<svg version="1.1" id="Calque_1" xmlns="http://www.w3.org/2000/svg" xmlns:xlink="http://www.w3.org/1999/xlink" x="0px" y="0px"
	 width="200px" height="125px" viewBox="0 0 200 125" enable-background="new 0 0 200 125" xml:space="preserve">
<rect fill="#00247D" width="200" height="125"/>
<g id="Flag_of_the_United_Kingdom">
	<g>
		<defs>
			<rect id="SVGID_1_" width="95" height="62.5"/>
		</defs>
		<clipPath id="SVGID_2_">
			<use xlink:href="#SVGID_1_"  overflow="visible"/>
		</clipPath>
		<g id="Saint_Andrews_Cross" clip-path="url(#SVGID_2_)">
			<path d="M0,0l95,62.5 M0,62.5L95,0"/>
			<polygon fill="#FFFFFF" points="92.205,68.09 47.5,38.238 2.795,68.09 -2.795,56.91 33.524,31.25 -2.795,5.59 2.795,-5.59 
				47.5,24.262 92.205,-5.59 97.795,5.59 61.476,31.25 97.795,56.91 92.205,68.09 			"/>
		</g>
	</g>
	<g>
		<defs>
			<path id="SVGID_3_" d="M0,0l47.5,31.25H0V0z M47.5,0H95L47.5,31.25V0z M47.5,31.25H95V62.5L47.5,31.25z M47.5,31.25V62.5H0
				L47.5,31.25z"/>
		</defs>
		<clipPath id="SVGID_4_">
			<use xlink:href="#SVGID_3_"  overflow="visible"/>
		</clipPath>
		<g id="Saint_Patricks_Cross" clip-path="url(#SVGID_4_)">
			<path d="M0,0l95,62.5 M0,62.5L95,0"/>
			<polygon fill="#CC142B" points="93.137,66.227 47.5,35.909 1.863,66.227 -1.863,58.773 38.183,31.25 -1.863,3.727 1.863,-3.727 
				47.5,26.591 93.137,-3.727 96.863,3.727 56.817,31.25 96.863,58.773 93.137,66.227 			"/>
		</g>
	</g>
	<g id="Saint_Georges_Cross">
		<g>
			<defs>
				<rect id="SVGID_5_" width="95" height="62.5"/>
			</defs>
			<clipPath id="SVGID_6_">
				<use xlink:href="#SVGID_5_"  overflow="visible"/>
			</clipPath>
			<g clip-path="url(#SVGID_6_)">
				<path d="M47.5,0v62.5 M0,31.25h95"/>
				<polygon fill="#FFFFFF" points="57.917,62.5 37.083,62.5 37.083,41.667 0,41.667 0,20.833 37.083,20.833 37.083,0 57.917,0 
					57.917,20.833 95,20.833 95,41.667 57.917,41.667 57.917,62.5 				"/>
			</g>
		</g>
		<g>
			<defs>
				<rect id="SVGID_7_" width="95" height="62.5"/>
			</defs>
			<clipPath id="SVGID_8_">
				<use xlink:href="#SVGID_7_"  overflow="visible"/>
			</clipPath>
			<g clip-path="url(#SVGID_8_)">
				<path d="M47.5,0v62.5 M0,31.25h95"/>
				<polygon fill="#CC142B" points="53.75,62.5 41.25,62.5 41.25,37.5 0,37.5 0,25 41.25,25 41.25,0 53.75,0 53.75,25 95,25 
					95,37.5 53.75,37.5 53.75,62.5 				"/>
			</g>
		</g>
	</g>
</g>
<polygon fill="#FFFFFF" points="156.958,21.927 149.732,21.927 147.5,15.055 145.268,21.927 138.042,21.927 143.887,26.174 
	141.654,33.046 147.5,28.799 153.346,33.046 151.113,26.174 "/>
<polygon fill="#CC142B" points="149.888,25.775 153.75,22.969 148.976,22.969 147.5,18.428 146.024,22.969 141.25,22.969 
	145.112,25.775 143.638,30.316 147.5,27.51 151.362,30.316 "/>
<polygon fill="#FFFFFF" points="180.674,43.786 174.244,43.786 172.257,37.671 170.271,43.786 163.84,43.786 169.042,47.565 
	167.055,53.68 172.257,49.901 177.459,53.68 175.472,47.565 "/>
<polygon fill="#CC142B" points="174.246,47.167 177.465,44.829 173.486,44.829 172.257,41.044 171.027,44.829 167.049,44.829 
	170.268,47.167 169.038,50.951 172.257,48.612 175.476,50.951 "/>
<polygon fill="#FFFFFF" points="122.23,55.233 128.075,50.986 120.85,50.986 118.617,44.114 116.385,50.986 109.159,50.986 
	115.004,55.233 112.771,62.105 118.617,57.858 124.463,62.105 "/>
<polygon fill="#CC142B" points="121.005,54.834 124.867,52.028 120.093,52.028 118.617,47.488 117.142,52.028 112.367,52.028 
	116.229,54.834 114.755,59.376 118.617,56.569 122.479,59.376 "/>
<polygon fill="#FFFFFF" points="151.511,101.304 158,96.588 149.979,96.588 147.5,88.96 145.021,96.588 137,96.588 143.489,101.304 
	141.011,108.932 147.5,104.217 153.989,108.932 "/>
<polygon fill="#CC142B" points="150.285,100.905 154.792,97.631 149.221,97.631 147.5,92.333 145.779,97.631 140.208,97.631 
	144.715,100.905 142.993,106.202 147.5,102.929 152.007,106.202 "/>
</svg>
