<?xml version="1.0" encoding="utf-8"?>
<!-- Generator: Adobe Illustrator 14.0.0, SVG Export Plug-In . SVG Version: 6.00 Build 43363)  -->
<!DOCTYPE svg PUBLIC "-//W3C//DTD SVG 1.1//EN" "http://www.w3.org/Graphics/SVG/1.1/DTD/svg11.dtd">
<svg version="1.1" id="Calque_1" xmlns="http://www.w3.org/2000/svg" xmlns:xlink="http://www.w3.org/1999/xlink" x="0px" y="0px"
	 width="200px" height="125px" viewBox="0 0 200 125" enable-background="new 0 0 200 125" xml:space="preserve">
<g>
	<rect y="-0.5" fill="#FF0000" width="200" height="125"/>
	<rect y="-0.5" fill="#006600" width="80" height="125"/>
	<g>
		<path fill="#FFFF00" stroke="#000000" stroke-width="0.191" stroke-linecap="round" stroke-linejoin="round" d="M106.08,85.346
			C96.01,85.043,49.833,56.219,49.517,51.63l2.55-4.253c4.58,6.655,51.787,34.688,56.423,33.693L106.08,85.346"/>
		<path fill="#FFFF00" stroke="#000000" stroke-width="0.191" stroke-linecap="round" stroke-linejoin="round" d="M51.53,46.799
			c-0.904,2.432,12.049,10.439,27.634,19.918c15.584,9.478,29.022,15.335,30.017,14.495c0.061-0.109,0.49-0.846,0.451-0.84
			c-0.188,0.281-0.641,0.369-1.351,0.164c-4.21-1.215-15.191-6.254-28.791-14.502c-13.6-8.247-25.431-15.848-27.271-19.077
			c-0.128-0.224-0.219-0.632-0.2-0.95l-0.045-0.001l-0.392,0.685L51.53,46.799L51.53,46.799L51.53,46.799z M106.316,85.479
			c-0.17,0.311-0.488,0.32-1.094,0.256c-3.767-0.418-15.196-5.977-28.721-14.072c-15.736-9.42-28.733-18.003-27.323-20.247
			l0.384-0.678l0.076,0.023c-1.268,3.802,25.649,19.192,27.234,20.175c15.575,9.648,28.705,15.283,29.867,13.818l-0.423,0.729V85.48
			V85.479z"/>
		<path fill="#FFFF00" stroke="#000000" stroke-width="0.191" stroke-linecap="round" stroke-linejoin="round" d="M80.057,54.409
			c10.079-0.08,22.517-1.377,29.675-4.229l-1.543-2.506c-4.229,2.342-16.736,3.881-28.217,4.112
			c-13.579-0.125-23.163-1.389-27.965-4.612l-1.456,2.668C59.378,53.578,68.424,54.371,80.057,54.409"/>
		<path fill="#FFFF00" stroke="#000000" stroke-width="0.191" stroke-linecap="round" stroke-linejoin="round" d="M110.146,50.236
			c-0.246,0.395-4.914,2.004-11.791,3.192c-4.663,0.711-10.745,1.319-18.335,1.326c-7.211,0.006-13.102-0.506-17.562-1.111
			c-7.218-1.132-10.944-2.707-12.321-3.263c0.132-0.262,0.216-0.446,0.343-0.69c3.965,1.579,7.708,2.53,12.093,3.206
			c4.43,0.6,10.25,1.12,17.425,1.114c7.555-0.008,13.57-0.662,18.206-1.352c7.051-1.137,10.904-2.601,11.445-3.281l0.498,0.859
			H110.146L110.146,50.236z M108.793,47.695c-0.764,0.614-4.572,1.965-11.272,3.034c-4.472,0.641-10.158,1.215-17.422,1.222
			c-6.901,0.006-12.54-0.458-16.828-1.083c-6.805-0.889-10.427-2.492-11.732-2.959c0.13-0.224,0.262-0.447,0.398-0.67
			c1.016,0.511,4.511,1.93,11.408,2.907c4.24,0.601,9.887,1.049,16.754,1.042c7.23-0.007,12.851-0.592,17.294-1.229
			c6.735-0.927,10.359-2.649,10.91-3.081L108.793,47.695L108.793,47.695L108.793,47.695z"/>
		<path fill="#FFFF00" stroke="#000000" stroke-width="0.191" stroke-linecap="round" stroke-linejoin="round" d="M46.96,66.553
			c6.199,3.334,19.968,5.016,32.998,5.13c11.864,0.02,27.319-1.833,33.099-4.896l-0.158-3.338
			c-1.809,2.826-18.372,5.536-33.069,5.426c-14.697-0.111-28.346-2.381-32.896-5.32L46.96,66.553"/>
		<path fill="#FFFF00" stroke="#000000" stroke-width="0.191" stroke-linecap="round" stroke-linejoin="round" d="M113.373,66.072
			l0.001,0.797c-0.869,1.037-6.315,2.608-13.146,3.714C95.03,71.38,88.252,71.98,79.807,71.98c-8.023,0-14.421-0.572-19.383-1.334
			c-7.843-1.142-12.859-3.142-13.867-3.738l0.005-0.929c3.025,2.011,11.22,3.482,13.972,3.933
			c4.929,0.757,11.289,1.324,19.272,1.324c8.406,0,15.145-0.597,20.311-1.389C105.018,69.141,111.999,67.299,113.373,66.072
			L113.373,66.072L113.373,66.072z M113.377,63.242v0.796c-0.869,1.038-6.314,2.608-13.146,3.714
			c-5.199,0.797-11.976,1.397-20.421,1.397c-8.023,0-14.421-0.571-19.382-1.334c-7.843-1.142-12.86-3.142-13.867-3.738l0.004-0.929
			c3.025,2.011,11.221,3.482,13.973,3.932c4.93,0.758,11.289,1.326,19.272,1.326c8.405,0,15.145-0.598,20.31-1.391
			C105.021,66.308,112.002,64.467,113.377,63.242L113.377,63.242L113.377,63.242z"/>
		<path fill="#FFFF00" stroke="#000000" stroke-width="0.191" stroke-linecap="round" stroke-linejoin="round" d="M79.93,84.773
			c-14.257-0.086-26.474-3.887-29.054-4.516l1.881,2.945c4.557,1.916,16.475,4.773,27.309,4.457s20.303-1.154,26.976-4.404
			l1.928-3.051C104.424,82.346,88.949,84.75,79.93,84.773"/>
		<path fill="#FFFF00" stroke="#000000" stroke-width="0.1833" stroke-linecap="round" stroke-linejoin="round" d="M107.767,82.572
			c-0.283,0.434-0.572,0.861-0.866,1.277c-3.146,1.109-8.105,2.275-10.198,2.615c-4.274,0.879-10.888,1.531-16.758,1.533
			c-12.63-0.186-22.968-2.656-27.832-4.766l-0.393-0.676l0.064-0.102l0.666,0.258c8.649,3.096,18.363,4.33,27.566,4.553
			c5.846,0.02,11.698-0.672,16.431-1.518c7.257-1.453,10.191-2.551,11.091-3.047L107.767,82.572L107.767,82.572L107.767,82.572z
			 M109.439,79.814c0.008,0.008,0.014,0.018,0.021,0.025c-0.212,0.357-0.43,0.723-0.654,1.088c-1.679,0.6-6.234,1.934-12.886,2.863
			c-4.383,0.598-7.107,1.176-15.826,1.344c-16.338-0.416-26.917-3.609-29.43-4.398l-0.373-0.713
			c9.468,2.471,19.141,4.197,29.803,4.373c7.977-0.17,11.371-0.758,15.717-1.35c7.756-1.207,11.665-2.484,12.838-2.852
			c-0.016-0.021-0.031-0.045-0.051-0.066L109.439,79.814L109.439,79.814L109.439,79.814z"/>
		<path fill="#FFFF00" stroke="#000000" stroke-width="0.191" stroke-linecap="round" stroke-linejoin="round" d="M109.609,63.92
			c0.047,9.379-4.752,17.795-8.619,21.508c-5.469,5.254-12.72,8.633-21.189,8.789c-9.457,0.172-18.374-5.992-20.765-8.701
			c-4.676-5.295-8.483-12.018-8.605-21.08c0.579-10.237,4.598-17.367,10.422-22.257c5.825-4.89,13.582-7.271,20.041-7.101
			c7.453,0.197,16.159,3.853,22.174,11.111C107.008,50.944,108.716,56.104,109.609,63.92L109.609,63.92z M79.881,31.806
			c18.161,0,33.098,14.779,33.098,32.901c0,18.121-14.937,32.9-33.098,32.9c-18.162,0-32.975-14.779-32.975-32.9
			C46.907,46.585,61.72,31.806,79.881,31.806"/>
		<path fill="#FFFF00" stroke="#000000" stroke-width="0.191" stroke-linecap="round" stroke-linejoin="round" d="M79.97,31.693
			c18.178,0,33.004,14.828,33.004,33.007c0,18.181-14.826,33.007-33.004,33.007S46.966,82.881,46.966,64.7
			C46.966,46.521,61.792,31.693,79.97,31.693L79.97,31.693z M47.693,64.701c0,17.752,14.579,32.279,32.277,32.279
			c17.699,0,32.278-14.527,32.278-32.279c0-17.755-14.579-32.282-32.278-32.282C62.271,32.419,47.693,46.947,47.693,64.701
			L47.693,64.701z"/>
		<path fill="#FFFF00" stroke="#000000" stroke-width="0.191" stroke-linecap="round" stroke-linejoin="round" d="M79.997,34.436
			c16.577,0,30.231,13.607,30.231,30.235c0,16.628-13.655,30.235-30.231,30.235c-16.577,0-30.231-13.607-30.231-30.235
			C49.766,48.043,63.42,34.436,79.997,34.436L79.997,34.436z M50.492,64.67c0,16.229,13.327,29.51,29.505,29.51
			c16.178,0,29.505-13.281,29.505-29.51c0-16.228-13.327-29.508-29.505-29.508C63.818,35.162,50.492,48.442,50.492,64.67
			L50.492,64.67z"/>
		<path fill="#FFFF00" stroke="#000000" stroke-width="0.191" stroke-linecap="round" stroke-linejoin="round" d="M81.327,31.56
			h-2.828l0.003,66.319h2.838L81.327,31.56z"/>
		<path fill="#FFFF00" stroke="#000000" stroke-width="0.191" stroke-linecap="round" stroke-linejoin="round" d="M81.043,31.181
			h0.72l0.005,67.084h-0.72L81.043,31.181L81.043,31.181z M78.236,31.182h0.726l0,67.083h-0.726L78.236,31.182L78.236,31.182z"/>
		<path fill="#FFFF00" stroke="#000000" stroke-width="0.191" stroke-linecap="round" stroke-linejoin="round" d="M112.997,65.979
			v-2.453L111,61.666l-11.333-3L83.333,57l-19.667,1l-14,3.333l-2.826,2.093v2.453L54,62.666L71,60h16.333l12,1.333l8.333,2
			L112.997,65.979z"/>
		<path fill="#FFFF00" stroke="#000000" stroke-width="0.191" stroke-linecap="round" stroke-linejoin="round" d="M79.983,59.59
			c7.794-0.015,15.357,0.738,21.354,1.906c6.19,1.237,10.547,2.785,12.035,4.523l-0.001,0.861c-1.796-2.164-7.658-3.75-12.173-4.656
			c-5.953-1.158-13.464-1.906-21.216-1.891c-8.179,0.015-15.796,0.79-21.662,1.934c-4.706,0.934-10.983,2.789-11.767,4.619V65.99
			c0.43-1.266,5.104-3.16,11.662-4.472C64.125,60.366,71.756,59.604,79.983,59.59L79.983,59.59z M79.986,56.759
			c7.794-0.014,15.357,0.739,21.355,1.906c6.189,1.238,10.546,2.786,12.035,4.524l-0.002,0.859
			c-1.797-2.162-7.657-3.748-12.172-4.654c-5.954-1.159-13.465-1.906-21.217-1.892c-8.179,0.015-15.758,0.791-21.625,1.934
			c-4.542,0.861-11.075,2.79-11.804,4.62V63.16c0.43-1.253,5.199-3.214,11.662-4.473C64.129,57.536,71.759,56.774,79.986,56.759
			L79.986,56.759z"/>
		<path fill="#FFFF00" stroke="#000000" stroke-width="0.191" stroke-linecap="round" stroke-linejoin="round" d="M79.827,42.319
			c12.283-0.061,22.997,1.718,27.898,4.229l1.789,3.093c-4.262-2.296-15.819-4.683-29.669-4.326
			c-11.285,0.069-23.343,1.242-29.392,4.47l2.134-3.569C57.552,43.64,69.261,42.334,79.827,42.319"/>
		<path fill="#FFFF00" stroke="#000000" stroke-width="0.191" stroke-linecap="round" stroke-linejoin="round" d="M79.99,44.873
			c7.005-0.019,13.775,0.376,19.158,1.348c5.014,0.933,9.795,2.333,10.479,3.087l0.53,0.937c-1.663-1.086-5.8-2.294-11.113-3.302
			c-5.335-1.003-12.1-1.335-19.067-1.317c-7.907-0.027-14.05,0.39-19.323,1.31c-5.576,1.043-9.445,2.533-10.399,3.242l0.519-0.99
			c1.855-0.946,4.797-2.086,9.741-2.977C65.968,45.215,72.177,44.916,79.99,44.873L79.99,44.873L79.99,44.873z M79.987,42.045
			c6.705-0.018,13.324,0.355,18.484,1.283c4.07,0.792,8.094,2.029,9.568,3.13l0.775,1.231c-1.318-1.464-6.279-2.853-10.658-3.63
			c-5.12-0.883-11.465-1.232-18.169-1.288c-7.036,0.019-13.539,0.45-18.584,1.369c-4.814,0.916-7.92,2-9.234,2.847l0.682-1.029
			c1.814-0.955,4.744-1.832,8.434-2.548C66.368,42.484,72.91,42.064,79.987,42.045L79.987,42.045z"/>
		<path fill="#FFFF00" stroke="#000000" stroke-width="0.191" stroke-linecap="round" stroke-linejoin="round" d="M96.383,78.42
			c-6.072-1.133-12.156-1.299-16.406-1.248c-20.469,0.24-27.081,4.203-27.888,5.402l-1.53-2.494
			c5.211-3.777,16.357-5.895,29.529-5.68c6.84,0.113,12.741,0.568,17.707,1.529L96.383,78.42"/>
		<path fill="#FFFF00" stroke="#000000" stroke-width="0.1833" stroke-linecap="round" stroke-linejoin="round" d="M79.86,76.82
			c5.694,0.084,11.283,0.32,16.678,1.326l-0.391,0.689c-5.011-0.926-10.352-1.279-16.268-1.25
			c-7.554-0.061-15.195,0.646-21.847,2.555c-2.099,0.584-5.573,1.934-5.928,3.049l-0.388-0.641c0.112-0.658,2.212-2.027,6.138-3.129
			C65.473,77.236,72.6,76.869,79.86,76.82L79.86,76.82L79.86,76.82z M80.118,73.953c5.899,0.111,11.992,0.385,17.914,1.557
			l-0.407,0.719c-5.347-1.062-10.457-1.416-17.472-1.523c-7.578,0.014-15.617,0.555-22.926,2.68
			c-2.359,0.688-6.432,2.172-6.568,3.35l-0.389-0.689c0.088-1.068,3.614-2.463,6.786-3.385
			C64.422,74.518,72.482,73.969,80.118,73.953L80.118,73.953z"/>
		<path fill="#FFFF00" stroke="#000000" stroke-width="0.191" stroke-linecap="round" stroke-linejoin="round" d="M109.193,80.459
			l-2.459,3.816L99.667,78L81.333,65.666L60.667,54.333l-10.73-3.67l2.287-4.24L53,46l6.667,1.667l22,11.333l12.667,8L105,74.666
			l4.334,5L109.193,80.459z"/>
		<path fill="#FFFF00" stroke="#000000" stroke-width="0.191" stroke-linecap="round" stroke-linejoin="round" d="M49.55,50.763
			c1.882-1.277,15.713,4.885,30.185,13.611c14.434,8.751,28.226,18.642,26.981,20.491l-0.409,0.645l-0.188,0.148
			c0.039-0.029,0.247-0.283-0.021-0.969c-0.614-2.023-10.398-9.83-26.631-19.633c-15.825-9.436-29.014-15.123-30.333-13.498
			L49.55,50.763L49.55,50.763L49.55,50.763z M109.697,80.406c1.189-2.352-11.64-12.016-27.544-21.425
			c-16.271-9.223-27.998-14.651-30.14-13.032l-0.476,0.867c-0.005,0.047,0.017-0.06,0.118-0.137c0.39-0.34,1.035-0.317,1.326-0.322
			c3.688,0.055,14.222,4.903,29.002,13.376c6.476,3.772,27.356,17.164,27.276,20.929c0.006,0.324,0.027,0.391-0.094,0.551
			L109.697,80.406v-0.002V80.406z"/>
	</g>
	<g>
		<path fill="#FFFFFF" stroke="#000000" stroke-width="0.2235" d="M60.2,68.336c0,5.424,2.221,10.33,5.819,13.914
			c3.605,3.594,8.504,5.859,13.936,5.859c5.46,0,10.416-2.217,14.005-5.797c3.59-3.578,5.814-8.516,5.815-13.959h0V41.958
			l-39.58-0.047L60.2,68.336L60.2,68.336L60.2,68.336z"/>
		<path fill="#FF0000" stroke="#000000" stroke-width="0.1691" d="M60.94,68.373v0.016c0,5.186,2.147,9.908,5.592,13.336
			c3.452,3.434,8.205,5.57,13.405,5.57c5.227,0,9.971-2.121,13.407-5.543c3.436-3.42,5.565-8.143,5.566-13.348h0V42.796
			L60.962,42.79L60.94,68.373 M91.28,50.457l0.001,16.297l-0.014,1.725l0,0c0,0.453-0.027,0.97-0.08,1.41
			c-0.308,2.577-1.493,4.822-3.249,6.57c-2.054,2.045-4.89,3.314-8.016,3.314c-3.109,0-5.879-1.314-7.942-3.367
			c-2.117-2.107-3.343-4.996-3.343-7.982l-0.005-18.009L91.28,50.457L91.28,50.457L91.28,50.457z"/>
		<g>
			<g id="castle">
				<path fill="#FFFF00" d="M63.397,49.476c0.045-1.84,1.351-2.276,1.36-2.282s1.41,0.469,1.406,2.299L63.397,49.476"/>
				<path fill="#FFFF00" stroke="#000000" stroke-width="0.1667" d="M62.27,47.229l-0.228,2.115l1.38,0.003
					c0.014-1.75,1.325-2.041,1.356-2.035c0.03-0.001,1.33,0.387,1.364,2.035h1.383l-0.249-2.131L62.27,47.229L62.27,47.229
					L62.27,47.229z"/>
				<path fill="#FFFF00" stroke="#000000" stroke-width="0.1667" d="M61.95,49.353h5.648c0.119,0,0.216,0.118,0.216,0.262
					c0,0.144-0.097,0.26-0.216,0.26H61.95c-0.12,0-0.216-0.117-0.216-0.26C61.734,49.47,61.831,49.353,61.95,49.353z"/>
				<path fill="#FFFF00" stroke="#000000" stroke-width="0.1667" d="M64.003,49.343c0.006-1.104,0.754-1.417,0.758-1.416
					c0,0,0.781,0.322,0.787,1.416H64.003"/>
				<path fill="#FFFF00" stroke="#000000" stroke-width="0.1667" d="M62.07,46.35h5.415c0.114,0,0.208,0.106,0.208,0.235
					s-0.094,0.235-0.208,0.235H62.07c-0.114,0-0.208-0.105-0.208-0.235C61.862,46.456,61.956,46.35,62.07,46.35z"/>
				<path fill="#FFFF00" stroke="#000000" stroke-width="0.1667" d="M62.183,46.823h5.179c0.109,0,0.199,0.105,0.199,0.234
					c0,0.13-0.089,0.235-0.199,0.235h-5.179c-0.109,0-0.198-0.105-0.198-0.235C61.985,46.928,62.074,46.823,62.183,46.823z"/>
				<path fill="#FFFF00" stroke="#000000" stroke-width="0.1667" d="M63.857,43.293l0.409,0v0.291h0.298v-0.297l0.419,0.001v0.295
					h0.299v-0.297h0.419l-0.001,0.671c0,0.105-0.084,0.173-0.183,0.173h-1.47c-0.099,0-0.19-0.079-0.19-0.176L63.857,43.293
					L63.857,43.293L63.857,43.293z"/>
				<path fill="#FFFF00" stroke="#000000" stroke-width="0.1667" d="M65.397,44.189l0.092,2.151l-1.435-0.006l0.095-2.15
					L65.397,44.189"/>
				<path id="cp1" fill="#FFFF00" stroke="#000000" stroke-width="0.1667" d="M63.647,45.186l0.043,1.159l-1.375,0l0.039-1.16
					H63.647L63.647,45.186L63.647,45.186z"/>
				<g>
					<path id="cp1_1_" fill="#FFFF00" stroke="#000000" stroke-width="0.1667" d="M67.183,45.186l0.044,1.159l-1.375,0l0.039-1.16
						H67.183L67.183,45.186L67.183,45.186z"/>
				</g>
				<path id="cp2" fill="#FFFF00" stroke="#000000" stroke-width="0.1667" d="M62.1,44.346l0.4,0.001v0.291h0.292V44.34l0.41,0.001
					v0.296h0.293v-0.297l0.41,0l0,0.671c0,0.104-0.083,0.173-0.179,0.173h-1.439c-0.097,0-0.187-0.079-0.187-0.176L62.1,44.346
					L62.1,44.346L62.1,44.346z"/>
				<g>
					<path id="cp2_1_" fill="#FFFF00" stroke="#000000" stroke-width="0.1667" d="M65.636,44.346l0.4,0.001v0.291h0.292V44.34
						l0.41,0.001v0.296h0.293v-0.297l0.41,0l-0.001,0.671c0,0.104-0.083,0.173-0.179,0.173h-1.439c-0.096,0-0.186-0.079-0.186-0.176
						L65.636,44.346L65.636,44.346L65.636,44.346z"/>
				</g>
				<path d="M64.633,44.869c-0.009-0.208,0.292-0.211,0.289,0v0.513h-0.289V44.869"/>
				<path id="cp3" d="M62.857,45.613c-0.001-0.202,0.278-0.207,0.275,0v0.396h-0.275V45.613"/>
				<g>
					<path id="cp3_1_" d="M66.404,45.613c-0.001-0.202,0.279-0.207,0.275,0v0.396h-0.275V45.613"/>
				</g>
			</g>
			<g>
				<g id="castle_1_">
					<path fill="#FFFF00" d="M63.397,64.916c0.045-1.84,1.351-2.276,1.36-2.282s1.41,0.469,1.406,2.299L63.397,64.916"/>
					<path fill="#FFFF00" stroke="#000000" stroke-width="0.1667" d="M62.27,62.669l-0.228,2.115l1.38,0.003
						c0.014-1.75,1.325-2.041,1.356-2.034c0.03-0.002,1.33,0.387,1.364,2.034h1.383l-0.249-2.131L62.27,62.669L62.27,62.669
						L62.27,62.669z"/>
					<path fill="#FFFF00" stroke="#000000" stroke-width="0.1667" d="M61.95,64.793h5.648c0.119,0,0.216,0.117,0.216,0.262
						c0,0.143-0.097,0.26-0.216,0.26H61.95c-0.12,0-0.216-0.117-0.216-0.26C61.734,64.91,61.831,64.793,61.95,64.793z"/>
					<path fill="#FFFF00" stroke="#000000" stroke-width="0.1667" d="M64.003,64.783c0.006-1.104,0.754-1.417,0.758-1.416
						c0,0,0.781,0.321,0.787,1.416H64.003"/>
					<path fill="#FFFF00" stroke="#000000" stroke-width="0.1667" d="M62.07,61.79h5.415c0.114,0,0.208,0.106,0.208,0.235
						s-0.094,0.235-0.208,0.235H62.07c-0.114,0-0.208-0.105-0.208-0.235C61.862,61.896,61.956,61.79,62.07,61.79z"/>
					<path fill="#FFFF00" stroke="#000000" stroke-width="0.1667" d="M62.183,62.263h5.179c0.109,0,0.199,0.105,0.199,0.234
						c0,0.129-0.089,0.235-0.199,0.235h-5.179c-0.109,0-0.198-0.106-0.198-0.235C61.985,62.368,62.074,62.263,62.183,62.263z"/>
					<path fill="#FFFF00" stroke="#000000" stroke-width="0.1667" d="M63.857,58.733l0.409,0v0.291h0.298v-0.297l0.419,0.001v0.296
						h0.299v-0.297h0.419l-0.001,0.67c0,0.105-0.084,0.174-0.183,0.174h-1.47c-0.099,0-0.19-0.079-0.19-0.175L63.857,58.733
						L63.857,58.733L63.857,58.733z"/>
					<path fill="#FFFF00" stroke="#000000" stroke-width="0.1667" d="M65.397,59.629l0.092,2.15l-1.435-0.005l0.095-2.15
						L65.397,59.629"/>
					<path id="cp1_2_" fill="#FFFF00" stroke="#000000" stroke-width="0.1667" d="M63.647,60.626l0.043,1.16l-1.375,0l0.039-1.16
						H63.647L63.647,60.626L63.647,60.626z"/>
					<g>
						<path id="cp1_3_" fill="#FFFF00" stroke="#000000" stroke-width="0.1667" d="M67.183,60.626l0.044,1.16l-1.375,0l0.039-1.16
							H67.183L67.183,60.626L67.183,60.626z"/>
					</g>
					<path id="cp2_2_" fill="#FFFF00" stroke="#000000" stroke-width="0.1667" d="M62.1,59.786l0.4,0.001v0.291h0.292V59.78
						l0.41,0.001v0.296h0.293V59.78l0.41,0.001l0,0.67c0,0.104-0.083,0.173-0.179,0.173h-1.439c-0.097,0-0.187-0.079-0.187-0.175
						L62.1,59.786L62.1,59.786L62.1,59.786z"/>
					<g>
						<path id="cp2_3_" fill="#FFFF00" stroke="#000000" stroke-width="0.1667" d="M65.636,59.786l0.4,0.001v0.291h0.292V59.78
							l0.41,0.001v0.296h0.293V59.78l0.41,0.001l-0.001,0.67c0,0.104-0.083,0.173-0.179,0.173h-1.439
							c-0.096,0-0.186-0.079-0.186-0.175L65.636,59.786L65.636,59.786L65.636,59.786z"/>
					</g>
					<path d="M64.633,60.31c-0.009-0.209,0.292-0.211,0.289,0v0.512h-0.289V60.31"/>
					<path id="cp3_2_" d="M62.857,61.053c-0.001-0.202,0.278-0.206,0.275,0v0.396h-0.275V61.053"/>
					<g>
						<path id="cp3_3_" d="M66.404,61.053c-0.001-0.202,0.279-0.206,0.275,0v0.396h-0.275V61.053"/>
					</g>
				</g>
				<g id="castle3">
					<g id="castle_2_">
						<path fill="#FFFF00" d="M69.417,80.988c-1.274-1.33-0.664-2.562-0.661-2.574c0.002-0.01,1.327-0.67,2.622,0.623L69.417,80.988
							"/>
						<path fill="#FFFF00" stroke="#000000" stroke-width="0.1667" d="M67.029,80.203l1.34,1.652l0.975-0.977
							c-1.232-1.244-0.515-2.379-0.488-2.396c0.02-0.021,1.211-0.67,2.405,0.465l0.975-0.98l-1.688-1.326L67.029,80.203
							L67.029,80.203L67.029,80.203z"/>
						<path fill="#FFFF00" stroke="#000000" stroke-width="0.1667" d="M68.311,81.928l3.979-4.008
							c0.084-0.086,0.236-0.072,0.338,0.029s0.116,0.254,0.033,0.338l-3.98,4.008c-0.084,0.084-0.236,0.072-0.337-0.029
							C68.241,82.164,68.226,82.012,68.311,81.928z"/>
						<path fill="#FFFF00" stroke="#000000" stroke-width="0.1667" d="M69.75,80.463c-0.779-0.781-0.474-1.533-0.471-1.535
							c0,0,0.778-0.326,1.559,0.439L69.75,80.463"/>
						<path fill="#FFFF00" stroke="#000000" stroke-width="0.1667" d="M66.264,79.727l3.815-3.844c0.08-0.08,0.221-0.072,0.312,0.02
							c0.092,0.09,0.101,0.23,0.021,0.312l-3.816,3.842c-0.08,0.082-0.221,0.074-0.313-0.018
							C66.193,79.947,66.183,79.807,66.264,79.727z"/>
						<path fill="#FFFF00" stroke="#000000" stroke-width="0.1667" d="M66.679,79.979l3.649-3.674
							c0.077-0.078,0.215-0.068,0.306,0.023c0.092,0.092,0.104,0.229,0.027,0.307l-3.649,3.676
							c-0.077,0.076-0.215,0.066-0.307-0.025C66.615,80.195,66.603,80.057,66.679,79.979z"/>
						<path fill="#FFFF00" stroke="#000000" stroke-width="0.1667" d="M65.354,76.305l0.289-0.289l0.206,0.203l0.21-0.211
							l-0.21-0.209l0.295-0.297l0.21,0.209l0.211-0.213l-0.211-0.209l0.296-0.297l0.475,0.473c0.074,0.074,0.063,0.182-0.006,0.252
							l-1.036,1.043c-0.07,0.07-0.19,0.078-0.259,0.012L65.354,76.305L65.354,76.305L65.354,76.305z"/>
						<path fill="#FFFF00" stroke="#000000" stroke-width="0.1667" d="M67.075,75.844l1.59,1.449l-1.014,1.014l-1.459-1.582
							L67.075,75.844"/>
						<path id="cp1_4_" fill="#FFFF00" stroke="#000000" stroke-width="0.1667" d="M66.549,77.787l0.853,0.785l-0.968,0.977
							l-0.796-0.844L66.549,77.787L66.549,77.787L66.549,77.787z"/>
						<g>
							<path id="cp1_5_" fill="#FFFF00" stroke="#000000" stroke-width="0.1667" d="M69.041,75.277l0.854,0.785l-0.969,0.979
								l-0.795-0.846L69.041,75.277v0.002V75.277z"/>
						</g>
						<path id="cp2_4_" fill="#FFFF00" stroke="#000000" stroke-width="0.1667" d="M64.863,78.293l0.283-0.283l0.207,0.205
							l0.206-0.207l-0.211-0.211l0.29-0.289l0.21,0.209l0.207-0.207l-0.211-0.211l0.29-0.289l0.475,0.473
							c0.074,0.072,0.064,0.18-0.003,0.248l-1.014,1.021c-0.067,0.068-0.186,0.076-0.255,0.008L64.863,78.293L64.863,78.293
							L64.863,78.293z"/>
						<g>
							<path id="cp2_5_" fill="#FFFF00" stroke="#000000" stroke-width="0.1667" d="M67.354,75.783l0.283-0.283l0.207,0.205
								l0.206-0.207l-0.211-0.209l0.29-0.291l0.21,0.209L68.545,75l-0.211-0.211l0.29-0.289l0.475,0.473
								c0.074,0.074,0.064,0.18-0.003,0.248l-1.014,1.021c-0.068,0.068-0.187,0.076-0.255,0.008L67.354,75.783L67.354,75.783
								L67.354,75.783z"/>
						</g>
						<path d="M67.02,76.865c-0.155-0.143,0.056-0.357,0.203-0.207l0.363,0.361l-0.204,0.205L67.02,76.865"/>
						<path id="cp3_4_" d="M66.295,78.648c-0.145-0.141,0.05-0.342,0.194-0.195l0.281,0.279l-0.194,0.195L66.295,78.648"/>
						<g transform="matrix(0.70460892,-0.70959585,0.70959585,0.70460892,-35.341459,275.10898)">
							<path id="cp3_5_" d="M68.794,76.133c-0.144-0.143,0.05-0.344,0.194-0.197l0.28,0.279l-0.194,0.195L68.794,76.133"/>
						</g>
					</g>
				</g>
				<g>
					<g id="castle_3_">
						<path fill="#FFFF00" d="M78.634,49.476c0.045-1.84,1.351-2.276,1.36-2.282c0.01-0.006,1.411,0.469,1.406,2.299L78.634,49.476"
							/>
						<path fill="#FFFF00" stroke="#000000" stroke-width="0.1667" d="M77.508,47.229l-0.227,2.115l1.38,0.003
							c0.013-1.75,1.324-2.041,1.356-2.035c0.03-0.001,1.33,0.387,1.364,2.035h1.384l-0.25-2.131L77.508,47.229L77.508,47.229
							L77.508,47.229z"/>
						<path fill="#FFFF00" stroke="#000000" stroke-width="0.1667" d="M77.188,49.353h5.648c0.119,0,0.217,0.118,0.217,0.262
							c0,0.144-0.098,0.26-0.217,0.26h-5.648c-0.119,0-0.217-0.117-0.217-0.26C76.971,49.47,77.069,49.353,77.188,49.353z"/>
						<path fill="#FFFF00" stroke="#000000" stroke-width="0.1667" d="M79.241,49.343c0.006-1.104,0.754-1.417,0.758-1.416
							c0,0,0.781,0.322,0.787,1.416H79.241"/>
						<path fill="#FFFF00" stroke="#000000" stroke-width="0.1667" d="M77.308,46.35h5.416c0.114,0,0.208,0.106,0.208,0.235
							s-0.094,0.235-0.208,0.235h-5.416c-0.114,0-0.207-0.105-0.207-0.235C77.101,46.456,77.194,46.35,77.308,46.35z"/>
						<path fill="#FFFF00" stroke="#000000" stroke-width="0.1667" d="M77.421,46.823h5.179c0.109,0,0.198,0.105,0.198,0.234
							c0,0.13-0.089,0.235-0.198,0.235h-5.179c-0.109,0-0.198-0.105-0.198-0.235C77.223,46.928,77.312,46.823,77.421,46.823z"/>
						<path fill="#FFFF00" stroke="#000000" stroke-width="0.1667" d="M79.095,43.293l0.409,0v0.291h0.299v-0.297l0.418,0.001v0.295
							h0.299v-0.297h0.419l0,0.671c0,0.105-0.085,0.173-0.183,0.173h-1.47c-0.099,0-0.19-0.079-0.191-0.176V43.293L79.095,43.293
							L79.095,43.293z"/>
						<path fill="#FFFF00" stroke="#000000" stroke-width="0.1667" d="M80.634,44.189l0.093,2.151l-1.435-0.006l0.095-2.15
							L80.634,44.189"/>
						<path id="cp1_6_" fill="#FFFF00" stroke="#000000" stroke-width="0.1667" d="M78.884,45.186l0.044,1.159l-1.375,0l0.039-1.16
							H78.884L78.884,45.186L78.884,45.186z"/>
						<g>
							<path id="cp1_7_" fill="#FFFF00" stroke="#000000" stroke-width="0.1667" d="M82.421,45.186l0.043,1.159l-1.375,0l0.039-1.16
								H82.421L82.421,45.186L82.421,45.186z"/>
						</g>
						<path id="cp2_6_" fill="#FFFF00" stroke="#000000" stroke-width="0.1667" d="M77.338,44.346l0.4,0.001v0.291h0.292V44.34
							l0.41,0.001v0.296h0.293v-0.297l0.41,0l0,0.671c0,0.104-0.083,0.173-0.179,0.173h-1.439c-0.097,0-0.187-0.079-0.187-0.176
							L77.338,44.346L77.338,44.346L77.338,44.346z"/>
						<g>
							<path id="cp2_7_" fill="#FFFF00" stroke="#000000" stroke-width="0.1667" d="M80.875,44.346l0.399,0.001v0.291h0.293V44.34
								l0.41,0.001v0.296h0.293v-0.297l0.41,0l-0.001,0.671c0,0.104-0.083,0.173-0.179,0.173h-1.438
								c-0.097,0-0.187-0.079-0.187-0.176L80.875,44.346L80.875,44.346L80.875,44.346z"/>
						</g>
						<path d="M79.872,44.869c-0.009-0.208,0.292-0.211,0.288,0v0.513h-0.288V44.869"/>
						<path id="cp3_6_" d="M78.095,45.613c-0.001-0.202,0.279-0.207,0.275,0v0.396h-0.275V45.613"/>
						<g>
							<path id="cp3_7_" d="M81.642,45.613c-0.001-0.202,0.279-0.207,0.275,0v0.396h-0.275V45.613"/>
						</g>
					</g>
					<g>
						<g>
							<g id="castle_4_">
								<path fill="#FFFF00" d="M96.534,49.476c-0.044-1.84-1.351-2.276-1.36-2.282s-1.41,0.469-1.406,2.299L96.534,49.476"/>
								<path fill="#FFFF00" stroke="#000000" stroke-width="0.1667" d="M97.661,47.229l0.228,2.115l-1.38,0.003
									c-0.014-1.75-1.325-2.041-1.356-2.035c-0.03-0.001-1.33,0.387-1.364,2.035h-1.384l0.25-2.131L97.661,47.229L97.661,47.229
									L97.661,47.229z"/>
								<path fill="#FFFF00" stroke="#000000" stroke-width="0.1667" d="M97.981,49.353h-5.648c-0.12,0-0.217,0.118-0.217,0.262
									c0,0.144,0.097,0.26,0.217,0.26h5.648c0.119,0,0.216-0.117,0.216-0.26C98.197,49.47,98.1,49.353,97.981,49.353z"/>
								<path fill="#FFFF00" stroke="#000000" stroke-width="0.1667" d="M95.927,49.343c-0.006-1.104-0.754-1.417-0.758-1.416
									c0,0-0.781,0.322-0.787,1.416H95.927"/>
								<path fill="#FFFF00" stroke="#000000" stroke-width="0.1667" d="M97.86,46.35h-5.415c-0.114,0-0.208,0.106-0.208,0.235
									s0.094,0.235,0.208,0.235h5.415c0.115,0,0.208-0.105,0.208-0.235C98.068,46.456,97.975,46.35,97.86,46.35z"/>
								<path fill="#FFFF00" stroke="#000000" stroke-width="0.1667" d="M97.748,46.823h-5.179c-0.109,0-0.199,0.105-0.199,0.234
									c0,0.13,0.089,0.235,0.199,0.235h5.179c0.109,0,0.198-0.105,0.198-0.235C97.946,46.928,97.856,46.823,97.748,46.823z"/>
								<path fill="#FFFF00" stroke="#000000" stroke-width="0.1667" d="M96.074,43.293l-0.409,0v0.291h-0.298v-0.297l-0.419,0.001
									v0.295h-0.299v-0.297h-0.419l0.001,0.671c0,0.105,0.084,0.173,0.183,0.173h1.47c0.099,0,0.19-0.079,0.19-0.176
									L96.074,43.293L96.074,43.293L96.074,43.293z"/>
								<path fill="#FFFF00" stroke="#000000" stroke-width="0.1667" d="M94.534,44.189l-0.092,2.151l1.434-0.006l-0.095-2.15
									L94.534,44.189"/>
								<path id="cp1_8_" fill="#FFFF00" stroke="#000000" stroke-width="0.1667" d="M96.284,45.186l-0.043,1.159l1.375,0
									l-0.039-1.16H96.284L96.284,45.186L96.284,45.186z"/>
								<g>
									<path id="cp1_9_" fill="#FFFF00" stroke="#000000" stroke-width="0.1667" d="M92.748,45.186l-0.044,1.159l1.375,0
										l-0.039-1.16H92.748L92.748,45.186L92.748,45.186z"/>
								</g>
								<path id="cp2_8_" fill="#FFFF00" stroke="#000000" stroke-width="0.1667" d="M97.831,44.346l-0.4,0.001v0.291h-0.292V44.34
									l-0.41,0.001v0.296h-0.293v-0.297l-0.41,0l0,0.671c0,0.104,0.083,0.173,0.179,0.173h1.439c0.097,0,0.186-0.079,0.187-0.176
									L97.831,44.346L97.831,44.346L97.831,44.346z"/>
								<g>
									<path id="cp2_9_" fill="#FFFF00" stroke="#000000" stroke-width="0.1667" d="M94.294,44.346l-0.399,0.001v0.291h-0.293
										V44.34l-0.41,0.001v0.296h-0.293v-0.297l-0.41,0l0,0.671c0,0.104,0.083,0.173,0.179,0.173h1.439
										c0.096,0,0.186-0.079,0.187-0.176L94.294,44.346L94.294,44.346L94.294,44.346z"/>
								</g>
								<path d="M95.297,44.869c0.009-0.208-0.292-0.211-0.289,0v0.513h0.289V44.869"/>
								<path id="cp3_8_" d="M97.074,45.613c0.001-0.202-0.278-0.207-0.275,0v0.396h0.275V45.613"/>
								<g>
									<path id="cp3_9_" d="M93.527,45.613c0.001-0.202-0.279-0.207-0.275,0v0.396h0.275V45.613"/>
								</g>
							</g>
							<g>
								<g id="castle_5_">
									<path fill="#FFFF00" d="M96.534,64.916c-0.044-1.84-1.351-2.276-1.36-2.282s-1.41,0.469-1.406,2.299L96.534,64.916"/>
									<path fill="#FFFF00" stroke="#000000" stroke-width="0.1667" d="M97.661,62.669l0.228,2.115l-1.38,0.003
										c-0.014-1.75-1.325-2.041-1.356-2.034c-0.03-0.002-1.33,0.387-1.364,2.034h-1.384l0.25-2.131L97.661,62.669L97.661,62.669
										L97.661,62.669z"/>
									<path fill="#FFFF00" stroke="#000000" stroke-width="0.1667" d="M97.981,64.793h-5.648c-0.12,0-0.217,0.117-0.217,0.262
										c0,0.143,0.097,0.26,0.217,0.26h5.648c0.119,0,0.216-0.117,0.216-0.26C98.197,64.91,98.1,64.793,97.981,64.793z"/>
									<path fill="#FFFF00" stroke="#000000" stroke-width="0.1667" d="M95.927,64.783c-0.006-1.104-0.754-1.417-0.758-1.416
										c0,0-0.781,0.321-0.787,1.416H95.927"/>
									<path fill="#FFFF00" stroke="#000000" stroke-width="0.1667" d="M97.86,61.79h-5.415c-0.114,0-0.208,0.106-0.208,0.235
										s0.094,0.235,0.208,0.235h5.415c0.115,0,0.208-0.105,0.208-0.235C98.068,61.896,97.975,61.79,97.86,61.79z"/>
									<path fill="#FFFF00" stroke="#000000" stroke-width="0.1667" d="M97.748,62.263h-5.179c-0.109,0-0.199,0.105-0.199,0.234
										c0,0.129,0.089,0.235,0.199,0.235h5.179c0.109,0,0.198-0.106,0.198-0.235C97.946,62.368,97.856,62.263,97.748,62.263z"/>
									<path fill="#FFFF00" stroke="#000000" stroke-width="0.1667" d="M96.074,58.733l-0.409,0v0.291h-0.298v-0.297l-0.419,0.001
										v0.296h-0.299v-0.297h-0.419l0.001,0.67c0,0.105,0.084,0.174,0.183,0.174h1.47c0.099,0,0.19-0.079,0.19-0.175
										L96.074,58.733L96.074,58.733L96.074,58.733z"/>
									<path fill="#FFFF00" stroke="#000000" stroke-width="0.1667" d="M94.534,59.629l-0.092,2.15l1.434-0.005l-0.095-2.15
										L94.534,59.629"/>
									<path id="cp1_10_" fill="#FFFF00" stroke="#000000" stroke-width="0.1667" d="M96.284,60.626l-0.043,1.16l1.375,0
										l-0.039-1.16H96.284L96.284,60.626L96.284,60.626z"/>
									<g>
										<path id="cp1_11_" fill="#FFFF00" stroke="#000000" stroke-width="0.1667" d="M92.748,60.626l-0.044,1.16l1.375,0
											l-0.039-1.16H92.748L92.748,60.626L92.748,60.626z"/>
									</g>
									<path id="cp2_10_" fill="#FFFF00" stroke="#000000" stroke-width="0.1667" d="M97.831,59.786l-0.4,0.001v0.291h-0.292
										V59.78l-0.41,0.001v0.296h-0.293V59.78l-0.41,0.001l0,0.67c0,0.104,0.083,0.173,0.179,0.173h1.439
										c0.097,0,0.186-0.079,0.187-0.175L97.831,59.786L97.831,59.786L97.831,59.786z"/>
									<g>
										<path id="cp2_11_" fill="#FFFF00" stroke="#000000" stroke-width="0.1667" d="M94.294,59.786l-0.399,0.001v0.291h-0.293
											V59.78l-0.41,0.001v0.296h-0.293V59.78l-0.41,0.001l0,0.67c0,0.104,0.083,0.173,0.179,0.173h1.439
											c0.096,0,0.186-0.079,0.187-0.175L94.294,59.786L94.294,59.786L94.294,59.786z"/>
									</g>
									<path d="M95.297,60.31c0.009-0.209-0.292-0.211-0.289,0v0.512h0.289V60.31"/>
									<path id="cp3_10_" d="M97.074,61.053c0.001-0.202-0.278-0.206-0.275,0v0.396h0.275V61.053"/>
									<g>
										<path id="cp3_11_" d="M93.527,61.053c0.001-0.202-0.279-0.206-0.275,0v0.396h0.275V61.053"/>
									</g>
								</g>
								<g id="castle3_1_">
									<g id="castle_6_">
										<path fill="#FFFF00" d="M90.514,80.988c1.274-1.33,0.664-2.562,0.661-2.574c-0.002-0.01-1.327-0.67-2.622,0.623
											L90.514,80.988"/>
										<path fill="#FFFF00" stroke="#000000" stroke-width="0.1667" d="M92.901,80.203l-1.34,1.652l-0.975-0.977
											c1.232-1.244,0.515-2.379,0.488-2.396c-0.02-0.021-1.212-0.67-2.405,0.465l-0.975-0.98l1.688-1.326L92.901,80.203
											L92.901,80.203L92.901,80.203z"/>
										<path fill="#FFFF00" stroke="#000000" stroke-width="0.1667" d="M91.62,81.928l-3.979-4.008
											c-0.084-0.086-0.236-0.072-0.338,0.029s-0.116,0.254-0.032,0.338l3.979,4.008c0.084,0.084,0.235,0.072,0.337-0.029
											S91.704,82.012,91.62,81.928z"/>
										<path fill="#FFFF00" stroke="#000000" stroke-width="0.1667" d="M90.181,80.463c0.779-0.781,0.474-1.533,0.471-1.535
											c0,0-0.778-0.326-1.559,0.439L90.181,80.463"/>
										<path fill="#FFFF00" stroke="#000000" stroke-width="0.1667" d="M93.667,79.727l-3.815-3.844
											c-0.08-0.08-0.221-0.072-0.313,0.02c-0.092,0.09-0.101,0.23-0.021,0.312l3.816,3.842c0.08,0.082,0.221,0.074,0.313-0.018
											C93.738,79.947,93.748,79.807,93.667,79.727z"/>
										<path fill="#FFFF00" stroke="#000000" stroke-width="0.1667" d="M93.251,79.979l-3.649-3.674
											c-0.077-0.078-0.215-0.068-0.306,0.023c-0.092,0.092-0.104,0.229-0.027,0.307l3.65,3.676
											c0.077,0.076,0.214,0.066,0.307-0.025C93.316,80.195,93.328,80.057,93.251,79.979z"/>
										<path fill="#FFFF00" stroke="#000000" stroke-width="0.1667" d="M94.577,76.305l-0.289-0.289l-0.206,0.203l-0.21-0.211
											l0.21-0.209l-0.296-0.297l-0.21,0.209l-0.211-0.213l0.211-0.209l-0.296-0.297l-0.475,0.473
											c-0.075,0.074-0.063,0.182,0.006,0.252l1.036,1.043c0.069,0.07,0.19,0.078,0.258,0.012L94.577,76.305L94.577,76.305
											L94.577,76.305z"/>
										<path fill="#FFFF00" stroke="#000000" stroke-width="0.1667" d="M92.856,75.844l-1.591,1.449l1.015,1.014l1.459-1.582
											L92.856,75.844"/>
										<path id="cp1_12_" fill="#FFFF00" stroke="#000000" stroke-width="0.1667" d="M93.382,77.787l-0.854,0.785l0.969,0.977
											l0.795-0.844L93.382,77.787L93.382,77.787L93.382,77.787z"/>
										<g>
											<path id="cp1_13_" fill="#FFFF00" stroke="#000000" stroke-width="0.1667" d="M90.89,75.277l-0.854,0.785l0.969,0.979
												l0.795-0.846L90.89,75.277v0.002V75.277z"/>
										</g>
										<path id="cp2_12_" fill="#FFFF00" stroke="#000000" stroke-width="0.1667" d="M95.068,78.293l-0.282-0.283l-0.207,0.205
											l-0.206-0.207l0.211-0.211l-0.29-0.289l-0.21,0.209l-0.207-0.207l0.211-0.211l-0.29-0.289l-0.475,0.473
											c-0.074,0.072-0.064,0.18,0.003,0.248l1.014,1.021c0.068,0.068,0.187,0.076,0.255,0.008L95.068,78.293L95.068,78.293
											L95.068,78.293z"/>
										<g>
											<path id="cp2_13_" fill="#FFFF00" stroke="#000000" stroke-width="0.1667" d="M92.576,75.783L92.293,75.5l-0.207,0.205
												l-0.206-0.207l0.211-0.209l-0.29-0.291l-0.21,0.209L91.385,75l0.211-0.211l-0.29-0.289l-0.476,0.473
												c-0.074,0.074-0.064,0.18,0.004,0.248l1.014,1.021c0.068,0.068,0.187,0.076,0.255,0.008L92.576,75.783L92.576,75.783
												L92.576,75.783z"/>
										</g>
										<path d="M92.911,76.865c0.154-0.143-0.056-0.357-0.203-0.207l-0.364,0.361l0.204,0.205L92.911,76.865"/>
										<path id="cp3_12_" d="M93.635,78.648c0.145-0.141-0.05-0.342-0.193-0.195l-0.281,0.279l0.194,0.195L93.635,78.648"/>
										<g transform="matrix(-1,0,0,1,479.79195,0)">
											<path id="cp3_13_" d="M91.136,76.133c0.144-0.143-0.05-0.344-0.194-0.197l-0.281,0.279l0.193,0.195L91.136,76.133"/>
										</g>
									</g>
								</g>
								<g id="quina">
									<path fill="#003399" d="M77.545,65.469L77.545,65.469c0,0.738,0.283,1.41,0.737,1.897c0.455,0.488,1.083,0.792,1.768,0.792
										c0.689,0,1.315-0.301,1.768-0.788c0.453-0.485,0.734-1.157,0.734-1.897v-3.589l-4.998-0.004L77.545,65.469"/>
									<circle fill="#FFFFFF" cx="78.692" cy="63.245" r="0.496"/>
									<circle fill="#FFFFFF" cx="81.464" cy="63.247" r="0.495"/>
									<circle fill="#FFFFFF" cx="80.075" cy="64.577" r="0.495"/>
									<circle fill="#FFFFFF" cx="78.692" cy="65.972" r="0.495"/>
									<circle fill="#FFFFFF" cx="81.461" cy="65.968" r="0.495"/>
								</g>
								<g>
									<g id="quina_1_">
										<path fill="#003399" d="M77.545,56.796v0.001c0,0.737,0.283,1.409,0.737,1.896c0.455,0.489,1.083,0.792,1.768,0.792
											c0.689,0,1.315-0.301,1.768-0.789c0.453-0.486,0.734-1.157,0.734-1.897v-3.589l-4.998-0.004L77.545,56.796"/>
										<circle fill="#FFFFFF" cx="78.692" cy="54.573" r="0.495"/>
										<circle fill="#FFFFFF" cx="81.464" cy="54.575" r="0.495"/>
										<circle fill="#FFFFFF" cx="80.075" cy="55.906" r="0.495"/>
										<circle fill="#FFFFFF" cx="78.692" cy="57.3" r="0.495"/>
										<circle fill="#FFFFFF" cx="81.461" cy="57.296" r="0.495"/>
									</g>
								</g>
								<g>
									<g id="quina_2_">
										<path fill="#003399" d="M70.612,65.469L70.612,65.469c0,0.738,0.283,1.41,0.737,1.897
											c0.455,0.488,1.082,0.792,1.767,0.792c0.689,0,1.315-0.301,1.768-0.788c0.453-0.485,0.734-1.157,0.734-1.897v-3.589
											l-4.997-0.004L70.612,65.469"/>
										<circle fill="#FFFFFF" cx="71.758" cy="63.245" r="0.496"/>
										<circle fill="#FFFFFF" cx="74.531" cy="63.247" r="0.495"/>
										<circle fill="#FFFFFF" cx="73.142" cy="64.577" r="0.495"/>
										<circle fill="#FFFFFF" cx="71.758" cy="65.972" r="0.495"/>
										<circle fill="#FFFFFF" cx="74.528" cy="65.968" r="0.495"/>
									</g>
								</g>
								<g>
									<g id="quina_3_">
										<path fill="#003399" d="M84.46,65.469L84.46,65.469c0,0.738,0.283,1.41,0.737,1.897c0.456,0.488,1.083,0.792,1.768,0.792
											c0.689,0,1.314-0.301,1.768-0.788c0.453-0.485,0.734-1.157,0.734-1.897v-3.589l-4.998-0.004L84.46,65.469"/>
										<circle fill="#FFFFFF" cx="85.606" cy="63.245" r="0.496"/>
										<circle fill="#FFFFFF" cx="88.379" cy="63.247" r="0.495"/>
										<circle fill="#FFFFFF" cx="86.99" cy="64.577" r="0.495"/>
										<circle fill="#FFFFFF" cx="85.606" cy="65.972" r="0.495"/>
										<circle fill="#FFFFFF" cx="88.376" cy="65.968" r="0.495"/>
									</g>
								</g>
								<g>
									<g id="quina_4_">
										<path fill="#003399" d="M77.545,74.062v0.002c0,0.738,0.283,1.41,0.737,1.896c0.455,0.49,1.083,0.793,1.768,0.793
											c0.689,0,1.315-0.301,1.768-0.789c0.453-0.486,0.734-1.158,0.734-1.896v-3.59l-4.998-0.004L77.545,74.062"/>
										<circle fill="#FFFFFF" cx="78.692" cy="71.839" r="0.495"/>
										<circle fill="#FFFFFF" cx="81.464" cy="71.841" r="0.496"/>
										<circle fill="#FFFFFF" cx="80.075" cy="73.173" r="0.495"/>
										<circle fill="#FFFFFF" cx="78.692" cy="74.566" r="0.496"/>
										<circle fill="#FFFFFF" cx="81.461" cy="74.563" r="0.495"/>
									</g>
								</g>
							</g>
						</g>
					</g>
				</g>
			</g>
		</g>
	</g>
</g>
</svg>
