<?xml version="1.0" encoding="utf-8"?>
<!-- Generator: Adobe Illustrator 14.0.0, SVG Export Plug-In . SVG Version: 6.00 Build 43363)  -->
<!DOCTYPE svg PUBLIC "-//W3C//DTD SVG 1.1//EN" "http://www.w3.org/Graphics/SVG/1.1/DTD/svg11.dtd">
<svg version="1.1" id="Calque_1" xmlns="http://www.w3.org/2000/svg" xmlns:xlink="http://www.w3.org/1999/xlink" x="0px" y="0px"
	 width="200px" height="125px" viewBox="0 0 200 125" enable-background="new 0 0 200 125" xml:space="preserve">
<g>
	<rect y="0" fill="#EE1C25" width="200" height="125"/>
	<rect y="0" fill="#0B4EA2" width="200" height="84.889"/>
	<rect y="0" fill="#FFFFFF" width="200" height="40.444"/>
	<g>
		<path fill="#FFFFFF" d="M70.279,99c-11.951-5.757-29.046-17.183-29.046-39.785c0-22.603,1.081-32.882,1.081-32.882h27.966h27.967
			c0,0,1.081,10.279,1.081,32.882C99.326,81.817,82.231,93.243,70.279,99z"/>
		<path fill="#EE1C25" d="M70.279,96c-10.964-5.281-26.648-15.764-26.648-36.5s0.991-30.167,0.991-30.167h25.657h25.658
			c0,0,0.992,9.431,0.992,30.167C96.928,80.236,81.244,90.719,70.279,96L70.279,96z"/>
		<path fill="#FFFFFF" d="M72.624,54.063c2.969,0.048,8.761,0.164,13.919-1.562c0,0-0.136,1.846-0.136,3.996
			c0,2.15,0.136,3.996,0.136,3.996c-4.731-1.583-10.573-1.616-13.919-1.574v11.453h-4.689V58.92
			c-3.346-0.042-9.188-0.01-13.919,1.573c0,0,0.136-1.845,0.136-3.996s-0.136-3.996-0.136-3.996
			c5.158,1.726,10.95,1.609,13.919,1.562v-7.193c-2.706-0.024-6.605,0.105-11.014,1.581c0,0,0.136-1.846,0.136-3.996
			s-0.136-3.996-0.136-3.996c4.402,1.473,8.297,1.604,11.002,1.581c-0.139-4.555-1.466-10.296-1.466-10.296s2.731,0.213,3.822,0.213
			c1.093,0,3.823-0.213,3.823-0.213s-1.327,5.741-1.466,10.295c2.706,0.024,6.6-0.108,11.002-1.581c0,0-0.136,1.846-0.136,3.996
			c0,2.15,0.136,3.996,0.136,3.996c-4.408-1.476-8.308-1.604-11.014-1.581V54.063L72.624,54.063z"/>
		<path fill="#0B4EA2" d="M70.278,69.132c-5.521,0-8.479,7.66-8.479,7.66s-1.641-3.632-6.146-3.632
			c-3.048,0-5.294,2.711-6.722,5.222C54.476,87.206,63.323,92.65,70.278,96c6.955-3.35,15.809-8.793,21.354-17.618
			c-1.428-2.511-3.674-5.222-6.722-5.222c-4.505,0-6.153,3.632-6.153,3.632S75.8,69.132,70.278,69.132L70.278,69.132z"/>
	</g>
</g>
</svg>
