<?xml version="1.0" encoding="utf-8"?>
<!-- Generator: Adobe Illustrator 14.0.0, SVG Export Plug-In . SVG Version: 6.00 Build 43363)  -->
<!DOCTYPE svg PUBLIC "-//W3C//DTD SVG 1.1//EN" "http://www.w3.org/Graphics/SVG/1.1/DTD/svg11.dtd">
<svg version="1.1" id="Calque_1" xmlns="http://www.w3.org/2000/svg" xmlns:xlink="http://www.w3.org/1999/xlink" x="0px" y="0px"
	 width="200px" height="125px" viewBox="0 0 200 125" enable-background="new 0 0 200 125" xml:space="preserve">
<g>
	<rect fill="#ED1C24" width="200" height="125"/>
	<rect fill="#005DA4" width="200" height="79.167"/>
	<rect fill="#FFFFFF" width="200" height="45.833"/>
	<g transform="translate(2.2238 1) scale(.12937)">
		<path fill="#005DA4" d="M543.468,366.681l9.406-138.898c-73.38-34.773-158.505-34.773-231.893,0l9.406,138.898
			c4.227,62.408,46.658,115.69,106.541,133.776C496.81,482.371,539.241,429.089,543.468,366.681"/>
		<path fill="#FFFFFF" d="M349.967,385.503c10.077,45.367,43.012,82.238,86.96,97.366c43.948-15.127,76.883-51.999,86.967-97.366
			l-43.487-57.981l-17.392,23.197l-26.088-52.18l-26.08,52.18l-17.4-23.197L349.967,385.503"/>
		<g id="wave" transform="scale(5) translate(0 5.1962)">
			<path fill="#005DA4" d="M70.769,74.803c1.602,2.773,5.147,3.722,7.92,2.122l0,0c1.794-1.036,4.004-1.036,5.797,0
				c1.794,1.035,4.005,1.035,5.797,0c1.795-1.036,4.004-1.036,5.797,0c2.773,1.6,6.32,0.651,7.92-2.122l0,0v1.674
				c-1.6,2.773-5.147,3.722-7.92,2.121l0,0c-1.794-1.035-4.002-1.035-5.797,0c-1.792,1.036-4.004,1.036-5.797,0
				c-1.794-1.035-4.004-1.035-5.797,0c-2.773,1.601-6.318,0.651-7.918-2.121c-0.002,0-0.002,0-0.002,0V74.803z"/>
		</g>
		<g transform="translate(0 17.321)">
			<g id="wave_1_" transform="scale(5) translate(0 5.1962)">
				<path fill="#005DA4" d="M70.769,78.15c1.602,2.773,5.147,3.722,7.92,2.122l0,0c1.794-1.036,4.004-1.036,5.797,0
					c1.794,1.035,4.005,1.035,5.797,0c1.795-1.036,4.004-1.036,5.797,0c2.773,1.6,6.32,0.651,7.92-2.122l0,0v1.674
					c-1.6,2.773-5.147,3.722-7.92,2.121l0,0c-1.794-1.035-4.002-1.035-5.797,0c-1.792,1.036-4.004,1.036-5.797,0
					c-1.794-1.035-4.004-1.035-5.797,0c-2.773,1.601-6.318,0.651-7.918-2.121c-0.002,0-0.002,0-0.002,0V78.15z"/>
			</g>
		</g>
		<g id="s" transform="translate(0,-120) scale(2.25)">
			<path fill="#FFDD00" d="M194.19,168.304l0.966,3.157l3.221-0.741l-2.255,2.417l2.255,2.416l-3.221-0.743l-0.966,3.157
				l-0.966-3.157l-3.214,0.743l2.251-2.416l-2.251-2.417l3.214,0.741L194.19,168.304z"/>
		</g>
		<g transform="translate(-33.75,-45)">
			<g id="s_1_" transform="translate(0,-120) scale(2.25)">
				<path fill="#FFDD00" d="M179.696,148.979l0.966,3.159l3.217-0.743l-2.251,2.416l2.251,2.416l-3.217-0.743l-0.966,3.159
					l-0.966-3.159l-3.217,0.743l2.251-2.416l-2.251-2.416l3.217,0.743L179.696,148.979z"/>
			</g>
		</g>
		<g transform="translate(33.75,-45)">
			<g id="s_2_" transform="translate(0,-120) scale(2.25)">
				<path fill="#FFDD00" d="M208.683,148.979l0.966,3.159l3.221-0.743l-2.251,2.416l2.251,2.416l-3.221-0.743l-0.966,3.159
					l-0.963-3.159l-3.221,0.743l2.251-2.416l-2.251-2.416l3.221,0.743L208.683,148.979z"/>
			</g>
		</g>
		<path fill="#ED1C24" d="M329.11,224.095l9.632,142.023c3.933,58.007,42.831,107.76,98.185,125.56
			c55.354-17.8,94.259-67.552,98.185-125.56l9.632-142.023c2.687,1.272,5.397,2.502,8.13,3.688l-9.406,138.898
			c-4.227,62.408-46.658,115.69-106.541,133.776c-59.883-18.086-102.314-71.368-106.541-133.776l-9.406-138.898
			C323.713,226.598,326.423,225.367,329.11,224.095"/>
	</g>
</g>
</svg>
