<?xml version="1.0" encoding="utf-8"?>
<!-- Generator: Adobe Illustrator 14.0.0, SVG Export Plug-In . SVG Version: 6.00 Build 43363)  -->
<!DOCTYPE svg PUBLIC "-//W3C//DTD SVG 1.1//EN" "http://www.w3.org/Graphics/SVG/1.1/DTD/svg11.dtd">
<svg version="1.1" id="Calque_1" xmlns="http://www.w3.org/2000/svg" xmlns:xlink="http://www.w3.org/1999/xlink" x="0px" y="0px"
	 width="200px" height="125px" viewBox="0 0 200 125" enable-background="new 0 0 200 125" xml:space="preserve">
<g>
	<rect y="-0.417" fill="#E30A17" width="200" height="125"/>
	<g>
		<path fill="#FFFFFF" d="M79.167,88.75C64.439,88.75,52.5,76.811,52.5,62.083s11.939-26.667,26.667-26.667
			c7.868,0,14.939,3.41,19.82,8.83C93.075,34.935,82.68,28.75,70.833,28.75c-18.41,0-33.333,14.924-33.333,33.333
			s14.924,33.333,33.333,33.333c11.846,0,22.242-6.185,28.153-15.496C94.106,85.34,87.035,88.75,79.167,88.75z"/>
		<polygon fill="#FFFFFF" points="120.255,62.083 127.373,52.287 115.855,56.029 108.738,46.232 108.738,58.341 97.222,62.083 
			108.738,65.824 108.738,77.934 115.855,68.138 127.373,71.88 		"/>
	</g>
</g>
</svg>
