<?xml version="1.0" encoding="utf-8"?>
<!-- Generator: Adobe Illustrator 14.0.0, SVG Export Plug-In . SVG Version: 6.00 Build 43363)  -->
<!DOCTYPE svg PUBLIC "-//W3C//DTD SVG 1.1//EN" "http://www.w3.org/Graphics/SVG/1.1/DTD/svg11.dtd">
<svg version="1.1" id="Calque_1" xmlns="http://www.w3.org/2000/svg" xmlns:xlink="http://www.w3.org/1999/xlink" x="0px" y="0px"
	 width="200px" height="125px" viewBox="0 0 200 125" enable-background="new 0 0 200 125" xml:space="preserve">
<g>
	<rect fill="#FFFFFF" width="200" height="125"/>
	<g>
		<rect id="stripe" fill="#BB133E" width="200" height="9.616"/>
	</g>
	<g>
		<rect id="stripe_1_" y="19.231" fill="#BB133E" width="200" height="9.615"/>
	</g>
	<g>
		<rect id="stripe_2_" y="38.462" fill="#BB133E" width="200" height="9.615"/>
	</g>
	<g>
		<rect id="stripe_3_" y="57.692" fill="#BB133E" width="200" height="9.615"/>
	</g>
	<g>
		<rect id="stripe_4_" y="76.923" fill="#BB133E" width="200" height="9.616"/>
	</g>
	<g>
		<rect id="stripe_5_" y="96.153" fill="#BB133E" width="200" height="9.616"/>
	</g>
	<g>
		<rect id="stripe_6_" y="115.385" fill="#BB133E" width="200" height="9.615"/>
	</g>
	<rect fill="#002664" width="95" height="67.308"/>
	<polygon fill="#FFFFFF" points="9.524,7.108 11.786,5.464 8.989,5.464 8.125,2.804 7.261,5.464 4.463,5.464 6.726,7.108 
		5.862,9.769 8.125,8.125 10.388,9.769 	"/>
	<polygon fill="#FFFFFF" points="25.274,7.108 27.536,5.464 24.739,5.464 23.875,2.804 23.011,5.464 20.213,5.464 22.476,7.108 
		21.612,9.769 23.875,8.125 26.138,9.769 	"/>
	<polygon fill="#FFFFFF" points="41.024,7.108 43.286,5.464 40.489,5.464 39.625,2.804 38.761,5.464 35.964,5.464 38.226,7.108 
		37.362,9.769 39.625,8.125 41.888,9.769 	"/>
	<polygon fill="#FFFFFF" points="56.774,7.108 59.037,5.464 56.239,5.464 55.375,2.804 54.511,5.464 51.714,5.464 53.976,7.108 
		53.112,9.769 55.375,8.125 57.638,9.769 	"/>
	<polygon fill="#FFFFFF" points="72.524,7.108 74.787,5.464 71.989,5.464 71.125,2.804 70.261,5.464 67.464,5.464 69.726,7.108 
		68.862,9.769 71.125,8.125 73.388,9.769 	"/>
	<polygon fill="#FFFFFF" points="88.274,7.108 90.537,5.464 87.739,5.464 86.875,2.804 86.011,5.464 83.214,5.464 85.476,7.108 
		84.612,9.769 86.875,8.125 89.138,9.769 	"/>
	<g>
		<polygon fill="#FFFFFF" points="17.398,13.858 19.662,12.214 16.864,12.214 16,9.554 15.135,12.214 12.338,12.214 14.602,13.858 
			13.737,16.519 16,14.874 18.263,16.519 		"/>
		<polygon fill="#FFFFFF" points="33.148,13.858 35.412,12.214 32.615,12.214 31.75,9.554 30.885,12.214 28.088,12.214 
			30.352,13.858 29.487,16.519 31.75,14.874 34.013,16.519 		"/>
		<polygon fill="#FFFFFF" points="48.898,13.858 51.162,12.214 48.365,12.214 47.5,9.554 46.635,12.214 43.838,12.214 
			46.102,13.858 45.237,16.519 47.5,14.874 49.763,16.519 		"/>
		<polygon fill="#FFFFFF" points="64.648,13.858 66.912,12.214 64.115,12.214 63.25,9.554 62.386,12.214 59.588,12.214 
			61.852,13.858 60.987,16.519 63.25,14.874 65.513,16.519 		"/>
		<polygon fill="#FFFFFF" points="80.398,13.858 82.662,12.214 79.865,12.214 79,9.554 78.136,12.214 75.338,12.214 77.602,13.858 
			76.737,16.519 79,14.874 81.263,16.519 		"/>
		<path fill="#FFFFFF" d="M9.524,20.608l2.262-1.644H8.989l-0.864-2.66l-0.864,2.66H4.463l2.263,1.644l-0.864,2.661l2.263-1.644
			l2.263,1.644L9.524,20.608z M8.125,20.153L8.125,20.153L8.125,20.153L8.125,20.153L8.125,20.153z"/>
		<path fill="#FFFFFF" d="M25.274,20.608l2.262-1.644h-2.797l-0.864-2.66l-0.865,2.66h-2.797l2.263,1.644l-0.864,2.661l2.263-1.644
			l2.262,1.644L25.274,20.608z M23.875,20.153L23.875,20.153L23.875,20.153L23.875,20.153L23.875,20.153z"/>
		<path fill="#FFFFFF" d="M41.024,20.608l2.262-1.644h-2.797l-0.865-2.66l-0.864,2.66h-2.797l2.262,1.644l-0.864,2.661l2.262-1.644
			l2.263,1.644L41.024,20.608z M39.625,20.153L39.625,20.153L39.625,20.153L39.625,20.153L39.625,20.153z"/>
		<g>
			<path fill="#FFFFFF" d="M56.239,18.964l-0.864-2.66l-0.865,2.66h-2.797l2.262,1.644l-0.864,2.661l2.263-1.644l2.262,1.644
				l-0.864-2.661l2.263-1.644H56.239z M55.375,20.153L55.375,20.153L55.375,20.153L55.375,20.153L55.375,20.153z"/>
			<path fill="#FFFFFF" d="M71.989,18.964l-0.864-2.66l-0.864,2.66h-2.797l2.262,1.644l-0.864,2.661l2.263-1.644l2.263,1.644
				l-0.864-2.661l2.263-1.644H71.989z M71.125,20.153L71.125,20.153L71.125,20.153L71.125,20.153L71.125,20.153z"/>
			<path fill="#FFFFFF" d="M88.273,20.608l2.263-1.644h-2.797l-0.864-2.66l-0.864,2.66h-2.797l2.262,1.644l-0.864,2.661l2.263-1.644
				l2.263,1.644L88.273,20.608z M86.875,20.153L86.875,20.153L86.875,20.153L86.875,20.153L86.875,20.153z"/>
		</g>
	</g>
	<g>
		<polygon fill="#FFFFFF" points="17.398,27.573 19.662,25.929 16.864,25.929 16,23.269 15.135,25.929 12.338,25.929 14.602,27.573 
			13.737,30.233 16,28.589 18.263,30.233 		"/>
		<polygon fill="#FFFFFF" points="33.148,27.573 35.412,25.929 32.615,25.929 31.75,23.269 30.885,25.929 28.088,25.929 
			30.352,27.573 29.487,30.233 31.75,28.589 34.013,30.233 		"/>
		<polygon fill="#FFFFFF" points="48.898,27.573 51.162,25.929 48.365,25.929 47.5,23.269 46.635,25.929 43.838,25.929 
			46.102,27.573 45.237,30.233 47.5,28.589 49.763,30.233 		"/>
		<polygon fill="#FFFFFF" points="64.648,27.573 66.912,25.929 64.115,25.929 63.25,23.269 62.386,25.929 59.588,25.929 
			61.852,27.573 60.987,30.233 63.25,28.589 65.513,30.233 		"/>
		<polygon fill="#FFFFFF" points="80.398,27.573 82.662,25.929 79.865,25.929 79,23.269 78.136,25.929 75.338,25.929 77.602,27.573 
			76.737,30.233 79,28.589 81.263,30.233 		"/>
		<path fill="#FFFFFF" d="M9.524,34.323l2.262-1.644H8.989l-0.864-2.661l-0.864,2.661H4.463l2.263,1.644l-0.864,2.661l2.263-1.645
			l2.263,1.645L9.524,34.323z M8.125,33.868L8.125,33.868L8.125,33.868L8.125,33.868L8.125,33.868z"/>
		<path fill="#FFFFFF" d="M25.274,34.323l2.262-1.644h-2.797l-0.864-2.661l-0.865,2.661h-2.797l2.263,1.644l-0.864,2.661
			l2.263-1.645l2.262,1.645L25.274,34.323z M23.875,33.868L23.875,33.868L23.875,33.868L23.875,33.868L23.875,33.868z"/>
		<path fill="#FFFFFF" d="M41.024,34.323l2.262-1.644h-2.797l-0.865-2.661l-0.864,2.661h-2.797l2.262,1.644l-0.864,2.661
			l2.262-1.645l2.263,1.645L41.024,34.323z M39.625,33.868L39.625,33.868L39.625,33.868L39.625,33.868L39.625,33.868z"/>
		<g>
			<path fill="#FFFFFF" d="M56.239,32.679l-0.864-2.661l-0.865,2.661h-2.797l2.262,1.644l-0.864,2.661l2.263-1.645l2.262,1.645
				l-0.864-2.661l2.263-1.644H56.239z M55.375,33.868L55.375,33.868L55.375,33.868L55.375,33.868L55.375,33.868z"/>
			<path fill="#FFFFFF" d="M71.989,32.679l-0.864-2.661l-0.864,2.661h-2.797l2.262,1.644l-0.864,2.661l2.263-1.645l2.263,1.645
				l-0.864-2.661l2.263-1.644H71.989z M71.125,33.868L71.125,33.868L71.125,33.868L71.125,33.868L71.125,33.868z"/>
			<path fill="#FFFFFF" d="M88.273,34.323l2.263-1.644h-2.797l-0.864-2.661l-0.864,2.661h-2.797l2.262,1.644l-0.864,2.661
				l2.263-1.645l2.263,1.645L88.273,34.323z M86.875,33.868L86.875,33.868L86.875,33.868L86.875,33.868L86.875,33.868z"/>
		</g>
	</g>
	<g>
		<polygon fill="#FFFFFF" points="17.398,41.287 19.662,39.644 16.864,39.644 16,36.983 15.135,39.644 12.338,39.644 14.602,41.287 
			13.737,43.948 16,42.304 18.263,43.948 		"/>
		<polygon fill="#FFFFFF" points="33.148,41.287 35.412,39.644 32.615,39.644 31.75,36.983 30.885,39.644 28.088,39.644 
			30.352,41.287 29.487,43.948 31.75,42.304 34.013,43.948 		"/>
		<polygon fill="#FFFFFF" points="48.898,41.287 51.162,39.644 48.365,39.644 47.5,36.983 46.635,39.644 43.838,39.644 
			46.102,41.287 45.237,43.948 47.5,42.304 49.763,43.948 		"/>
		<polygon fill="#FFFFFF" points="64.648,41.287 66.912,39.644 64.115,39.644 63.25,36.983 62.386,39.644 59.588,39.644 
			61.852,41.287 60.987,43.948 63.25,42.304 65.513,43.948 		"/>
		<polygon fill="#FFFFFF" points="80.398,41.287 82.662,39.644 79.865,39.644 79,36.983 78.136,39.644 75.338,39.644 77.602,41.287 
			76.737,43.948 79,42.304 81.263,43.948 		"/>
		<path fill="#FFFFFF" d="M9.524,48.037l2.262-1.644H8.989l-0.864-2.661l-0.864,2.661H4.463l2.263,1.644l-0.864,2.661l2.263-1.645
			l2.263,1.645L9.524,48.037z M8.125,47.583L8.125,47.583L8.125,47.583L8.125,47.583L8.125,47.583z"/>
		<path fill="#FFFFFF" d="M25.274,48.037l2.262-1.644h-2.797l-0.864-2.661l-0.865,2.661h-2.797l2.263,1.644l-0.864,2.661
			l2.263-1.645l2.262,1.645L25.274,48.037z M23.875,47.583L23.875,47.583L23.875,47.583L23.875,47.583L23.875,47.583z"/>
		<path fill="#FFFFFF" d="M41.024,48.037l2.262-1.644h-2.797l-0.865-2.661l-0.864,2.661h-2.797l2.262,1.644l-0.864,2.661
			l2.262-1.645l2.263,1.645L41.024,48.037z M39.625,47.583L39.625,47.583L39.625,47.583L39.625,47.583L39.625,47.583z"/>
		<g>
			<path fill="#FFFFFF" d="M56.239,46.394l-0.864-2.661l-0.865,2.661h-2.797l2.262,1.644l-0.864,2.661l2.263-1.645l2.262,1.645
				l-0.864-2.661l2.263-1.644H56.239z M55.375,47.583L55.375,47.583L55.375,47.583L55.375,47.583L55.375,47.583z"/>
			<path fill="#FFFFFF" d="M71.989,46.394l-0.864-2.661l-0.864,2.661h-2.797l2.262,1.644l-0.864,2.661l2.263-1.645l2.263,1.645
				l-0.864-2.661l2.263-1.644H71.989z M71.125,47.583L71.125,47.583L71.125,47.583L71.125,47.583L71.125,47.583z"/>
			<path fill="#FFFFFF" d="M88.273,48.037l2.263-1.644h-2.797l-0.864-2.661l-0.864,2.661h-2.797l2.262,1.644l-0.864,2.661
				l2.263-1.645l2.263,1.645L88.273,48.037z M86.875,47.583L86.875,47.583L86.875,47.583L86.875,47.583L86.875,47.583z"/>
		</g>
	</g>
	<g>
		<polygon fill="#FFFFFF" points="17.398,55.002 19.662,53.358 16.864,53.358 16,50.697 15.135,53.358 12.338,53.358 14.602,55.002 
			13.737,57.663 16,56.018 18.263,57.663 		"/>
		<polygon fill="#FFFFFF" points="33.148,55.002 35.412,53.358 32.615,53.358 31.75,50.697 30.885,53.358 28.088,53.358 
			30.352,55.002 29.487,57.663 31.75,56.018 34.013,57.663 		"/>
		<polygon fill="#FFFFFF" points="48.898,55.002 51.162,53.358 48.365,53.358 47.5,50.697 46.635,53.358 43.838,53.358 
			46.102,55.002 45.237,57.663 47.5,56.018 49.763,57.663 		"/>
		<polygon fill="#FFFFFF" points="64.648,55.002 66.912,53.358 64.115,53.358 63.25,50.697 62.386,53.358 59.588,53.358 
			61.852,55.002 60.987,57.663 63.25,56.018 65.513,57.663 		"/>
		<polygon fill="#FFFFFF" points="80.398,55.002 82.662,53.358 79.865,53.358 79,50.697 78.136,53.358 75.338,53.358 77.602,55.002 
			76.737,57.663 79,56.018 81.263,57.663 		"/>
		<path fill="#FFFFFF" d="M9.524,61.752l2.262-1.645H8.989l-0.864-2.66l-0.864,2.66H4.463l2.263,1.645l-0.864,2.66l2.263-1.644
			l2.263,1.644L9.524,61.752z M8.125,61.297L8.125,61.297L8.125,61.297L8.125,61.297L8.125,61.297z"/>
		<path fill="#FFFFFF" d="M25.274,61.752l2.262-1.645h-2.797l-0.864-2.66l-0.865,2.66h-2.797l2.263,1.645l-0.864,2.66l2.263-1.644
			l2.262,1.644L25.274,61.752z M23.875,61.297L23.875,61.297L23.875,61.297L23.875,61.297L23.875,61.297z"/>
		<path fill="#FFFFFF" d="M41.024,61.752l2.262-1.645h-2.797l-0.865-2.66l-0.864,2.66h-2.797l2.262,1.645l-0.864,2.66l2.262-1.644
			l2.263,1.644L41.024,61.752z M39.625,61.297L39.625,61.297L39.625,61.297L39.625,61.297L39.625,61.297z"/>
		<g>
			<path fill="#FFFFFF" d="M56.239,60.107l-0.864-2.66l-0.865,2.66h-2.797l2.262,1.645l-0.864,2.66l2.263-1.644l2.262,1.644
				l-0.864-2.66l2.263-1.645H56.239z M55.375,61.297L55.375,61.297L55.375,61.297L55.375,61.297L55.375,61.297z"/>
			<path fill="#FFFFFF" d="M71.989,60.107l-0.864-2.66l-0.864,2.66h-2.797l2.262,1.645l-0.864,2.66l2.263-1.644l2.263,1.644
				l-0.864-2.66l2.263-1.645H71.989z M71.125,61.297L71.125,61.297L71.125,61.297L71.125,61.297L71.125,61.297z"/>
			<path fill="#FFFFFF" d="M88.273,61.752l2.263-1.645h-2.797l-0.864-2.66l-0.864,2.66h-2.797l2.262,1.645l-0.864,2.66l2.263-1.644
				l2.263,1.644L88.273,61.752z M86.875,61.297L86.875,61.297L86.875,61.297L86.875,61.297L86.875,61.297z"/>
		</g>
	</g>
</g>
</svg>
