<?xml version="1.0" standalone="no"?>
<!DOCTYPE svg PUBLIC "-//W3C//DTD SVG 1.1//EN" "http://www.w3.org/Graphics/SVG/1.1/DTD/svg11.dtd" >
<svg xmlns="http://www.w3.org/2000/svg">
<metadata>Generated by IcoMoon</metadata>
<defs>
<font id="seolan" horiz-adv-x="1024">
<font-face units-per-em="1024" ascent="960" descent="-64" />
<missing-glyph horiz-adv-x="1024" />
<glyph unicode="&#x20;" horiz-adv-x="512" d="" />
<glyph unicode="&#xe100;" glyph-name="xsalto" d="M220.096 349.664l-48.768 68.192 44.032 63.968c3.136 5.248 3.68 11.008 1.568 16.256-2.080 5.248-6.272 9.44-12.064 11.008l-40.384 10.496c-1.568 0.544-3.136 1.056-4.704 1.056-5.76 0-11.008-3.168-14.656-7.872l-36.16-55.104-38.272 55.072c-3.168 4.736-8.416 7.904-14.176 7.904-2.080 0-4.192-0.544-6.304-1.056l-38.272-14.144c-5.248-1.568-9.44-5.76-11.008-11.008s-1.056-11.008 2.112-15.744l48.768-68.16-44.032-63.968c-3.168-4.704-3.68-11.040-1.568-16.256 2.080-5.248 6.304-9.44 12.064-11.040l40.384-10.464c1.568-0.544 3.136-0.544 4.704-0.544 5.76 0 11.008 2.624 14.688 7.872l36.192 54.528 38.272-55.072c3.168-4.704 8.384-7.328 14.176-7.328 2.080 0 4.192 0 6.272 1.024l38.24 13.664c5.248 1.568 9.44 5.76 11.008 11.008s1.056 10.976-2.112 15.712zM97.408 376.928l-34.080-51.36-40.928 11.008 50.88 74.464-55.584 78.112 38.816 13.632 40.896-59.264 20.96-29.888 1.056-3.168-22.016-33.536zM264.16 370.656c13.12-13.664 25.696-20.992 45.088-20.992 15.744 0 27.264 10.496 27.264 20.48 0 35.136-97.536 12.064-97.536 87.552 0 40.384 35.648 60.832 72.352 60.832 27.808 0 54.528-11.52 72.896-32.512l-32-28.32c-9.984 10.496-22.016 19.392-37.248 19.392-14.688 0-23.584-5.248-23.584-20.448 0-32 97.536-9.952 97.536-82.848 0-45.088-40.896-64.992-81.28-64.992-27.264 0-55.584 10.464-73.952 31.424l30.464 30.432zM439.808 513.28c18.368 3.136 37.76 5.248 57.152 5.248 35.136 0 73.92-15.744 73.92-55.584v-152.608h-45.056v16.768c-13.632-11.52-30.944-18.336-49.28-18.336-41.952 0-74.464 24.096-74.464 69.216 0 36.16 29.888 67.616 66.592 67.616 21.504 0 35.648-3.648 54.528-13.632 0.544 4.704 1.056 8.384 1.056 13.632 0 26.752-19.392 31.456-41.952 31.456-19.392 0-38.272-4.704-56.096-11.52l13.6 47.744zM487.52 349.664c17.312 0 36.192 10.496 36.192 28.352 0 17.824-18.88 28.32-36.192 28.32s-36.16-10.496-36.16-28.32c0-17.856 18.88-28.352 36.16-28.352zM602.88 310.336v267.968l49.824 9.44v-277.376h-49.824zM699.36 546.304l49.312 22.56v-56.64h44.576v-42.496h-44.576v-84.448c0-19.36 8.384-31.424 36.672-31.424 5.76 0 12.064 0 17.312 0.512l-12.064-44.032c-4.736-1.568-13.12-1.568-19.424-1.568-41.376 0-71.808 22.016-71.808 66.048v94.944h-30.432l11.072 42.496h19.36v34.048zM914.368 518.528c58.752 0 109.568-45.6 109.568-104.864 0-59.776-50.816-104.864-109.568-104.864-58.176 0-109.632 45.088-109.632 104.864 0 59.232 51.456 104.864 109.632 104.864zM914.368 353.888c33.568 0 62.944 25.696 62.944 59.776 0 33.536-29.376 59.776-62.944 59.776-33.056 0-62.944-26.208-62.944-59.776 0-34.112 29.888-59.776 62.944-59.776z" />
<glyph unicode="&#xe201;" glyph-name="menu" d="M1024 736c0-44.192-35.808-80-80-80h-864c-44.192 0-80 35.808-80 80v0c0 44.192 35.808 80 80 80h864c44.192 0 80-35.808 80-80v0zM1024 448c0-44.192-35.808-80-80-80h-864c-44.192 0-80 35.808-80 80v0c0 44.192 35.808 80 80 80h864c44.192 0 80-35.808 80-80v0zM1024 160c0-44.192-35.808-80-80-80h-864c-44.192 0-80 35.808-80 80v0c0 44.192 35.808 80 80 80h864c44.192 0 80-35.808 80-80v0z" />
<glyph unicode="&#xe202;" glyph-name="world" d="M511.488 960c-282.624 0-511.488-229.376-511.488-512 0-282.592 228.864-512 511.488-512 283.104 0 512.512 229.408 512.512 512 0 282.624-229.408 512-512.512 512zM866.304 652.8h-151.008c-16.416 64-40 125.44-70.72 182.272 94.24-32.256 172.576-97.792 221.728-182.272zM512 855.552c42.496-61.44 75.808-129.504 97.824-202.752h-195.616c22.016 73.216 55.296 141.28 97.792 202.752zM115.712 345.6c-8.192 32.8-13.312 67.072-13.312 102.4s5.12 69.632 13.312 102.4h173.088c-4.128-33.792-7.2-67.584-7.2-102.4s3.072-68.608 7.2-102.4h-173.088zM157.696 243.2h151.008c16.416-64 39.968-125.44 70.688-182.272-94.208 32.256-172.544 97.248-221.696 182.272zM308.704 652.8h-151.008c49.152 84.992 127.456 150.016 221.696 182.272-30.72-56.832-54.272-118.272-70.688-182.272zM512 40.448c-42.496 61.472-75.776 129.568-97.792 202.752h195.616c-22.016-73.216-55.328-141.28-97.824-202.752zM631.808 345.6h-239.616c-4.608 33.792-8.192 67.584-8.192 102.4s3.584 69.12 8.192 102.4h239.616c4.608-33.28 8.192-67.584 8.192-102.4s-3.584-68.608-8.192-102.4zM644.608 60.896c30.72 56.832 54.304 118.272 70.72 182.272h151.008c-49.184-84.48-127.52-149.984-221.728-182.272zM735.2 345.6c4.128 33.824 7.232 67.584 7.232 102.4s-3.104 68.608-7.232 102.4h173.12c8.192-32.768 13.28-67.072 13.28-102.4s-5.088-69.6-13.28-102.4h-173.12z" />
<glyph unicode="&#xe203;" glyph-name="rss" d="M0.16 415.808c127.328 0 247.072-49.76 337.056-140.256 90.144-90.496 139.808-211.040 139.808-339.328h196.224c0 372.672-301.952 675.84-673.088 675.84v-196.256zM0.48 763.712c453.888 0 823.2-371.296 823.2-827.712h196.256c0 564.672-457.312 1024-1019.456 1024v-196.288zM271.904 73.088c0-75.072-60.896-135.936-135.968-135.936s-135.936 60.864-135.936 135.936c0 75.136 60.864 135.968 135.936 135.968s135.968-60.832 135.968-135.968z" />
<glyph unicode="&#xe204;" glyph-name="email" d="M921.632 857.6h-819.2c-56.32 0-101.92-46.080-101.92-102.4l-0.512-614.4c0-56.32 46.080-102.4 102.4-102.4h819.2c56.32 0 102.368 46.080 102.368 102.4v614.4c0.032 56.32-46.016 102.4-102.336 102.4zM921.632 652.8l-409.6-256-409.6 256v102.4l409.6-256 409.6 256v-102.4z" />
<glyph unicode="&#xe205;" glyph-name="printer" d="M870.4 652.8h-716.8c-84.992 0-153.6-68.608-153.6-153.6v-307.2h204.768v-204.768h614.4v204.768h204.832v307.232c0 84.992-68.608 153.568-153.6 153.568zM716.768 89.6h-409.568v256h409.6v-256zM870.4 448c-28.16 0-51.232 23.072-51.232 51.232 0 28.128 23.072 51.2 51.232 51.2 28.128 0 51.2-23.072 51.2-51.2 0-28.16-23.072-51.232-51.2-51.232zM819.2 908.8h-614.4v-204.8h614.4v204.8z" />
<glyph unicode="&#xe301;" glyph-name="target" d="M448 960h128v-288h-128v288zM448 224h128v-288h-128v288zM0 512h288v-128h-288v128zM736 512h288v-128h-288v128zM512 864c-229.76 0-416-186.24-416-416s186.24-416 416-416 416 186.24 416 416-186.24 416-416 416zM512 128c-176.736 0-320 143.296-320 320s143.264 320 320 320c176.736 0 320-143.296 320-320s-143.264-320-320-320zM624 448c0-61.856-50.144-112-112-112s-112 50.144-112 112c0 61.856 50.144 112 112 112s112-50.144 112-112z" />
<glyph unicode="&#xe302;" glyph-name="back" d="M512 959.968c-282.784 0-512-229.216-512-512 0-282.752 229.216-511.968 512-511.968s512 229.216 512 511.968c0 282.784-229.216 512-512 512zM512 16.832c-238.080 0-431.168 192.992-431.168 431.136s193.088 431.168 431.168 431.168c238.112 0 431.168-192.992 431.168-431.168 0-238.112-193.056-431.136-431.168-431.136zM663.68 220.448l-417.184 227.52 417.184 227.584z" />
<glyph unicode="&#xe303;" glyph-name="refresh" d="M900.032 117.824c3.328 4.448 4.992 9.376 4.768 14.816-0.224 5.504-2.272 9.888-6.144 13.376l-89.92 90.496c-4.832 4-10.336 5.952-16.448 5.952-7.040-0.864-12.032-3.488-15.104-7.872-31.936-41.44-71.136-73.568-117.472-96.448-46.336-22.752-95.584-34.112-147.584-34.112-45.472 0-88.96 8.864-130.272 26.688-41.376 17.632-77.12 41.632-107.264 71.808-30.304 30.24-54.176 65.888-71.808 107.264-17.76 41.344-26.688 84.736-26.688 130.24 0 45.472 8.864 88.896 26.56 130.24 17.824 41.376 41.696 77.152 71.872 107.36 30.176 30.144 65.984 54.048 107.328 71.808 41.312 17.824 84.736 26.56 130.208 26.624 87.936-0.128 164.32-30.048 229.056-89.984l-140.448-139.936h413.92v413.856l-155.36-155.168c-46.784 44.16-100.224 78.368-160.416 102.72-60.16 24.288-122.336 36.448-186.72 36.448-68.288 0-133.408-13.376-195.52-40.032-62.144-26.688-115.776-62.56-160.704-107.712-45.056-44.992-80.992-98.592-107.744-160.768-26.56-62.048-40-127.328-40-195.488 0-68.224 13.376-133.44 40.128-195.616 26.624-62.016 62.56-115.744 107.552-160.736 45.056-44.992 98.624-80.864 160.8-107.488 62.048-26.752 127.2-40 195.456-40.128 75.328 0 146.816 15.872 214.624 47.552 67.776 31.84 125.6 76.416 173.344 134.24z" />
<glyph unicode="&#xe304;" glyph-name="site-map" d="M0 224h288v-288h-288v288zM368 224h288v-288h-288v288zM352 960h320v-320h-320v320zM736 224h288v-288h-288v288zM480 944h64v-992h-64v992zM864 480h64v-544h-64v544zM96 480h64v-544h-64v544zM128 480h768v-64h-768v64z" />
<glyph unicode="&#xe306;" glyph-name="search" d="M946.56 98.368l-231.008 275.296c45.696 61.216 73.056 136.896 73.056 219.168 0.032 202.784-164.384 367.168-367.168 367.168s-367.2-164.384-367.2-367.2c0-202.816 164.384-367.2 367.2-367.2 48.704 0 95.136 9.696 137.664 26.912l235.968-281.216c35.136-41.824 97.472-47.264 139.328-12.224 41.792 35.168 47.232 97.504 12.16 139.296zM421.44 352.736c-132.608 0-240.096 107.456-240.096 240.064s107.488 240.096 240.096 240.096 240.096-107.488 240.096-240.096-107.52-240.064-240.096-240.064z" />
<glyph unicode="&#xe307;" glyph-name="delete" d="M170.656 49.76c0-62.56 51.2-113.76 113.76-113.76h455.136c62.56 0 113.76 51.2 113.76 113.76v682.656h-682.656v-682.656zM910.176 903.104h-199.072l-56.928 56.896h-284.416l-56.896-56.896h-199.104v-113.792h796.416v113.792z" />
<glyph unicode="&#xe308;" glyph-name="lock" d="M804.576 618.656h-48.736v97.536c-0.032 134.592-109.28 243.808-243.84 243.808-134.592 0-243.84-109.216-243.84-243.808v-97.536h-48.736c-53.632 0-97.536-43.872-97.536-97.536v-487.584c0-53.632 43.904-97.536 97.536-97.536h585.152c53.664 0 97.536 43.904 97.536 97.536v487.584c-0.032 53.664-43.904 97.536-97.536 97.536zM512 179.808c-53.632 0-97.504 43.904-97.504 97.504 0 53.632 43.904 97.536 97.504 97.536 53.664 0 97.504-43.904 97.504-97.536 0-53.6-43.84-97.504-97.504-97.504zM663.2 618.656h-302.336v97.536c0 83.36 67.776 151.168 151.136 151.168 83.392 0 151.2-67.776 151.2-151.168v-97.536z" />
<glyph unicode="&#xe309;" glyph-name="property" d="M892.576 397.824c2.048 16.384 3.552 32.768 3.552 50.176s-1.504 33.824-3.552 50.176l108 84.48c9.76 7.648 12.256 21.504 6.176 32.736l-102.432 177.216c-6.112 11.264-20 15.328-31.264 11.264l-127.424-51.2c-26.624 20.448-55.328 37.344-86.56 50.144l-19.424 135.68c-1.6 12.32-12.32 21.504-25.088 21.504h-204.832c-12.8 0-23.552-9.184-25.088-21.504l-19.456-135.68c-31.264-12.8-59.872-30.208-86.528-50.144l-127.456 51.2c-11.744 4.608-25.088 0-31.264-11.264l-102.368-177.184c-6.688-11.264-3.648-25.12 6.112-32.768l108.064-84.48c-2.112-16.352-3.616-33.28-3.616-50.176s1.504-33.824 3.584-50.176l-108.064-84.48c-9.76-7.648-12.256-21.504-6.112-32.736l102.368-177.184c6.144-11.264 20-15.328 31.264-11.264l127.456 51.2c26.656-20.448 55.296-37.344 86.528-50.144l19.456-135.68c1.568-12.352 12.32-21.536 25.12-21.536h204.832c12.736 0 23.488 9.184 25.056 21.504l19.424 135.68c31.264 12.8 59.936 30.208 86.56 50.144l127.424-51.2c11.744-4.608 25.12 0 31.264 11.264l102.432 177.184c6.048 11.264 3.552 25.088-6.176 32.736l-107.968 84.512zM512.128 268.8c-98.816 0-179.232 80.384-179.232 179.2s80.416 179.2 179.232 179.2c98.784 0 179.168-80.384 179.168-179.2s-80.352-179.2-179.168-179.2z" />
<glyph unicode="&#xe310;" glyph-name="admin" d="M682.112 439.296l-10.88 40.256 88.384 88.352 108.384-108.416 156 156-270.752 270.784-205.984 48-76.992-80.256 133.856-133.856-139.936-140.128-169.824 169.696-50.272 85.184-99.808 75.968-94.016-95.968 75.488-99.616 84-49.152 170.496-170.208-380.256-380.8 153.312-153.376 327.072 327.008 36.416-11.68 214.656-251.424c26.368-26.304 61.472-40.672 98.88-40.512 38.080 0.192 73.888 15.392 100.448 42.56 27.616 27.52 42.944 64 42.944 102.752 0.096 38.688-15.072 75.264-45.184 105.408-0.128 0.064-246.432 203.424-246.432 203.424z" />
<glyph unicode="&#xe311;" glyph-name="edit" d="M0 149.28v-213.28h213.28l629.152 629.088-213.312 213.312-629.12-629.12zM1007.36 730.048c22.176 22.176 22.176 58.016 0 80.192l-133.12 133.12c-22.112 22.176-57.984 22.176-80.192 0l-104.128-104.096 213.312-213.312 104.128 104.096z" />
<glyph unicode="&#xe312;" glyph-name="view" d="M483.232 767.584c-189.216-20.256-346.432-146.336-483.264-335.392 0 0 244.96-373.696 559.328-333.152 182.464 24.736 334.592 150.752 464.672 335.328-152.096 202.656-322.784 342.272-540.736 333.216zM510.24 175.264c-141.376 0-256 114.624-256 256s114.624 256.032 256 256.032 256-114.656 256-256.032c0-141.376-114.624-256-256-256zM510.24 591.264c-13.6 0-26.592-2.208-39.2-5.408l38.464-153.856-153.856 38.464c-3.2-12.608-5.408-25.6-5.408-39.232 0-88.384 71.616-160 160-160s160 71.616 160 160c0 88.416-71.616 160.032-160 160.032zM63.968 686.208c-8.288 0-16.608 3.232-22.848 9.6-12.384 12.672-12.16 32.896 0.448 45.28 132.704 129.92 272.704 201.152 428 217.792l7.424 0.544c9.376 0.416 17.76 0.576 26.144 0.576 170.56 0 331.776-73.312 479.264-217.92 12.64-12.384 12.8-32.64 0.448-45.248-12.352-12.64-32.672-12.768-45.248-0.448-143.52 140.768-292 206.496-456.928 199.136l-5.376-0.384c-139.328-14.944-266.912-80.32-388.928-199.776-6.24-6.112-14.336-9.152-22.4-9.152v0z" />
<glyph unicode="&#xe313;" glyph-name="new" d="M882.4 795.328l-153.056 149.12c-7.776 9.792-17.6 15.552-33.152 15.552h-568.192v-1024h768v824.288c0 15.552-5.824 25.312-13.6 35.040zM823.2 14.88h-624.64v865.92h447.52l0.096-179.936h177.024v-685.984zM562.56 482.528v138.848c0 13.536-5.28 26.208-14.784 35.776-9.568 9.536-22.272 14.848-35.776 14.848s-26.24-5.28-35.776-14.816c-9.504-9.536-14.784-22.208-14.784-35.712v-138.912h-138.88c-13.568 0-26.24-5.28-35.808-14.752-9.536-9.6-14.752-22.304-14.752-35.808 0-27.872 22.656-50.592 50.528-50.592h138.944v-138.88c0-13.536 5.216-26.176 14.752-35.712s22.272-14.816 35.776-14.816c13.536 0 26.208 5.28 35.712 14.72 9.568 9.6 14.848 22.304 14.848 35.84v138.88h138.848c13.568 0 26.208 5.312 35.744 14.752 0.096 0.128 0.096 0.128 0.096 0.128 9.504 9.44 14.752 22.208 14.752 35.68 0 27.84-22.656 50.528-50.56 50.528h-138.88z" />
<glyph unicode="&#xe315;" glyph-name="save" d="M566.112 820h157.568v-189.856h-157.568v189.856zM866.464 960h-866.464v-1024h1024v866.464l-157.536 157.536zM787.68 896v-329.856h-551.36v329.856h551.36zM157.536 0v408.608h708.928v-408.608h-708.928z" />
<glyph unicode="&#xe316;" glyph-name="bar-chart" d="M90.464 682.816h138.592v-607.040h-138.592v607.040zM325.312 474.944h138.592v-399.168h-138.592v399.168zM560.128 960h138.56v-884.224h-138.56v884.224zM794.976 752.096h138.56v-676.32h-138.56v676.32zM0 32h1024v-96h-1024v96z" />
<glyph unicode="&#xe317;" glyph-name="file" d="M882.368 795.328l-153.056 149.12c-7.776 9.792-17.6 15.552-33.152 15.552h-568.192v-1024h768.032v824.288c-0.032 15.552-5.856 25.312-13.632 35.040zM827.968 10.112h-634.24v875.488h452.32l0.096-179.936h181.856v-695.552zM270.528 527.2h460.768v-76.8h-460.768v76.8zM270.528 373.6h460.768v-76.768h-460.768v76.768zM270.528 220h460.768v-76.8h-460.768v76.8zM270.528 680.8h281.6v-76.8h-281.6v76.8z" />
<glyph unicode="&#xe318;" glyph-name="arrow_left" d="M828.096 839.648l-390.752-391.648 390.752-391.616-120.256-120.384-512 512 512 512 120.256-120.352z" />
<glyph unicode="&#xe319;" glyph-name="arrow_right" d="M195.904 56.384l390.72 391.616-390.72 391.648 120.256 120.352 511.936-512-511.936-512-120.256 120.384z" />
<glyph unicode="&#xe320;" glyph-name="arrow_up" d="M903.616 131.872l-391.616 390.784-391.648-390.784-120.352 120.288 512 511.968 512-511.968-120.384-120.288z" />
<glyph unicode="&#xe321;" glyph-name="arrow_down" d="M120.352 764.16l391.648-390.816 391.68 390.816 120.32-120.32-512-512-512 512 120.352 120.32z" />
<glyph unicode="&#xe322;" glyph-name="top" d="M903.68-54.368l-391.68 390.848-391.648-390.848-120.352 120.352 512 512 512-512-120.32-120.352zM0 950.336h1024v-186.176h-1024v186.176z" />
<glyph unicode="&#xe323;" glyph-name="bottom" d="M120.352 950.336l391.648-390.784 391.616 390.784 120.384-120.32-512-512-512 512 120.352 120.32zM0 131.808h1024v-186.176h-1024v186.176z" />
<glyph unicode="&#xe324;" glyph-name="th" d="M0 960h256v-256h-256v256zM768 960h256v-256h-256v256zM384 960h256v-256h-256v256zM0 576h256v-256h-256v256zM768 576h256v-256h-256v256zM384 576h256v-256h-256v256zM0 192h256v-256h-256v256zM768 192h256v-256h-256v256zM384 192h256v-256h-256v256z" />
<glyph unicode="&#xe325;" glyph-name="th-large" d="M0 384h448v-448h-448v448zM576 960h448v-448h-448v448zM576 384h448v-448h-448v448zM0 960h448v-448h-448v448z" />
<glyph unicode="&#xe326;" glyph-name="th-list" d="M0 960h256v-256h-256v256zM0 576h256v-256h-256v256zM0 192h256v-256h-256v256zM384 960h640v-256h-640v256zM384 576h640v-256h-640v256zM384 192h640v-256h-640v256z" />
<glyph unicode="&#xe327;" glyph-name="star" d="M1024.032 560.672h-389.824l-119.52 372.512-119.616-372.512h-395.072l318.752-228.736-121.184-367.264 318.688 226.976 312.032-228.8-119.552 369.088 315.296 228.736z" />
<glyph unicode="&#xe328;" glyph-name="rubber" d="M654.080 945.28l-639.36-639.328c-19.616-19.616-19.616-51.424 0-71.072l284.16-284.16c19.616-19.616 51.424-19.616 71.072 0l639.36 639.328c19.584 19.616 19.584 51.424-0.032 71.040l-284.16 284.16c-19.616 19.648-51.392 19.648-71.040 0.032zM642.24 317.792l-284.16-284.16c-13.12-13.088-34.24-13.088-47.328 0l-213.152 213.12c-13.056 13.056-13.056 34.208 0 47.328l284.192 284.128 260.448-260.416z" />
<glyph unicode="&#xe329;" glyph-name="calendar" d="M136 624h128v-128h-128v128zM344 624h128v-128h-128v128zM552 624h128v-128h-128v128zM760 624h128v-128h-128v128zM136 416h128v-128h-128v128zM344 416h128v-128h-128v128zM552 416h128v-128h-128v128zM760 416h128v-128h-128v128zM136 208h128v-128h-128v128zM344 208h128v-128h-128v128zM552 208h128v-128h-128v128zM760 208h128v-128h-128v128zM960 832h-144v32c0 53.024-42.976 96-96 96s-96-42.976-96-96v-32h-224v32c0 53.024-42.976 96-96 96s-96-42.976-96-96v-32h-144c-35.328 0-64-28.672-64-64v-768c0-35.328 28.672-64 64-64h896c35.328 0 64 28.672 64 64v768c0 35.328-28.672 64-64 64zM672 864c0 26.496 21.504 48 48 48s48-21.504 48-48v-96h-96v96zM256 864c0 26.496 21.504 48 48 48s48-21.504 48-48v-96h-96v96zM960 0h-896v704h896v-704z" />
<glyph unicode="&#xe330;" glyph-name="calendar-day" d="M960 832h-144v32c0 53.024-42.976 96-96 96s-96-42.976-96-96v-32h-224v32c0 53.024-42.976 96-96 96s-96-42.976-96-96v-32h-144c-35.328 0-64-28.672-64-64v-768c0-35.328 28.672-64 64-64h896c35.328 0 64 28.672 64 64v768c0 35.328-28.672 64-64 64zM672 864c0 26.496 21.504 48 48 48s48-21.504 48-48v-96h-96v96zM256 864c0 26.496 21.504 48 48 48s48-21.504 48-48v-96h-96v96zM960 0h-896v704h896v-704zM136 624h128v-128h-128v128zM344 624h128v-128h-128v128zM552 624h128v-128h-128v128zM760 624h128v-128h-128v128zM136 416h128v-128h-128v128zM344 416h128v-128h-128v128zM552 464h128v-224h-128v224zM504 416h224v-128h-224v128zM760 416h128v-128h-128v128zM136 208h128v-128h-128v128zM344 208h128v-128h-128v128zM552 208h128v-128h-128v128zM760 208h128v-128h-128v128z" />
<glyph unicode="&#xe331;" glyph-name="calendar-week" d="M136 416h752v-128h-752v128zM960 832h-144v32c0 53.024-42.976 96-96 96s-96-42.976-96-96v-32h-224v32c0 53.024-42.976 96-96 96s-96-42.976-96-96v-32h-144c-35.328 0-64-28.672-64-64v-768c0-35.328 28.672-64 64-64h896c35.328 0 64 28.672 64 64v768c0 35.328-28.672 64-64 64zM672 864c0 26.496 21.504 48 48 48s48-21.504 48-48v-96h-96v96zM256 864c0 26.496 21.504 48 48 48s48-21.504 48-48v-96h-96v96zM960 0h-896v704h896v-704zM136 624h128v-128h-128v128zM344 624h128v-128h-128v128zM552 624h128v-128h-128v128zM760 624h128v-128h-128v128zM136 208h128v-128h-128v128zM344 208h128v-128h-128v128zM552 208h128v-128h-128v128zM760 208h128v-128h-128v128z" />
<glyph unicode="&#xe332;" glyph-name="calendar-month" d="M152 608h96v-96h-96v96zM136 416h752v-128h-752v128zM344 624h544v-128h-544v128zM136 208h336v-128h-336v128zM568 192h96v-96h-96v96zM776 192h96v-96h-96v96zM960 832h-144v32c0 53.024-42.976 96-96 96s-96-42.976-96-96v-32h-224v32c0 53.024-42.976 96-96 96s-96-42.976-96-96v-32h-144c-35.328 0-64-28.672-64-64v-768c0-35.328 28.672-64 64-64h896c35.328 0 64 28.672 64 64v768c0 35.328-28.672 64-64 64zM672 864c0 26.496 21.504 48 48 48s48-21.504 48-48v-96h-96v96zM256 864c0 26.496 21.504 48 48 48s48-21.504 48-48v-96h-96v96zM960 0h-896v704h896v-704zM136 624h128v-128h-128v128zM552 208h128v-128h-128v128zM760 208h128v-128h-128v128z" />
<glyph unicode="&#xe333;" glyph-name="calendar-year" d="M136 416h752v-128h-752v128zM136 624h752v-128h-752v128zM136 208h752v-128h-752v128zM960 832h-144v32c0 53.024-42.976 96-96 96s-96-42.976-96-96v-32h-224v32c0 53.024-42.976 96-96 96s-96-42.976-96-96v-32h-144c-35.328 0-64-28.672-64-64v-768c0-35.328 28.672-64 64-64h896c35.328 0 64 28.672 64 64v768c0 35.328-28.672 64-64 64zM672 864c0 26.496 21.504 48 48 48s48-21.504 48-48v-96h-96v96zM256 864c0 26.496 21.504 48 48 48s48-21.504 48-48v-96h-96v96zM960 0h-896v704h896v-704z" />
<glyph unicode="&#xe334;" glyph-name="calendar-more" d="M960 832h-144v32c0 53.024-42.976 96-96 96s-96-42.976-96-96v-32h-224v32c0 53.024-42.976 96-96 96s-96-42.976-96-96v-32h-144c-35.328 0-64-28.672-64-64v-768c0-35.328 28.672-64 64-64h896c35.328 0 64 28.672 64 64v768c0 35.328-28.672 64-64 64zM672 864c0 26.496 21.504 48 48 48s48-21.504 48-48v-96h-96v96zM256 864c0 26.496 21.504 48 48 48s48-21.504 48-48v-96h-96v96zM960 0h-896v704h896v-704zM736 416h-160v160h-128v-160h-160v-128h160v-160h128v160h160z" />
<glyph unicode="&#xe335;" glyph-name="calendar-less" d="M960 832h-144v32c0 53.024-42.976 96-96 96s-96-42.976-96-96v-32h-224v32c0 53.024-42.976 96-96 96s-96-42.976-96-96v-32h-144c-35.328 0-64-28.672-64-64v-768c0-35.328 28.672-64 64-64h896c35.328 0 64 28.672 64 64v768c0 35.328-28.672 64-64 64zM672 864c0 26.496 21.504 48 48 48s48-21.504 48-48v-96h-96v96zM256 864c0 26.496 21.504 48 48 48s48-21.504 48-48v-96h-96v96zM960 0h-896v704h896v-704zM288 416h448v-128h-448v128z" />
<glyph unicode="&#xe336;" glyph-name="ellipsis-h" d="M656.032 448c0-79.529-64.471-144-144-144s-144 64.471-144 144c0 79.529 64.471 144 144 144s144-64.471 144-144zM1024.032 448c0-79.529-64.471-144-144-144s-144 64.471-144 144c0 79.529 64.471 144 144 144s144-64.471 144-144zM288.032 448c0-79.529-64.471-144-144-144s-144 64.471-144 144c0 79.529 64.471 144 144 144s144-64.471 144-144z" />
<glyph unicode="&#xe337;" glyph-name="ellipsis-v" d="M656.032 448c0-79.529-64.471-144-144-144s-144 64.471-144 144c0 79.529 64.471 144 144 144s144-64.471 144-144zM656.032 80c0-79.529-64.471-144-144-144s-144 64.471-144 144c0 79.529 64.471 144 144 144s144-64.471 144-144zM656.032 816c0-79.529-64.471-144-144-144s-144 64.471-144 144c0 79.529 64.471 144 144 144s144-64.471 144-144z" />
<glyph unicode="&#xe338;" glyph-name="infos" d="M409.568 550.432h204.864v-614.432h-204.864v614.432zM409.568 960h204.864v-204.8h-204.864v204.8z" />
<glyph unicode="&#xe339;" glyph-name="code" d="M374.048 56h104.416l171.488 784h-104.416zM0 410.784l345.12-200.704v113.248l-218.944 124.672 218.944 124.704v113.248l-345.12-201.824zM678.816 685.952v-113.248l219.040-124.704-219.040-124.672v-113.248l345.184 200.704v73.344z" />
<glyph unicode="&#xe340;" glyph-name="triangle-right" d="M256-64v1024l512-512z" />
<glyph unicode="&#xe341;" glyph-name="triangle-left" d="M768 960v-1024l-512 512z" />
<glyph unicode="&#xe342;" glyph-name="triangle-bottom" d="M0 704h1024l-512-512z" />
<glyph unicode="&#xe343;" glyph-name="triangle-top" d="M1024 192h-1024l512 512z" />
<glyph unicode="&#xe344;" glyph-name="triangle-right-bottom" d="M149.92 85.952l724.032 724.064 0.032-724.064z" />
<glyph unicode="&#xe345;" glyph-name="triangle-right-top" d="M149.92 810.016l724.032-724.064 0.032 724.064z" />
<glyph unicode="&#xe346;" glyph-name="triangle-left-bottom" d="M873.984 85.952l-724 724.064-0.064-724.064z" />
<glyph unicode="&#xe347;" glyph-name="triangle-left-top" d="M873.984 810.016l-724-724.064-0.064 724.064z" />
<glyph unicode="&#xe352;" glyph-name="move" d="M1024 448l-224 224v-144h-208v208h144l-224 224-224-224h144v-208h-208v144l-224-224 224-224v144h208v-208h-144l224-224 224 224h-144v208h208v-144z" />
<glyph unicode="&#xe353;" glyph-name="unpublished" d="M512 960c-282.784 0-512-229.248-512-512s229.216-512 512-512 512 229.248 512 512c0 282.752-229.216 512-512 512zM512 32c-229.76 0-416 186.24-416 416s186.24 416 416 416 416-186.24 416-416-186.24-416-416-416zM512 640c-106.016 0-192-85.984-192-192s85.984-192 192-192 192 85.984 192 192-85.984 192-192 192zM512 352c-53.024 0-96 42.976-96 96s42.976 96 96 96 96-42.976 96-96-42.976-96-96-96z" />
<glyph unicode="&#xe354;" glyph-name="published" d="M976 496c-26.528 0-48-21.504-48-48 0-229.76-186.24-416-416-416s-416 186.24-416 416 186.24 416 416 416c26.528 0 48 21.504 48 48s-21.472 48-48 48c-282.784 0-512-229.248-512-512s229.216-512 512-512 512 229.248 512 512c0 26.496-21.472 48-48 48zM252.064 505.024l103.392 102.72 159.808-159.744 405.824 405.504 102.912-102.848-508.736-508.768z" />
<glyph unicode="&#xe355;" glyph-name="log-in" d="M416 863.968c0.096 0 0.224 0.032 0.32 0.032h511.68v-832l-512-0.032c-26.496 0-48-21.504-48-48s21.504-48 48-48c0.096 0 0.224 0.032 0.32 0.032h543.68c35.328 0 64 28.672 64 64v896c0 35.328-28.672 64-64 64h-576c-0.096 0-0.224-0.032-0.32-0.032h32.32c-26.496 0-48-21.504-48-48s21.504-48 48-48zM400.48 687.552c-16.768 16.8-44.064 16.8-60.832 0-16.8-16.832-16.8-44.064 0-60.864l134.624-134.624h-427.584c-26.528 0-48-21.504-48-48s21.472-48 48-48h427.328l-134.4-134.368c-16.8-16.8-16.768-44.064 0-60.864 16.8-16.8 44.064-16.8 60.832 0l243.52 243.264-243.488 243.456z" />
<glyph unicode="&#xe356;" glyph-name="log-out" d="M608 32c-0.096 0-0.224-0.032-0.32-0.032h-511.68v832l512 0.032c26.496 0 48 21.472 48 48s-21.504 48-48 48c-0.096 0-0.224-0.032-0.32-0.032h-543.68c-35.328 0-64-28.672-64-64v-896c0-35.328 28.672-64 64-64h576c0.096 0 0.224 0.032 0.32 0.032h-32.32c26.496 0 48 21.504 48 48s-21.504 48-48 48zM780.48 691.52c-16.768 16.8-44.064 16.8-60.832 0-16.8-16.832-16.8-44.064 0-60.864l134.624-134.656h-427.584c-26.528 0-48-21.472-48-48s21.472-48 48-48h427.328l-134.4-134.368c-16.8-16.8-16.768-44.064 0-60.864 16.8-16.8 44.064-16.8 60.832 0l243.552 243.232-243.52 243.52z" />
<glyph unicode="&#xe357;" glyph-name="loader" d="M640 832c0-61.856-50.144-112-112-112s-112 50.144-112 112c0 61.856 50.144 112 112 112s112-50.144 112-112zM349.152 714.848c0-57.438-46.562-104-104-104s-104 46.562-104 104c0 57.438 46.562 104 104 104s104-46.562 104-104zM224 432c0-53.019-42.981-96-96-96s-96 42.981-96 96c0 53.019 42.981 96 96 96s96-42.981 96-96zM333.152 149.152c0-48.601-39.399-88-88-88s-88 39.399-88 88c0 48.601 39.399 88 88 88s88-39.399 88-88zM930.848 714.848c0-66.274-53.726-120-120-120s-120 53.726-120 120c0 66.274 53.726 120 120 120s120-53.726 120-120zM608 32.064c0-44.183-35.817-80-80-80s-80 35.817-80 80c0 44.183 35.817 80 80 80s80-35.817 80-80zM882.848 149.152c0-39.765-32.235-72-72-72s-72 32.235-72 72c0 39.765 32.235 72 72 72s72-32.235 72-72zM992 432c0-35.346-28.654-64-64-64s-64 28.654-64 64c0 35.346 28.654 64 64 64s64-28.654 64-64z" />
<glyph unicode="&#xe358;" glyph-name="newspaper" d="M436.992 337.76h469.632v-59.328h-469.632v59.328zM436.992 815.328h469.632v-59.328h-469.632v59.328zM436.992 183.424h469.632v-59.2h-469.632v59.2zM436.992 672.768h221.632v-237.6h-221.632v237.6zM724.064 672.768h182.56v-59.2h-182.56v59.2zM724.064 510.432h182.56v-75.264h-182.56v75.264zM307.968 960v-344.064h-307.968v-495.168c0-102.016 82.72-184.768 184.768-184.768h654.4c91.136 0 166.688 66.016 181.856 152.768h2.976v871.232h-716.032zM61.6 120.768v433.568h246.368v-216.672h-184.416v-59.264h184.416v-95.008h-184.416v-59.2h184.416v-3.456c0-68.032-55.168-123.2-123.2-123.2s-123.168 55.2-123.168 123.232zM839.2-2.4h-516.96c22.592 25.152 38.304 56.48 44.384 91.2h2.944v809.6h592.8v-777.632c0-68.032-55.104-123.168-123.168-123.168z" />
<glyph unicode="&#xe359;" glyph-name="dashboard" d="M512 848.128c-282.752 0-512-229.216-512-512 0-106.944 32.864-206.112 88.928-288.256h846.112c56.096 82.112 88.96 181.312 88.96 288.256 0 282.784-229.248 512-512 512zM510.016 780.576c44.192 0 80-35.84 80-80 0-44.192-35.808-80.032-80-80.032s-80 35.84-80 80.032c0 44.128 35.808 80 80 80zM147.552 254.112c-44.16 0-80 35.808-80 80s35.84 80 80 80c44.192 0 80-35.808 80-80s-35.808-80-80-80zM309.472 535.84c-31.264-31.264-81.92-31.264-113.152 0-31.232 31.232-31.232 81.856 0 113.088 31.264 31.264 81.92 31.264 113.152 0 31.2-31.232 31.2-81.856 0-113.088zM512 99.68c-70.688 0-128 57.312-128 128 0 69.056 54.784 124.928 123.2 127.52l52.256 194.976c5.376 20.064 25.984 32 46.080 26.624s32.032-26.016 26.624-46.112l-52.224-194.88c36-22.656 60.064-62.432 60.064-108.128 0-70.688-57.312-128-128-128zM711.68 538.688c-31.264 31.232-31.264 81.888 0 113.12s81.92 31.264 113.12 0c31.264-31.264 31.264-81.92 0-113.12-31.2-31.264-81.856-31.264-113.12 0zM876.448 258.112c-44.192 0-80 35.84-80 80 0 44.192 35.808 80 80 80 44.16 0 80-35.808 80-80 0-44.128-35.84-80-80-80z" />
<glyph unicode="&#xe360;" glyph-name="reply" d="M704 668.512h-288v259.488l-416-454.112 416-454.080v264.704h288c176.736 0 320-139.776 320-316.512v380.512c0 176.736-143.264 320-320 320z" />
<glyph unicode="&#xe361;" glyph-name="user" d="M512 448c141.44 0 256 114.56 256 256s-114.56 256-256 256-256-114.56-256-256 114.56-256 256-256zM512 320c-170.88 0-512-85.76-512-256v-128h1024v128c0 170.24-341.12 256-512 256z" />
<glyph unicode="&#xe362;" glyph-name="users" d="M698.176 494.56c77.248 0 139.2 62.368 139.2 139.616 0 77.28-61.952 139.648-139.2 139.648-77.28 0-139.616-62.368-139.616-139.648s62.336-139.616 139.616-139.616zM325.824 494.56c77.28 0 139.2 62.368 139.2 139.616 0 77.28-61.92 139.648-139.2 139.648s-139.616-62.368-139.616-139.648c-0.032-77.28 62.336-139.616 139.616-139.616zM325.824 401.44c-108.48 0-325.824-54.432-325.824-162.88v-116.384h651.616v116.384c0 108.448-217.344 162.88-325.792 162.88zM698.176 401.44c-13.504 0-28.864-0.864-45.184-2.304 54.016-39.136 91.744-91.68 91.744-160.576v-116.384h279.264v116.384c0 108.448-217.376 162.88-325.824 162.88z" />
<glyph unicode="&#xe363;" glyph-name="comment" d="M1023.488 857.6c0 56.32-45.6 102.4-101.888 102.4h-819.2c-56.288 0-102.4-46.080-102.4-102.4v-614.4c0-56.288 46.112-102.4 102.4-102.4h716.8l204.8-204.8-0.512 921.6zM819.232 345.6h-614.432v102.4h614.4v-102.4zM819.232 499.2h-614.432v102.4h614.4v-102.4zM819.232 652.8h-614.432v102.4h614.4v-102.4z" />
<glyph unicode="&#xe364;" glyph-name="filter" d="M928 960h-832c-17.664 0-32-14.336-32-32v-32h896v32c0 17.664-14.304 32-32 32zM96 864l320-416v-480c0-17.664 14.336-32 32-32l160 160v352l320 416h-832z" />
<glyph unicode="&#xe365;" glyph-name="warning" d="M1016.288 39.168l-454.016 875.808c-10.176 17.984-29.376 29.024-50.304 29.024-20.672 0-39.936-11.040-50.368-29.024l-453.792-875.808c-10.432-17.952-10.432-40.096 0-58.048 10.336-17.984 29.6-29.088 50.24-29.088h907.872c20.704 0 39.904 11.104 50.336 29.088 10.336 17.952 10.336 40.096 0.032 58.048zM94.208 32l417.76 806.304 417.92-806.304h-835.68zM560.064 287.264c0-17.696-10.752-32.032-24-32.032h-48c-13.248 0-24 14.336-24 32.032v328c0 17.664 10.752 32 24 32h48c13.28 0 24-14.336 24-32v-328zM576.064 143.232c0-35.346-28.654-64-64-64s-64 28.654-64 64c0 35.346 28.654 64 64 64s64-28.654 64-64z" />
<glyph unicode="&#xe366;" glyph-name="link" d="M368 496l-12.032 12c-26.528 26.528-69.536 26.496-96 0l-240.096-240.064c-26.496-26.496-26.528-69.504 0-96l216.064-216.064c26.496-26.496 69.504-26.496 96.032 0l240.032 240.064c26.496 26.496 26.496 69.504 0 96l-12 12.032-276.064-276.096-192.064 192.064 276.128 276.064zM692 940.096l-240-240.064c-26.528-26.528-26.528-69.472 0-96l12-12 276 276.064 192.064-192.064-276.064-276.032 12-12c26.528-26.528 69.536-26.528 96.064-0.032l240.064 240.064c26.496 26.528 26.496 69.504 0 96.032l-216.064 216.032c-26.528 26.56-69.536 26.528-96.064 0zM698.048 634.016c26.464-26.496 26.496-69.472 0-96l-276.128-276.064c-26.496-26.496-69.472-26.496-96 0v0c-26.496 26.528-26.496 69.536 0 96.032l276.064 276.064c26.56 26.528 69.504 26.496 96.064-0.032v0z" />
<glyph unicode="&#xe367;" glyph-name="plus" d="M1024 560.032h-400v399.968h-224v-399.968h-400v-224h400v-400.032h224v400.032h400z" />
<glyph unicode="&#xe368;" glyph-name="minus" d="M0 560.032h1024v-224h-1024v224z" />
<glyph unicode="&#xe369;" glyph-name="circle-empty" d="M512 960c-282.784 0-512-229.216-512-512s229.216-512 512-512 512 229.216 512 512-229.216 512-512 512zM512 32c-229.76 0-416 186.24-416 416s186.24 416 416 416 416-186.24 416-416-186.24-416-416-416z" />
<glyph unicode="&#xe370;" glyph-name="circle-filled" d="M1024 448c0-282.77-229.23-512-512-512s-512 229.23-512 512c0 282.77 229.23 512 512 512s512-229.23 512-512z" />
<glyph unicode="&#xe371;" glyph-name="square-empty" d="M0 960v-1024h1024v1024h-1024zM928 32h-832v832h832v-832z" />
<glyph unicode="&#xe372;" glyph-name="square-filled" d="M0 960h1024v-1024h-1024v1024z" />
<glyph unicode="&#xe373;" glyph-name="translatable-field" d="M448 848h-448v-480h672v480h-224zM448 400h-224v416h224v-416zM448 528v-128h-96v-352h672v480h-576zM992 208h-608v160h608v-160z" />
<glyph unicode="&#xe374;" glyph-name="translation-delete" d="M384 192h-384v-256h384l144 128zM544 192l144-128-144-128h480v256zM298.688 391.104c0-39.136 32-71.104 71.136-71.104h284.48c39.104 0 71.104 31.968 71.104 71.104v378.656h-426.72v-378.656zM760.896 924.448h-124.384l-35.616 35.552h-177.76l-35.552-35.552h-124.448v-87.136h497.76z" />
<glyph unicode="&#xe375;" glyph-name="translation-edit" d="M384 192h-384v-256h384l144 128zM544 192l144-128-144-128h480v256zM852 861.984l-86.112 85.984c-16.032 16.032-42.304 16.064-58.368 0.096l-375.488-372.896c-16.064-15.968-37.728-45.504-48.096-65.632l-119.328-231.36c-10.432-20.128-2.432-28.064 17.664-17.568l230.944 120.576c20.096 10.432 49.632 32.128 65.568 48.192l373.216 374.272c16 16.064 16 42.272 0 58.336zM286.624 340c-7.584 29.696-33.952 39.872-42.432 42.368l79.872 152.736c44.928-12.704 100.992-65.312 114.624-114.464l-152.064-80.64z" />
<glyph unicode="&#xe376;" glyph-name="translation-new" d="M562.528 545.408v138.848c0 13.536-5.216 26.208-14.752 35.776-9.568 9.536-22.272 14.816-35.776 14.816-13.536 0-26.208-5.28-35.776-14.816-9.536-9.536-14.784-22.208-14.784-35.712l0.032-138.912h-138.88c-13.568 0-26.24-5.248-35.808-14.752-9.568-9.568-14.784-22.272-14.784-35.776 0-27.84 22.656-50.56 50.528-50.56h138.944v-138.912c-0.032-13.504 5.216-26.176 14.72-35.68 9.536-9.632 22.272-14.88 35.808-14.88s26.208 5.248 35.712 14.752c9.6 9.568 14.816 22.304 14.816 35.808v138.912h138.88c13.568 0 26.208 5.28 35.744 14.752 0.096 0.064 0.096 0.064 0.096 0.064 9.504 9.472 14.752 22.24 14.752 35.744 0 27.84-22.624 50.528-50.528 50.528h-138.944zM198.56 254.88v625.92h479.52l0.096-147.936h145.024v-477.984h72.8v505.408c0 15.552-5.824 25.312-13.6 35.040l-153.056 149.12c-7.776 9.792-17.6 15.552-33.152 15.552h-568.192v-705.12h70.56zM384 192h-384v-256h384l144 128zM544 192l144-128-144-128h480v256z" />
<glyph unicode="&#xe377;" glyph-name="translation-view" d="M198.56 254.88v625.92h479.488l0.096-147.936h145.024v-477.984h72.832v505.408c0 15.552-5.824 25.312-13.6 35.040l-153.056 149.12c-7.776 9.792-17.6 15.552-33.152 15.552h-568.192v-705.12h70.56zM384 192h-384v-256h384l144 128zM544 192l144-128-144-128h480v256zM288 334.88h448v-80h-448v80zM288 494.88h448v-80h-448v80zM288 654.88h288v-80h-288v80z" />
<glyph unicode="&#xe378;" glyph-name="check" d="M0 385.856l100.896 100.192 232.448-232.416 590.336 589.824 100.32-100.256-690.656-690.656z" />
<glyph unicode="&#xe380;" glyph-name="close" d="M1024 856.864l-103.136 103.136-408.864-408.864-408.864 408.864-103.136-103.136 408.864-408.864-408.864-408.832 103.136-103.168 408.864 408.864 408.864-408.864 103.136 103.168-408.864 408.832 408.864 408.864z" />
<glyph unicode="&#xe381;" glyph-name="see-trash" d="M170.656 49.76c0-62.56 51.2-113.76 113.76-113.76h455.136c62.56 0 113.76 51.2 113.76 113.76v682.656h-682.656v-682.656zM352.832 358.496l89.792-89.44 228.48 228.448 48.864-49.216-277.344-277.344-138.656 138.624 48.864 48.928zM711.136 903.104l-56.96 56.896h-284.416l-56.896-56.896h-199.104v-113.792h796.416v113.792z" />
<glyph unicode="&#xe382;" glyph-name="lock-open" d="M804.576 618.656h-48.736v97.536c-0.032 134.592-109.28 243.808-243.84 243.808-134.592 0-243.84-109.216-243.84-243.808h92.672c0 83.392 67.776 151.168 151.136 151.168 83.392 0 151.2-67.776 151.2-151.168v-97.504h-443.744c-53.632 0-97.536-43.904-97.536-97.536v-487.616c0-53.632 43.904-97.536 97.536-97.536h585.152c53.664 0 97.536 43.904 97.536 97.536v487.616c-0.032 53.632-43.904 97.504-97.536 97.504zM512 179.808c-53.632 0-97.504 43.904-97.504 97.504 0 53.632 43.904 97.568 97.504 97.568 53.664 0 97.504-43.936 97.504-97.568 0-53.6-43.84-97.504-97.504-97.504z" />
<glyph unicode="&#xe384;" glyph-name="send" d="M0 886.848v-342.848l480-96-480-96v-342.88l1024 438.88z" />
<glyph unicode="&#xe386;" glyph-name="location_on" d="M512 960c-198.144 0-358.4-160.256-358.4-358.4 0-268.8 358.4-665.6 358.4-665.6s358.4 396.8 358.4 665.6c0 198.144-160.256 358.4-358.4 358.4zM512 473.6c-70.656 0-128 57.376-128 128 0 70.656 57.344 128 128 128s128-57.344 128-128c0-70.624-57.344-128-128-128z" />
<glyph unicode="&#xe387;" glyph-name="location_off" d="M563.2 729.6c70.656 0 128-57.344 128-128 0-37.92-16.896-71.2-42.496-94.72l185.856-185.888c50.144 95.264 87.072 194.56 87.072 280.608-0.032 198.144-160.288 358.4-358.432 358.4-101.376 0-192.512-42.496-258.016-110.080l163.328-163.328c23.52 26.624 56.768 43.008 94.688 43.008zM786.944 238.080l-670.72 670.688-65.024-64.992 162.848-162.848c-5.664-25.6-9.248-52.224-9.248-79.328 0-268.8 358.4-665.6 358.4-665.6s85.504 94.688 173.056 222.688l171.52-171.488 64.992 64.992-185.824 185.888z" />
<glyph unicode="&#xe388;" glyph-name="shopping_basket" d="M754.496 564.832l-203.872 305.344c-8.8 13.024-23.744 19.52-38.624 19.52s-29.792-6.496-38.656-20l-203.872-304.864h-222.912c-25.6 0-46.56-20.96-46.56-46.56 0-4.16 0.448-8.384 1.856-12.576l118.24-431.456c10.688-39.104 46.56-67.968 89.344-67.968h605.088c42.848 0 78.656 28.864 89.856 67.968l118.24 431.456 1.376 12.576c0 25.6-20.96 46.56-46.528 46.56h-222.976zM372.352 564.832l139.648 204.8 139.616-204.768h-279.264zM512 192.48c-51.2 0-93.088 41.92-93.088 93.088s41.888 93.088 93.088 93.088c51.2 0 93.088-41.92 93.088-93.088s-41.888-93.088-93.088-93.088z" />
<glyph unicode="&#xe389;" glyph-name="shopping_cart" d="M307.2 140.8c-56.32 0-101.92-46.112-101.92-102.4 0-56.32 45.568-102.4 101.92-102.4s102.4 46.080 102.4 102.4c0 56.288-46.080 102.4-102.4 102.4zM0 960v-102.4h102.4l184.32-388.608-69.12-125.44c-8.192-14.368-12.8-31.232-12.8-49.152 0-56.32 46.080-102.4 102.4-102.4h614.4v102.4h-592.896c-7.168 0-12.8 5.6-12.8 12.768l1.536 6.144 46.080 83.456h381.408c38.4 0 72.224 20.992 89.632 52.704l183.296 332.288c4.096 7.232 6.144 15.936 6.144 24.64 0 28.128-23.072 51.2-51.2 51.2h-757.248l-48.128 102.4h-167.424zM819.2 140.8c-56.288 0-101.888-46.112-101.888-102.4 0-56.32 45.6-102.4 101.888-102.4 56.32 0 102.4 46.080 102.4 102.4 0 56.288-46.112 102.4-102.4 102.4z" />
<glyph unicode="&#xe390;" glyph-name="download" d="M933.664 598.592h-240.928v361.408h-361.44v-361.408h-240.928l421.632-421.664 421.664 421.664zM90.368 56.48v-120.48h843.296v120.48h-843.296z" />
<glyph unicode="&#xe391;" glyph-name="upload" d="M331.296 176.928h361.408v361.44h240.928l-421.632 421.632-421.664-421.632h240.928v-361.44zM90.336 56.48h843.296v-120.48h-843.296v120.48z" />
<glyph unicode="&#xe392;" glyph-name="cloud" d="M825.568 531.616c-28.992 147.2-158.24 257.696-313.568 257.696-123.328 0-230.4-69.984-283.744-172.384-128.416-13.6-228.256-122.432-228.256-254.272 0-141.248 114.752-256 256-256h554.688c117.76 0 213.312 95.584 213.312 213.344 0 112.64-87.424 203.936-198.432 211.616z" />
<glyph unicode="&#xe393;" glyph-name="cloud_download" d="M825.568 531.648c-28.992 147.2-158.24 257.696-313.568 257.696-123.328 0-230.4-69.984-283.744-172.384-128.448-13.632-228.256-122.432-228.256-254.272 0-141.248 114.752-256 256-256h554.656c117.76 0 213.344 95.552 213.344 213.312 0 112.672-87.456 203.968-198.432 211.648zM725.312 405.344l-213.312-213.344-213.344 213.344h128v170.656h170.656v-170.656h128z" />
<glyph unicode="&#xe394;" glyph-name="disconnect" d="M1012.864 109.312v75.168c0 101.376-139.744 168.128-275.104 199.872l275.104-275.040zM951.2 14.336l-861.76 861.76-78.336-78.336 409.408-409.408c-140.928-29.76-293.984-97.696-293.984-203.872v-110.784h608.672l137.632-137.696 78.368 78.336zM1010.528 73.696h2.336v2.304zM602.080 520.128c106.848 15.744 189.184 106.976 189.184 218.272 0.032 122.432-99.2 221.6-221.568 221.6-111.36 0-202.528-82.272-218.304-189.184l250.688-250.688z" />
<glyph unicode="&#xe395;" glyph-name="log-as" d="M512 448c141.44 0 256 114.56 256 256s-114.56 256-256 256-256-114.56-256-256 114.56-256 256-256zM512 838.368v-268.736c-74.24 0-134.368 60.128-134.368 134.368s60.128 134.368 134.368 134.368zM512 384c-170.88 0-512-85.76-512-256v-192h1024v192c0 170.24-341.12 256-512 256zM512 57.632h-390.368v70.368c0 40.992 200.256 134.368 390.368 134.368v-204.736z" />
<glyph unicode="&#xe396;" glyph-name="help" d="M426.624 106.656h170.688v-170.656h-170.688v170.656zM512 960c-188.64 0-341.376-152.736-341.376-341.344h170.688c0 93.856 76.8 170.688 170.688 170.688 93.824 0 170.624-76.832 170.624-170.688 0-170.656-256-149.312-256-426.656h170.688c0 192 256 213.344 256 426.656 0 188.608-152.736 341.344-341.312 341.344z" />
<glyph unicode="&#xe400;" glyph-name="file-empty" d="M960 649.152v-658.272c0-30.304-24.576-54.88-54.88-54.88h-786.272c-30.272 0-54.848 24.576-54.848 54.88v914.24c0 30.304 24.576 54.88 54.848 54.88h530.272c30.304 0 72.576-17.728 93.728-38.88l178.272-178.272c21.12-21.12 38.88-63.424 38.88-93.696zM886.848 594.272h-237.728c-30.272 0-54.88 24.576-54.88 54.88v237.696h-457.088v-877.696h749.696v585.12zM667.424 667.424h214.848c-3.424 9.728-8.608 19.424-12.608 23.424l-178.848 178.848c-4 4-13.728 9.12-23.392 12.576v-214.848z" />
<glyph unicode="&#xe401;" glyph-name="file-code" d="M373.152 524.576l29.152-21.696c8-6.304 9.728-17.728 3.424-25.76l-104-138.848 104-138.848c6.304-8 4.576-19.424-3.424-25.728l-29.152-21.728c-8-6.272-19.424-4.576-25.728 3.424l-129.152 172c-4.576 6.272-4.576 15.392 0 21.696l129.152 172.032c6.272 8.032 17.728 9.76 25.728 3.456zM436.576 106.848l78.848 474.88c1.728 10.272 11.424 16.576 21.152 14.848l36-5.728c10.272-1.696 16.576-11.392 14.88-21.12l-78.88-474.88c-1.728-10.272-11.424-16.576-21.152-14.848l-36 5.728c-10.272 1.696-16.576 11.424-14.848 21.12zM805.696 327.424l-129.12-172c-6.272-8-17.728-9.728-25.728-3.424l-29.152 21.728c-8 6.272-9.696 17.728-3.392 25.728l104 138.848-104 138.848c-6.272 8.032-4.608 19.424 3.392 25.76l29.152 21.696c8 6.304 19.424 4.608 25.728-3.392l129.12-172.032c4.576-6.336 4.576-15.456 0-21.76zM921.152 742.848l-178.272 178.272c-21.152 21.152-63.456 38.88-93.76 38.88h-530.272c-30.272 0-54.848-24.576-54.848-54.88v-914.24c0-30.304 24.576-54.88 54.848-54.88h786.272c30.304 0 54.88 24.576 54.88 54.88v658.272c0 30.272-17.696 72.576-38.848 93.696zM667.424 882.272c9.728-3.424 19.424-8.576 23.424-12.576l178.848-178.848c4-4 9.152-13.728 12.608-23.424h-214.88v214.848zM886.88 9.152h-749.728v877.696h457.184v-237.696c0-30.304 24.576-54.88 54.816-54.88h237.76v-585.12z" />
<glyph unicode="&#xe402;" glyph-name="file-audio" d="M457.12 457.12v-310.848c0-7.424-4.576-14.272-11.424-17.12-2.304-0.576-4.576-1.152-6.848-1.152-4.576 0-9.152 1.728-13.12 5.152l-94.88 95.392h-74.88c-10.24 0-18.24 8-18.24 18.272v109.76c0 10.24 8 18.24 18.24 18.24h74.88l94.88 95.424c5.696 5.152 13.12 6.848 19.968 4 6.88-2.816 11.424-9.664 11.424-17.12zM590.272 176.576c32 34.272 49.728 78.272 49.728 125.152 0 46.848-17.728 90.88-49.728 125.152-13.728 14.848-37.152 15.392-52 1.696-14.272-13.696-15.424-37.12-1.152-51.968 18.88-20.608 29.728-46.88 29.728-74.88s-10.848-54.272-29.728-74.88c-14.272-14.848-13.12-38.272 1.152-51.968 7.424-6.304 16.576-9.728 25.12-9.728 9.728 0 19.456 4 26.88 11.424zM712.576 94.272c47.392 58.272 73.728 132 73.728 207.424 0 75.392-26.304 149.152-73.728 207.424-12.576 16-36 18.24-51.424 5.728-15.968-13.152-18.272-36-5.12-52 37.12-45.76 57.12-101.76 57.12-161.152 0-59.424-20-115.424-57.12-161.152-13.152-16-10.848-38.848 5.12-51.392 6.88-5.728 14.88-8.608 22.88-8.608 10.816 0.032 21.088 4.608 28.544 13.728zM921.152 742.848l-178.304 178.272c-21.12 21.152-63.424 38.88-93.728 38.88h-530.272c-30.272 0-54.848-24.576-54.848-54.88v-914.24c0-30.304 24.576-54.88 54.848-54.88h786.272c30.304 0 54.88 24.576 54.88 54.88v658.272c0 30.272-17.728 72.576-38.848 93.696zM667.424 882.272c9.728-3.424 19.392-8.576 23.392-12.576l178.88-178.848c4-4 9.12-13.728 12.576-23.424h-214.848v214.848zM886.848 9.152h-749.728v877.696h457.152v-237.696c0-30.304 24.576-54.88 54.848-54.88h237.728v-585.12z" />
<glyph unicode="&#xe403;" glyph-name="file-image" d="M438.88 484.576c0-60.601-49.127-109.728-109.728-109.728s-109.728 49.127-109.728 109.728c0 60.601 49.127 109.728 109.728 109.728s109.728-49.127 109.728-109.728zM804.608 82.272h-585.184v109.728l109.728 109.728 73.152-73.152 219.456 219.424 182.848-182.848zM921.152 742.848l-178.304 178.272c-21.12 21.152-63.424 38.88-93.728 38.88h-530.272c-30.272 0-54.848-24.576-54.848-54.88v-914.24c0-30.304 24.576-54.88 54.848-54.88h786.272c30.304 0 54.88 24.576 54.88 54.88v658.272c0 30.272-17.728 72.576-38.848 93.696zM667.424 882.272c9.728-3.424 19.392-8.576 23.392-12.576l178.88-178.848c4-4 9.12-13.728 12.576-23.424h-214.848v214.848zM886.848 9.152h-749.728v877.696h457.152v-237.696c0-30.304 24.576-54.88 54.848-54.88h237.728v-585.12z" />
<glyph unicode="&#xe404;" glyph-name="file-movie" d="M921.152 742.848l-178.272 178.272c-21.152 21.152-63.456 38.88-93.76 38.88h-530.272c-30.272 0-54.848-24.576-54.848-54.88v-914.24c0-30.304 24.576-54.88 54.848-54.88h786.272c30.304 0 54.88 24.576 54.88 54.88v658.272c0 30.272-17.696 72.576-38.848 93.696zM667.424 882.272c9.728-3.424 19.424-8.576 23.424-12.576l178.848-178.848c4-4 9.152-13.728 12.608-23.424h-214.88v214.848zM886.88 9.152h-749.728v877.696h457.184v-237.696c0-30.304 24.576-54.88 54.816-54.88h237.76v-585.12zM797.696 460.96v-329.152c0-7.424-4.576-14.272-11.392-17.152-2.272-0.576-4.608-1.12-6.848-1.12-4.608 0-9.76 1.728-13.12 5.12l-151.424 136v83.424l151.424 136c3.36 3.392 8.544 5.152 13.12 5.152 2.24 0 4.576-0.608 6.848-1.152 6.816-2.816 11.392-9.696 11.392-17.12zM578.304 152.384c0-17.696-14.336-32-32-32h-288c-17.664 0-32 14.304-32 32v288c0 17.696 14.336 32 32 32h288c17.664 0 32-14.304 32-32v-288z" />
<glyph unicode="&#xe405;" glyph-name="file-text" d="M310.848 486.016h402.272c10.304 0 18.304-8 18.304-18.272v-36.608c0-10.272-8-18.272-18.304-18.272h-402.272c-10.272 0-18.272 8-18.272 18.272v36.608c0 10.272 8 18.272 18.272 18.272zM731.424 321.408v-36.576c0-10.272-8-18.272-18.304-18.272h-402.272c-10.272 0-18.272 8-18.272 18.272v36.576c0 10.272 8 18.272 18.272 18.272h402.272c10.304 0 18.304-8 18.304-18.272zM731.424 175.136v-36.576c0-10.272-8-18.272-18.304-18.272h-402.272c-10.272 0-18.272 8-18.272 18.272v36.576c0 10.272 8 18.272 18.272 18.272h402.272c10.304 0 18.304-8 18.304-18.272zM921.152 742.848l-178.304 178.272c-21.12 21.152-63.424 38.88-93.728 38.88h-530.272c-30.272 0-54.848-24.576-54.848-54.88v-914.24c0-30.304 24.576-54.88 54.848-54.88h786.272c30.304 0 54.88 24.576 54.88 54.88v658.272c0 30.272-17.728 72.576-38.848 93.696zM667.424 882.272c9.728-3.424 19.392-8.576 23.392-12.576l178.88-178.848c4-4 9.12-13.728 12.576-23.424h-214.848v214.848zM886.848 9.152h-749.728v877.696h457.152v-237.696c0-30.304 24.576-54.88 54.848-54.88h237.728v-585.12z" />
<glyph unicode="&#xe406;" glyph-name="file-zip" d="M921.152 742.848l-178.272 178.272c-21.152 21.152-63.456 38.88-93.76 38.88h-530.272c-30.272 0-54.848-24.576-54.848-54.88v-914.24c0-30.304 24.576-54.88 54.848-54.88h786.272c30.304 0 54.88 24.576 54.88 54.88v658.272c0 30.272-17.696 72.576-38.848 93.696zM667.424 882.272c9.728-3.424 19.424-8.576 23.424-12.576l178.848-178.848c4-4 9.152-13.728 12.608-23.424h-214.88v214.848zM886.88 9.152h-749.728v877.696h457.184v-237.696c0-30.304 24.576-54.88 54.816-54.88h237.76v-585.12zM317.184 448c-56.576-190.848-68.576-226.272-68.576-226.272-2.848-9.728-4.576-19.456-4.576-29.728 0-63.424 61.696-109.728 146.272-109.728s146.272 46.272 146.272 109.728c0 10.272-1.728 20-4.576 29.728 0 0-12.576 35.424-61.152 199.392-4.576 16-18.88 26.88-35.424 26.88h-45.152v73.152h-73.088v-73.152zM390.336 228.576c40.576 0 73.152-16.576 73.152-36.576s-32.576-36.576-73.152-36.576c-40.576 0-73.152 16.576-73.152 36.576s32.576 36.576 73.152 36.576zM390.336 594.272h73.152v-73.12h-73.152v73.12zM390.336 740.576h73.152v-73.12h-73.152v73.12zM317.184 667.424h73.152v-73.152h-73.152v73.152zM390.336 886.848h73.152v-73.12h-73.152v73.12zM317.184 813.728h73.152v-73.152h-73.152v73.152z" />
<glyph unicode="&#xe407;" glyph-name="file-powerpoint" d="M921.152 742.848l-178.272 178.272c-21.152 21.152-63.456 38.88-93.76 38.88h-530.272c-30.272 0-54.848-24.576-54.848-54.88v-914.24c0-30.304 24.576-54.88 54.848-54.88h786.272c30.304 0 54.88 24.576 54.88 54.88v658.272c0 30.272-17.696 72.576-38.848 93.696zM667.424 882.272c9.728-3.424 19.424-8.576 23.424-12.576l178.848-178.848c4-4 9.152-13.728 12.608-23.424h-214.88v214.848zM886.88 9.152h-749.728v877.696h457.184v-237.696c0-30.304 24.576-54.88 54.816-54.88h237.76v-585.12zM615.136 507.712c-21.696 8.608-48 10.88-74.272 10.88h-210.304v-61.152h52.576v-317.152h-52.576v-60.576h186.848v60.576h-53.152v95.424h78.272c24.576 0 46.88 1.152 67.424 8.576 51.424 17.728 83.424 70.88 83.424 133.152s-30.816 110.272-78.24 130.272zM576.864 308.864c-12-5.728-26.88-8.608-44.608-8.608h-68v153.184h68.576c20 0 35.424-3.424 47.424-10.272 20.608-12 32-35.424 32-65.728 0.032-32-11.392-56.576-35.392-68.576z" />
<glyph unicode="&#xe408;" glyph-name="file-pdf" d="M799.968 292c-14.272 23.424-62.848 28-101.12 28-20.576 0-42.848-1.152-66.88-4-17.728 10.272-33.728 20.576-48 32-33.728 27.424-63.392 76-83.424 136 6.88 39.392 7.424 73.728 8 109.728 0 5.728 0 11.424 0 17.12 0 1.728 0 2.88-0.576 4.608 1.152 1.12 1.728 2.848 2.272 4.576 3.424 18.272 1.728 30.848-5.12 38.848-4.608 5.728-11.424 8.608-20 8.608h-12.576c-11.424 0-20-8.608-24-22.88-10.272-37.728-4.608-101.696 13.728-164-13.728-48-33.728-98.272-59.424-149.728-22.88-46.272-43.424-83.392-61.152-112.576 0 0.576-0.576 1.728-1.12 2.272-2.88 4.576-8.608 6.272-13.152 3.424-70.88-37.152-101.728-81.152-107.424-107.424-1.728-11.424 0.544-17.728 3.392-20.576 1.12-1.152 1.728-2.272 3.424-2.848l13.696-6.88c5.152-2.848 10.272-4 16-4 34.304 0 79.424 49.152 138.304 149.728 61.12 21.152 144.576 38.848 224 47.424 48-25.152 103.424-41.728 140-41.728 30.272 0 38.848 11.424 40.576 21.728v0.576c0.576 0.576 1.152 1.728 1.728 2.272 6.272 13.728 2.848 24-1.152 29.728zM254.816 113.152c8.608 19.392 35.456 57.12 78.304 90.272-36.544-57.696-61.152-82.272-78.304-90.272zM482.24 638.848c0 0.608 0.608 1.152 0.608 2.304 3.392-4 6.848-10.304 7.392-20.608 0.608-1.12 0.608-2.272 1.152-2.848-1.152-1.728-1.728-2.88-2.272-4.576-1.152-6.88-2.88-14.88-4-24.608-1.152-7.392-2.272-16-4-25.12-4.544 32.032-4.544 59.456 1.12 75.456zM411.392 261.152c8.576 15.392 17.152 31.392 25.728 47.392 20.576 40.576 36.576 77.728 47.392 112.576 19.424-41.696 44.608-76 72.608-100.576 5.12-4.576 10.848-8.576 16.576-13.12-56-10.272-112-26.272-162.304-46.272zM771.392 268c-17.12 0-42.88 5.728-70.88 16 62.272 0 77.152-10.848 80.032-13.728 0.576-0.576 1.12-1.12 1.12-1.728-2.272-0.544-5.088-0.544-10.272-0.544zM921.152 742.848l-178.304 178.272c-21.12 21.152-63.424 38.88-93.728 38.88h-530.272c-30.272 0-54.848-24.576-54.848-54.88v-914.24c0-30.304 24.576-54.88 54.848-54.88h786.272c30.304 0 54.88 24.576 54.88 54.88v658.272c0 30.272-17.728 72.576-38.848 93.696zM667.424 882.272c9.728-3.424 19.392-8.576 23.392-12.576l178.88-178.848c4-4 9.12-13.728 12.576-23.424h-214.848v214.848zM886.848 9.152h-749.728v877.696h457.152v-237.696c0-30.304 24.576-54.88 54.848-54.88h237.728v-585.12z" />
<glyph unicode="&#xe409;" glyph-name="file-excel" d="M318.304 82.272h160.576v60.576h-42.88l58.88 92c6.848 10.88 10.272 19.424 12 19.424h1.12c0.576-2.272 1.728-4 2.88-5.728 2.272-4.576 5.696-8 9.696-13.728l61.152-92h-43.424v-60.576h166.272v60.576h-38.848l-109.728 156 111.424 161.152h38.272v61.152h-159.424v-61.152h42.304l-58.88-90.88c-6.848-10.848-12-19.392-12-18.848h-1.152c-0.576 2.272-1.696 4-2.848 5.728-2.272 4-5.152 8-9.728 13.12l-60.576 90.88h43.424v61.152h-165.728v-61.152h38.848l108-155.424-110.848-161.728h-38.784v-60.544zM921.152 742.848l-178.304 178.272c-21.12 21.152-63.424 38.88-93.728 38.88h-530.272c-30.272 0-54.848-24.576-54.848-54.88v-914.24c0-30.304 24.576-54.88 54.848-54.88h786.272c30.304 0 54.88 24.576 54.88 54.88v658.272c0 30.272-17.728 72.576-38.848 93.696zM667.424 882.272c9.728-3.424 19.392-8.576 23.392-12.576l178.88-178.848c4-4 9.12-13.728 12.576-23.424h-214.848v214.848zM886.848 9.152h-749.728v877.696h457.152v-237.696c0-30.304 24.576-54.88 54.848-54.88h237.728v-585.12z" />
<glyph unicode="&#xe410;" glyph-name="file-word" d="M206.272 460h40l93.696-377.728h90.848l73.152 277.152c2.848 8.576 4.576 17.152 5.696 26.272 0.576 4.576 1.152 9.12 1.152 13.728h2.304l1.696-13.728c1.728-8 2.304-17.12 5.152-26.272l73.12-277.152h90.88l93.696 377.728h40v61.152h-171.392v-61.152h51.392l-56.576-250.272c-2.272-9.152-3.424-18.88-4-26.272l-1.12-12h-2.304c0 3.424-1.12 8-1.696 12-1.728 7.392-2.88 17.12-5.12 26.272l-82.304 311.424h-65.152l-82.272-311.424c-2.304-9.152-2.848-18.88-4.576-26.272l-2.272-12h-2.272l-1.152 12c-0.576 7.392-1.696 17.12-4 26.272l-56.576 250.272h51.424v61.152h-171.424v-61.152zM921.152 742.848l-178.304 178.272c-21.12 21.152-63.424 38.88-93.728 38.88h-530.272c-30.272 0-54.848-24.576-54.848-54.88v-914.24c0-30.304 24.576-54.88 54.848-54.88h786.272c30.304 0 54.88 24.576 54.88 54.88v658.272c0 30.272-17.728 72.576-38.848 93.696zM667.424 882.272c9.728-3.424 19.392-8.576 23.392-12.576l178.88-178.848c4-4 9.12-13.728 12.576-23.424h-214.848v214.848zM886.848 9.152h-749.728v877.696h457.152v-237.696c0-30.304 24.576-54.88 54.848-54.88h237.728v-585.12z" />
<glyph unicode="&#xe411;" glyph-name="file-openoffice" d="M921.12 742.848l-178.272 178.304c-21.152 21.12-63.424 38.848-93.728 38.848h-530.272c-30.24 0-54.848-24.576-54.848-54.848v-914.272c0-30.304 24.608-54.88 54.848-54.88h786.272c30.304 0 54.88 24.576 54.88 54.88v658.272c0 30.272-17.728 72.544-38.88 93.696zM667.424 882.272c9.696-3.424 19.424-8.576 23.424-12.576l178.848-178.848c4-4 9.12-13.696 12.576-23.424h-214.848v214.848zM886.848 9.184h-749.696v200.256c13.888 1.824 27.904 2.88 41.984 2.88 96.544 0 169.632-24.64 224.32-76.064 2.944-2.432 6.592-3.744 10.336-3.744 4.768 0 9.312 2.112 12.352 5.888h-0.032c0.672 0.8 1.216 1.568 1.728 2.24l1.632 2.24c57.024 78.016 151.712 120.928 266.624 120.928 7.776 0 15.52-0.256 22.976-0.8 2.592-0.192 8.064-0.576 8.16-0.576 8.832 0 16 7.2 16 15.936 0 6.176-3.552 11.872-10.176 14.88-42.336 17.568-87.136 26.432-133.12 26.432-70.816 0-138.816-21.056-196.96-60.928-43.296 18.496-89.28 27.808-136.768 27.808-44.736 0-88.416-8.512-128.992-24.672v624.96h457.12v-237.696c0-30.304 24.608-54.88 54.848-54.88h237.728v-585.088zM528.288 490.304c-6.528 0.64-13.024 0.928-19.488 0.928-32.992 0-65.92-8.128-96.192-24-0.576-0.288-1.056-0.64-1.568-1.024-3.52-2.72-5.568-6.848-5.568-11.296 0-7.904 6.432-14.336 14.368-14.336 0.672 0 1.952 0.128 2.656 0.288 0.224 0.064 0.416 0.064 0.608 0.128 10.88 1.952 21.952 2.944 32.928 2.944 5.76 0 11.552-0.256 17.376-0.8 54.688-5.184 94.336-22.56 121.568-53.344 3.68-3.872 7.616-4.672 10.272-4.672s6.592 0.8 10.784 5.12c31.36 36.352 77.568 55.552 133.696 55.552 7.648 0 15.488-0.384 23.328-1.12 3.488-0.32 6.944-0.768 10.592-1.312 1.376-0.224 3.264-0.512 4.48-0.672 0.384-0.032 1.536-0.096 1.536-0.096 4.256 0 8.192 1.92 10.816 5.184 2.016 2.56 3.136 5.824 3.136 9.248-0.032 5.6-3.008 10.368-7.488 12.544-0.992 0.544-1.984 1.024-4.32 2.144-22.016 10.624-45.568 17.152-70.016 19.488-6.592 0.64-13.12 0.896-19.616 0.896-33.952 0-67.424-8.48-97.248-24.544-23.84 12.512-49.6 20.192-76.64 22.752z" />
<glyph unicode="&#xe412;" glyph-name="file-libreoffice" d="M921.12 600.64l-320.512 320.512c-21.152 21.12-63.424 38.848-93.696 38.848h-388.032c-30.304 0-54.88-24.576-54.88-54.848v-914.272c0-30.304 24.576-54.88 54.88-54.88h786.24c30.304 0 54.88 24.576 54.88 54.88v516.064c0 30.272-17.728 72.544-38.88 93.696zM888.864 7.136h-753.728v881.76h371.776c11.168 0 35.488-10.112 43.392-18.016l320.544-320.512c7.936-7.936 18.016-32.288 18.016-43.392v-499.84zM378.976 523.2v-440.896h284.32v90.080h-190.368v350.816h-93.952zM703.072 960c-10.72 0.288-21.312-6.432-25.504-16.16-4.192-9.76-1.76-21.92 5.92-29.344l230.336-231.104c7.456-7.456 19.52-9.92 29.376-5.984 9.792 3.904 16.704 13.984 16.8 24.448v231.488c0.032 13.984-12.864 26.656-27.008 26.656h-229.92z" />
<glyph unicode="&#xe413;" glyph-name="file-eml" d="M921.152 742.848l-178.304 178.272c-21.12 21.152-63.424 38.88-93.696 38.88h-530.304c-30.272 0-54.848-24.576-54.848-54.88v-914.24c0-30.304 24.576-54.88 54.848-54.88h786.304c30.272 0 54.848 24.576 54.848 54.88v658.272c0 30.272-17.728 72.576-38.848 93.696zM667.424 882.272c9.728-3.424 19.392-8.576 23.392-12.576l178.88-178.848c4-4 9.12-13.728 12.576-23.424h-214.848v214.848zM886.848 9.152h-749.696v877.696h457.12v-237.696c0-30.304 24.576-54.88 54.88-54.88h237.696v-585.12zM716.8 506.528h-409.6c-28.192 0-50.976-23.104-50.976-51.232l-0.224-307.2c0-28.224 23.008-51.232 51.2-51.232h409.6c28.16 0 51.232 23.008 51.232 51.232v307.2c0 28.128-23.072 51.232-51.232 51.232zM688.896 447.328l-176.864-110.56-176.928 110.56h353.792zM708.8 156.128h-393.6v233.568l196.8-123.008 196.768 123.008v-233.568z" />
<glyph unicode="&#xe414;" glyph-name="file-autocad" d="M921.152 742.848l-178.272 178.272c-21.152 21.152-63.456 38.88-93.76 38.88h-530.272c-30.272 0-54.848-24.576-54.848-54.88v-914.24c0-30.304 24.576-54.88 54.848-54.88h786.272c30.304 0 54.88 24.576 54.88 54.88v658.272c0 30.272-17.696 72.576-38.848 93.696zM667.424 882.272c9.728-3.424 19.424-8.576 23.424-12.576l178.848-178.848c4-4 9.152-13.728 12.608-23.424h-214.88v214.848zM886.88 9.152h-749.728v877.696h457.184v-237.696c0-30.304 24.576-54.88 54.816-54.88h237.76v-585.12zM558.88 527.712h-98.24c0 0-108.128-222.752-150.304-432.64l21.568-10.944 52.832-4.448c0 0 40.864 22.688 40.928 24.576 1.504 37.152 4.48 64.512 8.448 86.816l152.128 19.808c10.688-41.184 18.304-80.8 18.752-109.632l32-20.8 52.128 5.216 24.576 8.16c-21.344 138.208-123.584 393.216-154.816 433.888zM455.968 266.976c2.496 6.72 5.056 13.664 7.68 21.12 23.808 67.488 40.672 120.576 49.12 120.576 4.768 0 21.376-37.12 39.264-87.2l-96.064-54.496z" />
<glyph unicode="&#xe501;" glyph-name="facebook" d="M590.816-64h-211.808v512h-105.888v176.48h105.888v105.92c0 143.968 59.744 229.6 229.536 229.6h141.376v-176.48h-88.352c-66.080 0-70.496-24.672-70.496-70.688l-0.256-88.32h160.096l-18.72-176.512h-141.376v-512z" />
<glyph unicode="&#xe502;" glyph-name="twitter" d="M1024 765.6c-37.696-16.704-78.144-28.064-120.672-33.12 43.392 25.984 76.672 67.2 92.384 116.224-40.576-24.064-85.536-41.6-133.408-50.944-38.304 40.8-92.896 66.304-153.312 66.304-116.064 0-210.080-94.080-210.080-210.080 0-16.48 1.856-32.48 5.44-47.936-174.656 8.832-329.472 92.448-433.056 219.552-18.080-31.040-28.48-67.104-28.48-105.6 0-72.864 37.12-137.216 93.472-174.88-34.432 1.12-66.848 10.56-95.168 26.304 0-0.864 0-1.76 0-2.656 0-101.856 72.384-186.72 168.48-205.984-17.6-4.8-36.16-7.36-55.328-7.36-13.568 0-26.688 1.28-39.52 3.776 26.752-83.52 104.32-144.256 196.288-145.952-71.936-56.32-162.528-89.92-260.96-89.92-16.96 0-33.664 0.928-50.080 2.944 92.96-59.68 203.36-94.4 321.984-94.4 386.432 0 597.76 320.096 597.76 597.696 0 9.12-0.192 18.176-0.64 27.2 41.088 29.632 76.736 66.656 104.896 108.832z" />
<glyph unicode="&#xe503;" glyph-name="google" d="M1012.256 476.032c-1.568 22.88-4.32 45.664-8.32 68.224-160.384 0-321.088 0-481.536 0 0-66.656 0-133.28-0.32-199.84 0.096 0 0.192 0 0.32 0 0-0.096 0-0.192 0-0.288 92.864 0 185.792 0 278.656 0-10.752-63.712-48.64-121.856-102.080-157.856-0.064 0-0.128 0.096-0.192 0.192-33.856-22.944-72.672-37.472-112.8-44.672-40.512-6.816-82.016-8-122.208 0.288-40.736 8.32-79.808 25.376-113.92 49.28-47.84 33.568-85.44 80.672-108.48 134.432-3.104 7.232-5.952 14.624-8.512 22.112-0.032 0.224-0.064 0.416-0.096 0.512 0.096 0.096 0.224 0.288 0.384 0.416-21.952 63.616-21.984 134.624-0.16 198.656 15.392 44.96 40.704 86.496 74.176 120.576 41.312 42.336 94.944 72.672 153.024 85.024 49.568 10.496 101.856 8.544 150.272-6.048 41.28-12.352 79.296-35.264 110.368-64.928 31.36 31.36 62.752 62.72 94.112 94.144 16.512 16.768 33.824 33.024 49.824 50.272-0.064 0.032-0.128 0.16-0.192 0.192 0.064 0.032 0.128 0.032 0.192 0.096-47.936 44.352-103.744 79.52-164.864 102.144-110.080 40.448-234.208 41.28-344.832 3.040-124.672-42.72-230.944-135.968-290.080-254.048-20.64-40.736-35.488-83.968-44.608-128.768-22.56-111.264-6.88-229.856 44.288-331.136 33.312-66.016 81.184-124.96 139.008-170.912 54.752-43.392 118.336-76 186.016-93.856 85.312-22.848 176.16-22.336 262.016-2.752 77.6 17.888 151.104 55.040 209.728 108.96 61.952 56.96 106.176 131.808 129.568 212.512 19.232 65.984 25.92 135.328 21.248 204.032z" />
<glyph unicode="&#xe504;" glyph-name="linkedin" d="M517.12 449.76v1.6c-0.32-0.544-0.672-1.056-0.992-1.6h0.992zM162.592 567.712h153.696v-462.336h-153.696v462.336zM239.456 630.88h-1.024c-51.584 0-84.896 35.52-84.896 79.904 0 45.344 34.368 79.872 86.912 79.872 52.608 0 84.928-34.528 85.984-79.872 0-44.384-33.376-79.904-86.976-79.904zM870.496 105.376h-153.696v247.392c0 62.112-22.176 104.544-77.824 104.544-42.496 0-67.744-28.608-78.88-56.224-4.064-9.888-5.056-23.648-5.056-37.504v-258.208h-153.728c0 0 2.016 419.008 0 462.336h153.728v-65.44c20.448 31.488 56.928 76.384 138.496 76.384 101.12 0 176.928-66.080 176.928-208.16v-265.12z" />
<glyph unicode="&#xe505;" glyph-name="pinterest" d="M535.968 960c-279.424 0-420.32-200.352-420.32-367.424 0-101.184 38.304-191.168 120.448-224.704 13.472-5.504 25.536-0.192 29.44 14.72 2.72 10.304 9.152 36.384 12 47.2 3.936 14.752 2.4 19.936-8.448 32.8-23.68 27.936-38.816 64.096-38.816 115.328 0 148.64 111.232 281.696 289.568 281.696 157.952 0 244.736-96.512 244.736-225.408 0-169.6-75.072-312.704-186.496-312.704-61.504 0-107.584 50.912-92.8 113.28 17.664 74.528 51.936 154.944 51.936 208.704 0 48.128-25.888 88.32-79.328 88.32-62.912 0-113.408-65.088-113.408-152.256 0-55.52 18.752-93.056 18.752-93.056s-64.384-272.736-75.68-320.48c-22.464-95.136-3.36-211.744-1.76-223.488 0.96-7.008 9.92-8.672 13.984-3.36 5.792 7.552 80.704 100.064 106.176 192.48 7.2 26.144 41.376 161.696 41.376 161.696 20.448-39.008 80.16-73.312 143.648-73.312 189.12 0 317.376 172.352 317.376 403.072 0 174.4-147.744 336.896-372.384 336.896z" />
<glyph unicode="&#xe506;" glyph-name="youtube" d="M1002.624 704.064c-11.808 44.352-46.496 79.264-90.56 91.136-79.84 21.536-400.064 21.536-400.064 21.536s-320.224 0-400.064-21.536c-44.064-11.872-78.752-46.784-90.56-91.136-21.376-80.384-21.376-256.064-21.376-256.064s0-175.68 21.376-256.064c11.808-44.352 46.496-79.264 90.56-91.136 79.84-21.504 400.064-21.504 400.064-21.504s320.224 0 400.064 21.536c44.064 11.872 78.752 46.784 90.56 91.136 21.376 80.352 21.376 256.032 21.376 256.032s0 175.68-21.376 256.064zM407.264 295.744v304.512l267.648-152.256-267.648-152.256z" />
<glyph unicode="&#xe507;" glyph-name="vimeo" d="M0 651.648l41.568-54.528c0 0 85.824 67.552 114.4 33.824 28.608-33.824 137.696-441.92 174.176-517.312 31.808-65.984 119.52-153.312 215.744-91.008 96.128 62.368 415.808 335.36 472.992 657.6 57.248 322.24-384.672 254.784-431.488-25.952 116.992 70.208 179.424-28.608 119.552-140.416-59.744-111.712-114.304-184.576-142.88-184.576-28.544 0-50.528 74.752-83.232 205.472-33.824 135.104-33.6 378.4-174.144 350.848-132.544-26.016-306.688-233.952-306.688-233.952z" />
<glyph unicode="&#xe508;" glyph-name="instagram" d="M512 960c-139.072 0-156.512-0.576-211.104-3.072-54.496-2.496-91.712-11.104-124.256-23.808-33.696-13.056-62.272-30.56-90.688-59.072-28.48-28.416-45.984-56.992-59.072-90.688-12.672-32.576-21.312-69.76-23.808-124.256-2.464-54.592-3.072-72.032-3.072-211.104 0-139.040 0.608-156.48 3.072-211.072 2.496-54.496 11.168-91.744 23.808-124.32 13.088-33.664 30.592-62.176 59.072-90.688 28.448-28.448 56.992-45.952 90.688-59.072 32.576-12.64 69.792-21.312 124.288-23.776 54.56-2.432 72-3.072 211.072-3.072s156.512 0.64 211.104 3.104c54.496 2.464 91.712 11.168 124.288 23.776 33.696 13.12 62.208 30.624 90.688 59.072 28.48 28.512 45.984 57.024 59.072 90.688 12.672 32.576 21.312 69.824 23.808 124.32 2.432 54.56 3.040 72 3.040 211.040 0 139.072-0.608 156.512-3.072 211.136-2.496 54.496-11.168 91.68-23.808 124.256-13.088 33.696-30.592 62.24-59.072 90.688-28.48 28.512-56.992 46.016-90.688 59.072-32.576 12.672-69.792 21.312-124.288 23.808-54.56 2.464-72 3.040-211.072 3.040v0 0zM512 867.744c136.672 0 152.896-0.512 206.88-2.976 49.952-2.272 77.056-10.624 95.072-17.632 23.936-9.28 40.992-20.416 58.88-38.304 17.952-17.92 29.024-34.976 38.304-58.848 7.008-18.048 15.36-45.184 17.632-95.104 2.464-53.984 3.008-70.176 3.008-206.912 0-136.672-0.544-152.864-3.008-206.88-2.24-49.952-10.624-77.024-17.632-95.072-9.28-23.904-20.384-40.96-38.304-58.88-17.888-17.952-34.944-28.992-58.88-38.304-17.984-7.008-45.12-15.328-95.072-17.632-53.984-2.4-70.176-2.944-206.88-2.944s-152.896 0.576-206.88 3.008c-49.952 2.272-77.056 10.624-95.104 17.632-23.904 9.312-40.96 20.384-58.848 38.304-17.952 17.92-29.024 34.976-38.304 58.88-7.008 18.016-15.36 45.12-17.632 95.072-2.496 53.984-2.976 70.176-2.976 206.848 0 136.704 0.512 152.928 3.008 206.912 2.24 49.92 10.624 77.024 17.632 95.104 9.28 23.872 20.384 40.928 38.304 58.848 17.888 17.92 34.944 29.024 58.848 38.304 18.016 7.008 45.152 15.328 95.104 17.632 53.952 2.464 70.176 2.944 206.848 2.944zM512 277.344c-94.24 0-170.688 76.416-170.688 170.656 0 94.272 76.448 170.688 170.688 170.688s170.688-76.416 170.688-170.688c0-94.24-76.448-170.656-170.688-170.656v0zM512 710.944c-145.184 0-262.944-117.728-262.944-262.944 0-145.184 117.76-262.912 262.944-262.912s262.944 117.728 262.944 262.912c0 145.216-117.76 262.944-262.944 262.944v0zM846.752 721.312c0-33.952-27.488-61.44-61.44-61.44s-61.44 27.488-61.44 61.44 27.488 61.44 61.44 61.44 61.44-27.488 61.44-61.44v0z" />
<glyph unicode="&#xe509;" glyph-name="addthis" d="M992 560h-368v368c0 17.664-14.304 32-32 32h-160c-17.664 0-32-14.336-32-32v-368h-368c-17.664 0-32-14.336-32-32v-160c0-17.696 14.336-32 32-32h368v-368c0-17.696 14.336-32 32-32h160c17.696 0 32 14.304 32 32v368h368c17.696 0 32 14.304 32 32v160c0 17.664-14.304 32-32 32z" />
<glyph unicode="&#xe510;" glyph-name="share" d="M820.448 236.192c-39.072 0-73.984-15.392-100.736-39.52l-366.496 213.28c2.56 11.84 4.64 23.648 4.64 36s-2.048 24.192-4.64 36l362.368 211.264c27.744-25.696 64.256-41.632 104.864-41.632 85.376 0 154.24 68.864 154.24 154.208s-68.864 154.208-154.24 154.208c-85.312 0-154.176-68.864-154.176-154.208 0-12.352 2.048-24.16 4.64-36l-362.464-211.264c-27.744 25.696-64.256 41.632-104.864 41.632-85.312 0-154.176-68.864-154.176-154.208s68.864-154.208 154.176-154.208c40.64 0 77.12 15.968 104.864 41.696l366.016-213.888c-2.56-10.848-4.064-22.080-4.064-33.44 0-82.72 67.328-150.080 150.048-150.080s150.112 67.36 150.112 150.080c0 82.72-67.36 150.080-150.112 150.080z" />
<glyph unicode="&#xe511;" glyph-name="flickr" d="M914.272 960h-804.544c-60.576 0-109.728-49.152-109.728-109.728v-804.576c0-60.544 49.152-109.696 109.728-109.696h804.576c60.544 0 109.696 49.152 109.696 109.728v804.544c0 60.576-49.152 109.728-109.728 109.728zM330.272 304c-80.224 0-145.12 64.928-145.12 145.152s64.896 145.12 145.12 145.12 145.152-64.896 145.152-145.12-64.928-145.152-145.152-145.152zM693.728 304c-80.224 0-145.152 64.928-145.152 145.152s64.928 145.12 145.152 145.12 145.12-64.896 145.12-145.12-64.896-145.152-145.12-145.152z" />
<glyph unicode="&#xe512;" glyph-name="tripadvisor" d="M256.128 305.376c50.048 0 90.752 40.672 90.752 90.784 0 50.080-40.64 90.752-90.752 90.752-50.144 0-90.784-40.608-90.784-90.752v0c0-50.144 40.672-90.752 90.784-90.784zM858.56 396.128c0-50.121-40.631-90.752-90.752-90.752s-90.752 40.631-90.752 90.752c0 50.121 40.631 90.752 90.752 90.752s90.752-40.631 90.752-90.752zM0.256 396.16c0-141.344 114.56-255.84 255.872-255.84 64.448-0.096 126.624 24.288 173.824 68.192l82.048-89.248 81.984 89.216c47.264-43.904 109.312-68.256 173.824-68.16 141.312 0 256 114.56 256 255.84 0.064 71.968-30.24 140.672-83.552 189.056l83.744 91.136h-185.632c-196.736 133.92-455.424 133.92-652.256 0h-186.112l83.744-91.136c-53.248-48.416-83.584-117.088-83.488-189.056zM940.928 396.16c0-95.616-77.504-173.152-173.12-173.152s-173.184 77.536-173.184 173.152 77.568 173.12 173.184 173.12 173.12-77.504 173.12-173.12v0zM511.968 693.056c65.984 0.096 131.36-12.96 192.224-38.432-109.312-41.792-192.096-139.552-192.096-253.472 0 113.952-82.88 211.68-192.192 253.504 60.8 25.408 126.112 38.464 192.064 38.4zM256.128 569.28c95.616 0 173.12-77.504 173.12-173.12s-77.504-173.152-173.12-173.152c-95.648 0-173.184 77.536-173.184 173.152s77.536 173.12 173.184 173.12v0z" />
<glyph unicode="&#xe513;" glyph-name="okta" d="M128.768 533.888c-71.168 0-128.768-57.6-128.768-128.768 0-71.2 57.6-128.768 128.768-128.768s128.736 57.6 128.736 128.768c0.032 71.168-57.568 128.768-128.736 128.768zM128.768 340.608c-35.584 0-64.544 28.928-64.544 64.544s28.928 64.512 64.544 64.512c35.552 0 64.512-28.896 64.512-64.512s-28.928-64.544-64.512-64.544zM355.072 361.856c0 10.24 12.32 15.136 19.456 7.936 32.256-32.736 85.504-89.056 85.76-89.344 0.768-0.736 1.536-2.016 4.64-3.072 1.28-0.512 3.328-0.512 5.632-0.512h58.080c10.496 0 13.6 12.032 8.704 18.144l-96.256 98.56-5.12 5.12c-11.008 13.056-9.728 18.176 2.816 31.488l76.288 85.248c4.864 6.112 1.824 17.92-8.928 17.92h-52.736c-2.048 0-3.584 0-5.12-0.512-3.072-1.024-4.352-2.048-5.12-3.104-0.256-0.256-42.496-45.824-68.608-73.728-7.168-7.68-19.968-2.56-19.968 7.936v146.144c0 7.424-6.144 10.272-11.008 10.272h-43.040c-7.392 0-11.008-4.896-11.008-9.248v-324.096c0-7.392 6.144-9.472 11.296-9.472h43.008c6.656 0 11.008 4.864 11.008 9.76v74.496h0.224zM706.304 288.64l-4.64 43.040c-0.512 5.888-6.112 9.984-12.032 8.928-3.328-0.512-6.656-0.736-9.984-0.736-34.304 0-62.208 26.88-64.256 60.928 0 0.992 0 2.272 0 3.552v52.736c0 6.912 5.088 12.544 12.032 12.544h57.6c4.096 0 10.208 3.584 10.208 11.008v40.704c0 7.936-5.088 12.032-9.728 12.032h-58.080c-6.656 0-12.032 4.864-12.32 11.52v65.248c0 4.096-3.072 10.272-11.008 10.272h-42.752c-5.376 0-10.496-3.328-10.496-9.984 0 0 0-208.672 0-209.664 1.824-69.664 58.88-125.184 128.768-125.184 5.888 0 11.488 0.512 17.152 1.28 6.208 0.768 10.304 5.888 9.536 11.776zM1016.576 342.656c-36.352 0-41.984 13.056-41.984 61.952 0 0.288 0 0.288 0 0.544v117.504c0 4.096-3.072 11.008-11.296 11.008h-42.976c-5.376 0-11.264-4.352-11.264-11.008v-5.376c-18.688 10.752-40.48 16.896-63.488 16.896-71.168 0-128.736-57.632-128.736-128.768s57.6-128.768 128.736-128.768c32 0 61.184 11.776 83.712 31.008 12.032-18.432 31.488-30.72 61.952-31.008 5.12 0 32.768-0.992 32.768 12.032v45.856c0 3.776-3.072 8.128-7.424 8.128zM845.824 340.608c-35.552 0-64.512 28.928-64.512 64.544s28.928 64.512 64.512 64.512c35.584 0 64.544-28.896 64.544-64.512-0.288-35.616-29.216-64.544-64.544-64.544z" />
<glyph unicode="&#xe600;" glyph-name="degree" d="M732.288 183.712c-92.32 39.744-79.68 63.84-83.008 96.8-0.512 4.736-0.736 9.856-0.928 15.008 27.68 26.464 50.432 60.896 65.632 100.128 0 0 0.864 2.176 1.12 2.848 3.552 9.408 6.688 19.232 9.376 29.184 21.184 4.192 33.504 26.656 38.176 47.424 4.736 8.384 14.688 29.12 12.384 52.64-2.88 30.24-15.36 44.256-29.44 50.080 0 0.448 0 0.8 0 1.216 8.736 29.12 17.056 59.040 18.112 105.984 0.064 3.296-0.48 6.208-0.576 9.408l-251.136-83.712-254.4 84.8c-2.912-38.688 5.728-78.304 17.216-118.816-12.992-6.432-24.32-20.512-27.072-48.992-2.24-23.488 7.616-44.256 12.384-52.64 4.8-21.12 17.504-44.032 39.328-47.616 2.752-10.016 5.888-19.872 9.504-29.376 0.192-0.608 0.448-1.184 0.672-1.824l0.384-0.8c15.488-40 38.88-75.072 67.36-101.728-0.128-4.576-0.448-9.024-0.864-13.216-3.328-32.96 6.368-57.056-85.888-96.8-92.32-39.744-242.88-82.112-271.328-146.080-28.384-63.968-17.088-101.632-17.088-101.632h1019.488c0 0 11.488 37.664-16.992 101.632-28.416 64-180.096 106.336-272.416 146.080zM960.032 810.688l-448 149.312-448-149.312 448-149.344 320 106.688v-309.344l32 32 32-32v330.656z" />
<glyph unicode="&#xe601;" glyph-name="wrench" d="M1010.624 124.96l-422.976 422.976c41.856 106.88 18.624 232.352-69.728 320.672-92.928 92.928-232.352 111.52-343.872 60.384l199.84-199.84-139.424-139.424-204.544 199.84c-55.712-111.52-32.512-250.944 60.48-343.904 88.288-88.32 213.792-111.52 320.672-69.728l422.944-422.944c18.56-18.56 46.464-18.56 65.024 0l106.912 106.88c23.232 18.624 23.232 51.168 4.672 65.088z" />
<glyph unicode="&#xe602;" glyph-name="wrench-bolt" d="M704 960v-327.136l-192-142.72-192.032 142.72v327.136c-96.256-62.848-159.968-171.456-159.968-295.104 0-136.864 78.080-255.232 192-313.568v-415.328h320v415.328c113.92 58.336 192 176.672 192 313.568 0 123.648-63.744 232.256-160 295.104zM649.504 658.976l-137.504-102.176-137.504 102.176v148.672l137.504 79.488 137.504-79.488z" />
<glyph unicode="&#xe603;" glyph-name="wrench-screwdriver" d="M737.792 373.632l-24.992 58.976-36.704 34.4 53.056 53.056c78.016-25.152 167.040-6.976 228.992 54.976 61.952 62.016 80.128 150.912 54.912 228.992l-156.48-156.448-144.96 144.992 156.448 156.48c-78.016 25.184-166.976 7.008-228.928-54.912-61.984-62.016-80.192-150.976-54.976-229.024l-118.176-118.144-253.888 253.696-18.016 84.896-102.656 67.168-83.040-84.32 67.008-102.784 83.744-16.928 254.368-254.208-383.488-383.456c-40-40.064-40.032-104.928 0-144.992 40.064-40.064 104.992-40.064 144.992 0l317.344 317.312 34.976-35.104 55.264-27.328 213.6-240.256c49.504-50.784 131.040-49.472 180.576 1.152 52.064 51.968 52.064 135.744-1.12 187.776l-237.856 204.032zM129.92 7.936c-15.968-16.032-41.952-16.032-57.984 0-16.032 16-16 41.984-0.032 57.984 16 15.936 41.984 16 57.984 0 16.032-16 16.032-42.048 0.032-57.984z" />
<glyph unicode="&#xe604;" glyph-name="home" d="M409.6 12.768v307.232h204.8v-307.232h256v409.632h153.6l-512 460.8-512-460.8h153.6v-409.632h256z" />
<glyph unicode="&#xe605;" glyph-name="man-smile" d="M1004.704 37.632c-28.512 64-180.192 106.336-272.448 146.080-92.32 39.744-79.68 63.84-83.008 96.8-0.512 4.736-0.8 9.856-0.992 15.008 27.744 26.464 50.496 60.896 65.696 100.128 0 0 0.864 2.176 1.12 2.848 3.552 9.408 6.688 19.232 9.376 29.216 21.184 4.16 33.504 26.656 38.176 47.392 4.736 8.416 14.624 29.12 12.384 52.64-2.944 30.272-15.424 44.256-29.504 50.112 0 0.448 0 0.8 0 1.248 8.8 29.088 17.12 59.008 18.176 105.984 0.8 37.28-10.432 66.528-31.264 97.728-2.944 4.384-103.072 134.592-103.552 139.552-3.136-6.56 1.056-35.232-18.624-29.248 2.496-0.736 12.8 15.68 3.008 34.848-4.8-17.152-16.672-27.648-35.744-31.456 8.448 7.488 14.112 16.768 16.992 27.84-9.184-10.112-21.12-13.952-35.744-11.488-0.32 9.696 3.136 18.368 10.304 26.016-10.944-7.424-23.264-11.456-36.864-12.096-3.008 11.040-2.176 21.92 2.368 32.672-12.32-14.656-27.616-25.344-45.952-32.032-7.072 9.6-7.072 20.48 0 32.672-8.64-14.624-19.328-27.52-32.064-38.72-3.936 8.672-6.368 17.728-7.328 27.232-33.76-58.464-96.32-102.144-145.984-147.84-63.104-70.816-50.624-145.792-28.448-223.936-13.024-6.432-24.32-20.48-27.072-48.992-2.24-23.52 7.616-44.224 12.384-52.64 4.8-21.12 17.504-44 39.328-47.584 2.72-10.048 5.888-19.904 9.472-29.376 0.224-0.608 0.48-1.184 0.704-1.824l0.352-0.8c15.52-40 38.912-75.072 67.392-101.728-0.16-4.576-0.448-9.024-0.864-13.216-3.328-32.96 6.368-57.056-85.92-96.8s-242.848-82.112-271.296-146.080c-28.384-64.128-17.024-101.792-17.024-101.792h1019.488c0 0 11.424 37.664-17.024 101.632zM354.496 601.408c0 35.328 21.472 64 48 64s48-28.672 48-64c0-35.328-21.504-64-48-64s-48 28.672-48 64zM512 325.888c-61.888 0-112 50.144-112 112h223.968c0-61.856-50.112-112-111.968-112zM580.352 601.408c0 35.328 21.504 64 48 64s48-28.672 48-64c0-35.328-21.504-64-48-64s-48 28.672-48 64z" />
<glyph unicode="&#xe606;" glyph-name="media" d="M102.4 755.2h-102.4v-716.8c0-56.32 46.080-102.4 102.4-102.4h716.8v102.4h-716.8v716.8zM921.568 960h-614.368c-56.32 0-102.4-46.048-102.4-102.432v-614.368c0-56.32 46.080-102.4 102.4-102.4h614.368c56.32 0 102.432 46.080 102.432 102.4v614.368c0 56.384-46.112 102.432-102.432 102.432zM494.368 358.368v384l272-192-272-192z" />
<glyph unicode="&#xe607;" glyph-name="lightbulb" d="M512.096 960c-24.768 0-50.112-2.144-75.424-7.552-148.768-28.544-267.328-148.704-295.36-297.504-25.888-140.64 25.856-270.016 119.616-353.568 23.2-20.448 35.584-48.992 35.584-79.2v-124.512c0-59.264 48.512-107.808 107.808-107.808h15.072c18.88-32.32 52.8-53.888 92.704-53.888s74.368 21.568 92.704 53.888h15.072c59.296 0 107.808 48.576 107.808 107.808v124.512c0 29.568 11.872 58.752 34.496 78.624 78.112 69.056 127.2 169.824 127.2 281.92 0 208.608-168.704 377.28-377.28 377.28zM632.128 61.888h-240v80h240v-80zM632.128 203.36h-240v80h240v-80zM543.328 545.024v-161.824h-62.464v161.824l-114.4 113.76 44.384 44.384 101.248-101.28 101.28 101.28 44.352-44.384-114.4-113.76z" />
<glyph unicode="&#xe608;" glyph-name="lightbulb-outline" d="M512.064 960c-24.736 0-50.112-2.144-75.424-7.552-148.768-28.544-267.328-148.736-295.328-297.504-25.888-140.672 25.856-270.016 119.616-353.568 23.2-20.448 35.584-48.992 35.584-79.168v-124.544c0-59.264 48.512-107.808 107.808-107.808h15.072c18.88-32.32 52.8-53.888 92.672-53.888 39.936 0 74.368 21.568 92.736 53.888h15.072c59.264 0 107.808 48.576 107.808 107.808v124.544c0 29.568 11.872 58.72 34.496 78.624 78.112 68.992 127.2 169.792 127.2 281.888 0 208.608-168.704 377.28-377.312 377.28zM619.872 85.888h-215.552c-6.304 0-11.808 5.504-11.808 11.808v81.696h239.168v-81.696c-0.032-6.336-5.536-11.808-11.808-11.808zM698.624 372.8c-33.312-29.312-55.328-69.44-63.36-113.44h-246.4c-8.224 43.872-30.56 84.16-64.448 113.984-73.728 65.696-107.008 164.608-88.672 264.192 20.832 110.656 108.864 199.456 219.040 220.608 18.848 4.032 37.472 5.856 57.28 5.856 155.136 0 281.312-126.176 281.312-281.28 0-80.224-34.56-156.736-94.752-209.92zM543.328 529.024v-161.856h-62.496v161.856l-114.368 113.76 44.352 44.384 101.248-101.28 101.28 101.28 44.352-44.384z" />
<glyph unicode="&#xe609;" glyph-name="barcode" d="M0 896h64v-896h-64v896zM96 896h32v-736h-32v736zM192 896h128v-736h-128v736zM384 896h64v-736h-64v736zM512 896h32v-736h-32v736zM608 896h64v-736h-64v736zM736 896h96v-736h-96v736zM896 896h32v-736h-32v736zM960 896h64v-896h-64v896z" />
<glyph unicode="&#xe610;" glyph-name="barcode-label" d="M0 896v-896h1024v896h-1024zM224 128h-64v640h64v-640zM352 256h-96v512h96v-512zM416 256h-32v512h32v-512zM544 256h-64v512h64v-512zM672 256h-64v512h64v-512zM768 256h-32v512h32v-512zM864 128h-64v640h64v-640z" />
<glyph unicode="&#xe611;" glyph-name="price" d="M973.024 909.056c-36.256 36.192-84.992 52.896-134.592 50.752l-0.032-1.056c-1.024 0.096-1.888 0.576-2.912 0.576-18.624 0-33.728-15.072-33.728-33.696s15.072-33.696 33.728-33.728c33.344 3.040 66.080-6.816 89.824-30.56 46.048-46.016 40.736-126.080-11.872-178.752-8.544-8.544-17.984-15.36-27.712-21.408l-8.064 104.832-47.648 47.648-309.792 23.872-500.64-500.64c-26.144-26.368-26.112-68.928 0.128-95.2l285.984-286.016c26.24-26.24 68.832-26.272 95.2-0.128l500.608 500.64-10.144 132.096c25.12 10.496 48.96 25.856 69.76 46.624 78.912 79.040 84.32 201.728 11.904 274.144zM734.656 670.688c-13.184 13.184-34.496 13.184-47.648 0-13.152-13.152-13.152-34.496 0-47.68 26.368-26.432 59.552-42.176 94.752-48.128-39.424-38.912-103.072-38.816-142.4 0.448-39.456 39.52-39.424 103.552 0 142.976 39.488 39.488 103.488 39.488 142.976 0 21.536-21.472 30.912-50.24 28.992-78.4-28.704 0.48-56.064 10.24-76.672 30.784z" />
<glyph unicode="&#xe612;" glyph-name="medal-sport" d="M656 256c0-79.529-64.471-144-144-144s-144 64.471-144 144c0 79.529 64.471 144 144 144s144-64.471 144-144zM676.416 530.176l248.16 429.824h-92.384l-218.592-378.592-55.456 96.032 163.168 282.56h-92.352l-116.96-202.624-116.96 202.624h-92.352l222.080-384.672c-4.256 0.192-8.448 0.672-12.768 0.672-31.552 0-62.016-4.736-90.816-13.28l-229.376 397.28h-92.384l248.16-429.824c-93.088-55.968-155.584-157.6-155.584-274.176 0-176.736 143.264-320 320-320s320 143.264 320 320c0 116.576-62.496 218.208-155.584 274.176zM512 16c-132.544 0-240 107.456-240 240s107.456 240 240 240 240-107.456 240-240-107.456-240-240-240z" />
<glyph unicode="&#xe613;" glyph-name="zoom-in" d="M731.84 315.968h-46.24l-16.416 15.776c57.376 66.784 91.936 153.472 91.936 247.68 0 210.208-170.4 380.576-380.544 380.576-210.208 0-380.576-170.368-380.576-380.576 0-210.144 170.368-380.576 380.576-380.576 94.208 0 180.896 34.56 247.68 91.936l15.776-16.416v-46.24l292.704-292.128 87.264 87.264-292.16 292.704zM380.576 315.968c-145.824 0-263.456 117.696-263.456 263.456 0 145.824 117.664 263.456 263.456 263.456s263.456-117.664 263.456-263.456c0-145.76-117.696-263.456-263.456-263.456zM526.944 550.144h-117.088v-117.088h-58.56v117.088h-117.12v58.56h117.088v117.12h58.56v-117.088h117.088v-58.592z" />
<glyph unicode="&#xe614;" glyph-name="zoom-out" d="M731.84 315.968h-46.24l-16.416 15.776c57.376 66.784 91.936 153.472 91.936 247.68 0 210.208-170.4 380.576-380.544 380.576-210.208 0-380.576-170.368-380.576-380.576 0-210.144 170.368-380.576 380.576-380.576 94.208 0 180.896 34.56 247.68 91.936l15.776-16.416v-46.24l292.704-292.128 87.264 87.264-292.16 292.704zM380.576 315.968c-145.824 0-263.456 117.696-263.456 263.456 0 145.824 117.664 263.456 263.456 263.456s263.456-117.664 263.456-263.456c0-145.76-117.696-263.456-263.456-263.456zM234.176 608.704h292.736v-58.56h-292.736v58.56z" />
<glyph unicode="&#xe615;" glyph-name="jsonapi" d="M0 478.688c13.632 0 25.28 2.4 34.944 7.264 9.696 4.8 17.792 11.072 24.32 18.752s11.328 16.512 14.464 26.432 4.704 20.032 4.704 30.24v172.864c0 23.296 2.56 44.032 7.648 62.24 5.12 18.176 13.952 33.376 26.432 45.6 12.512 12.224 29.12 21.6 49.888 28.128s46.464 9.792 77.152 9.792h3.392v-62.24c-32.384 0-55.552-5.856-69.504-17.472-13.888-11.648-20.832-33.952-20.832-66.912v-150.656c0-37.504-4.96-66.528-14.912-86.944-9.984-20.48-24-36.416-42.208-47.744 18.208-11.36 32.256-27.328 42.208-47.776s14.912-49.44 14.912-86.944v-150.688c0-32.928 6.976-55.264 20.864-66.944 13.952-11.616 37.12-17.44 69.504-17.44v-62.24h-3.424c-30.688 0-56.416 3.136-77.152 9.376s-37.376 15.616-49.888 28.128-21.312 27.872-26.432 46.048c-5.088 18.176-7.648 38.944-7.648 62.24v172.8c0 10.176-1.6 20.32-4.704 30.24s-7.936 18.752-14.464 26.432-14.624 13.952-24.32 18.752c-9.664 4.864-21.312 7.328-34.944 7.328v61.344zM1024 417.344c-13.632 0-25.248-2.464-34.944-7.264-9.632-4.8-17.76-11.072-24.32-18.752-6.496-7.68-11.36-16.512-14.496-26.432s-4.64-20.064-4.64-30.24v-172.8c0-23.328-2.56-44.064-7.68-62.24s-13.952-33.568-26.432-46.048-29.12-21.888-49.888-28.128-46.464-9.44-77.152-9.44h-3.36v62.24c32.384 0 55.552 5.824 69.44 17.44 13.952 11.68 20.864 33.984 20.864 66.944v150.688c0 37.504 4.992 66.496 15.008 86.944 9.888 20.448 24 36.384 42.176 47.776-18.176 11.328-32.32 27.296-42.176 47.744-9.984 20.448-15.008 49.44-15.008 86.944v150.656c0 32.96-6.944 55.264-20.864 66.912-13.888 11.648-37.056 17.472-69.44 17.472v62.24h3.36c30.688 0 56.448-3.264 77.184-9.824 20.736-6.528 37.376-15.904 49.888-28.128s21.312-27.424 26.432-45.6c5.12-18.208 7.68-38.944 7.68-62.24v-172.832c0-10.208 1.504-20.32 4.64-30.24s8-18.752 14.496-26.432c6.56-7.68 14.688-13.952 24.32-18.752 9.696-4.832 21.312-7.264 34.944-7.264v-61.344zM578.272 711.584c15.296 0 28.128 5.888 38.496 17.696 10.432 11.808 15.616 25.6 15.616 41.408 0 14.144-5.056 26.592-15.2 37.28-10.112 10.656-23.136 16-38.944 16-14.144 0-26.432-5.696-36.832-17.056s-15.584-24.704-15.584-39.968c0-14.432 5.184-27.264 15.584-38.496 10.432-11.264 22.72-16.864 36.864-16.864zM479.168 647.36c-13.088 0-23.68-10.592-23.68-23.68s10.592-23.68 23.68-23.68h34.048c19.584 0 35.488-15.904 35.488-35.52v-362.176c0-32.672-26.496-59.2-59.2-59.2s-59.232 26.496-59.232 59.2c0 19.616-15.904 35.488-35.52 35.488-19.584 0-35.488-15.872-35.488-35.488 0-71.936 58.304-130.24 130.24-130.24s130.24 58.304 130.24 130.24v439.232l-5.76 5.824h-134.816z" />
<glyph unicode="&#xe616;" glyph-name="cut" d="M391.2 671.232c11.744 25.568 18.4 53.76 18.4 83.968 0 113.152-91.648 204.8-204.8 204.8s-204.8-91.648-204.8-204.8 91.648-204.8 204.8-204.8c30.176 0 58.368 6.656 84 18.4l120.8-120.8-120.768-120.8c-25.632 11.744-53.824 18.4-84.032 18.4-113.152 0-204.8-91.648-204.8-204.8s91.648-204.8 204.8-204.8c113.12 0 204.768 91.648 204.768 204.8 0 30.176-6.656 58.368-18.4 84l120.832 120.8 358.4-358.4h153.6v51.2l-632.8 632.832zM204.8 652.8c-56.32 0-102.4 45.568-102.4 102.4s46.080 102.4 102.4 102.4c56.288 0 102.4-45.568 102.4-102.4s-46.112-102.4-102.4-102.4zM204.8 38.4c-56.32 0-102.4 45.6-102.4 102.4 0 56.768 46.080 102.368 102.4 102.368 56.288 0.032 102.4-45.568 102.4-102.368s-46.112-102.4-102.4-102.4zM512 422.4c-14.304 0-25.6 11.264-25.6 25.6s11.296 25.6 25.6 25.6 25.6-11.264 25.6-25.6-11.296-25.6-25.6-25.6zM870.4 908.8l-307.2-307.2 102.4-102.4 358.4 358.4v51.2h-153.6z" />
<glyph unicode="&#xe617;" glyph-name="duplicate" d="M721.44 960h-558.528c-51.2 0-93.12-41.92-93.12-93.088v-651.616h93.12v651.616h558.528v93.088zM861.12 773.824h-512c-51.2 0-93.12-41.92-93.12-93.12v-651.616c0-51.168 41.92-93.088 93.12-93.088h512c51.2 0 93.056 41.92 93.056 93.088v651.616c0 51.2-41.856 93.12-93.056 93.12z" />
<glyph unicode="&#xe618;" glyph-name="camera" d="M675.84 396.768c0-90.486-73.354-163.84-163.84-163.84s-163.84 73.354-163.84 163.84c0 90.486 73.354 163.84 163.84 163.84s163.84-73.354 163.84-163.84zM358.4 908.768l-93.728-102.4h-162.272c-56.32 0-102.4-46.080-102.4-102.4v-614.368c0-56.32 46.080-102.4 102.4-102.4h819.2c56.32 0 102.4 46.080 102.4 102.4v614.368c0 56.32-46.080 102.4-102.4 102.4h-162.272l-93.728 102.4h-307.2zM512 140.768c-141.312 0-256 114.688-256 256s114.688 256 256 256 256-114.688 256-256-114.688-256-256-256z" />
<glyph unicode="&#xe619;" glyph-name="collections" d="M102.4 755.2h-102.4v-716.8c0-56.32 46.080-102.4 102.4-102.4h716.8v102.4h-716.8v716.8zM921.6 960h-614.4c-56.288 0-102.4-46.080-102.4-102.4v-614.4c0-56.288 46.080-102.368 102.368-102.368h614.4c56.32 0 102.4 46.080 102.4 102.368v614.4c0.032 56.32-46.048 102.4-102.368 102.4zM460.8 640c35.328 0 64-28.64 64-64s-28.672-64-64-64-64 28.64-64 64c0 35.328 28.672 64 64 64zM307.2 243.2l153.6 204.8 103.872-138.752 152.128 189.952 204.768-256h-614.368z" />
<glyph unicode="&#xe620;" glyph-name="announcement" d="M921.6 960h-819.2c-56.32 0-101.888-46.080-101.888-102.4l-0.512-921.6 204.8 204.8h716.8c56.32 0 102.4 46.080 102.4 102.368v614.432c0 56.32-46.080 102.4-102.4 102.4zM563.2 499.2h-102.4v307.2h102.4v-307.2zM563.2 294.4h-102.4v102.4h102.4v-102.4z" />
<glyph unicode="&#xe621;" glyph-name="speaker-notes" d="M921.6 960h-819.2c-56.32 0-101.888-46.080-101.888-102.4l-0.512-921.6 204.8 204.8h716.8c56.32 0 102.4 46.080 102.4 102.368v614.432c0 56.32-46.080 102.4-102.4 102.4zM307.2 345.6h-102.4v102.4h102.4v-102.4zM307.2 499.2h-102.4v102.4h102.4v-102.4zM307.2 652.8h-102.4v102.4h102.4v-102.4zM665.6 345.6h-256v102.4h256v-102.4zM819.2 499.2h-409.6v102.4h409.6v-102.4zM819.2 652.8h-409.6v102.4h409.6v-102.4z" />
<glyph unicode="&#xe622;" glyph-name="chat" d="M921.6 960h-819.2c-56.32 0-101.888-46.080-101.888-102.4l-0.512-921.6 204.8 204.8h716.8c56.32 0 102.4 46.080 102.4 102.368v614.432c0 56.32-46.080 102.4-102.4 102.4zM204.8 601.6h614.4v-102.4h-614.4v102.4zM614.4 345.6h-409.6v102.4h409.6v-102.4zM819.2 652.8h-614.4v102.4h614.4v-102.4z" />
<glyph unicode="&#xe623;" glyph-name="message" d="M921.6 960h-819.2c-56.32 0-101.888-46.080-101.888-102.4l-0.512-921.6 204.8 204.8h716.8c56.32 0 102.4 46.080 102.4 102.368v614.432c0 56.32-46.080 102.4-102.4 102.4zM819.2 345.6h-614.4v102.4h614.4v-102.4zM819.2 499.2h-614.4v102.4h614.4v-102.4zM819.2 652.8h-614.4v102.4h614.4v-102.4z" />
<glyph unicode="&#xe624;" glyph-name="communication-01" d="M921.6 960h-819.2c-56.32 0-101.888-46.080-101.888-102.4l-0.512-921.6 204.8 204.8h716.8c56.32 0 102.4 46.080 102.4 102.368v614.432c0 56.32-46.080 102.4-102.4 102.4zM628.48 758.4c48.32 0 87.008-38.976 87.008-87.296 0-48.288-38.688-87.264-87.008-87.264s-87.264 38.976-87.264 87.264c0 48.32 38.944 87.296 87.264 87.296zM395.776 758.4c48.256 0 86.944-38.976 86.944-87.296 0-48.288-38.688-87.264-86.944-87.264-48.32 0-87.328 38.976-87.328 87.264 0.032 48.32 39.008 87.296 87.328 87.296zM599.392 342.4h-407.296v81.472c0 67.744 135.872 101.824 203.68 101.824 67.744 0 203.616-34.048 203.616-101.824v-81.472zM832.096 342.4h-174.496v81.472c0 43.072-23.616 75.872-57.376 100.384 10.176 0.864 19.808 1.44 28.256 1.44 67.808 0 203.616-34.048 203.616-101.824v-81.472z" />
<glyph unicode="&#xe625;" glyph-name="web-site" d="M921.6 857.6h-819.2c-56.32 0-101.92-46.080-101.92-102.4l-0.48-614.432c0-56.256 46.080-102.368 102.4-102.368h819.2c56.32 0 102.4 46.080 102.4 102.368v614.432c0 56.32-46.080 102.4-102.4 102.4zM665.6 140.768h-563.2v204.8h563.2v-204.8zM665.6 396.768h-563.2v204.8h563.2v-204.8zM921.6 140.768h-204.8v460.832h204.8v-460.832z" />
<glyph unicode="&#xe626;" glyph-name="handshake" d="M1024 558.56l-74.816-39.872c-3.552-0.96-6.848-2.912-9.376-5.664l-109.696-117.76c-1.568 1.216-290.528 230.432-290.528 230.432-16.352 10.592-37.152 11.552-54.368 2.56l-139.712-79.648c-4.896-2.56-10.944-2.048-15.36 1.312-3.104 2.336-5.088 5.728-5.632 9.568-0.512 3.872 0.544 7.648 2.88 10.72l68 89.696c80.864 70.4 181.376 62.144 259.328 42.016l84.896-17.856c10.496-2.208 21.312-1.216 31.296 2.784 1.472 0.608 2.912 1.376 4.192 2.336l152.288 122.176 96.608-252.8zM797.664 340.736l-280.32 217.376c-19.104 11.872-31.84 9.824-36.448 7.424l-144.672-75.616c-18.368-9.632-40.992-7.712-57.568 4.8-11.584 8.736-18.976 21.504-20.928 35.872-1.92 14.336 1.92 28.608 10.72 40.096l46.272 68.768-45.728 6.72c-5.76 0.96-11.264 2.784-16.416 5.472-1.248 0.608-2.336 1.344-3.36 2.176l-147.936 133.44-101.28-281.824 80.32-46.592c3.904-1.248 7.328-3.648 9.824-6.912l57.952-88.576c17.984 16.192 41.504 25.632 66.24 25.632 17.248 0 33.824-4.672 48.672-13.12 15.424 9.504 33.088 15.232 51.712 15.232 20.416 0 40.064-6.208 56.768-17.984 20.704-14.528 33.824-35.744 39.168-58.688 4.896-2.368 9.632-5.088 14.144-8.288 21.376-14.784 35.936-37.504 40.608-63.584 0.192-0.896 0.096-1.824 0.256-2.752 3.104-1.696 6.176-3.328 9.12-5.344 22.208-15.648 36.672-38.528 41.184-64.704 0.992-5.76 1.248-11.488 1.248-17.184l13.76-10.144c18.944-12.736 44.608-7.744 57.312 11.168 8.16 12.128 8.384 26.72 2.976 39.232l8.864-6.016c18.944-12.704 44.608-7.712 57.312 11.168 8.416 12.448 8.48 27.488 2.592 40.192l13.664-9.184c18.944-12.736 44.576-7.744 57.312 11.136 9.696 14.304 9.056 32.512 0.032 46.016l20.48-13.792c18.912-12.736 44.576-7.744 57.312 11.168 12.768 18.816 7.776 44.48-11.168 57.216zM440.896 186.912c-17.664 12.192-40.96 8.48-54.688-7.488l15.52 22.144c12.992 18.56 8.512 44.384-10.24 57.376-17.792 12.544-41.664 8.576-55.2-7.872l12.032 17.184c13.056 18.72 8.64 44.48-10.048 57.568-18.624 13.12-44.384 8.512-57.44-10.112l-29.504-42.112c7.744 17.632 3.008 38.656-13.408 50.112-18.688 13.056-44.384 8.512-57.44-10.144l-28.512-40.64c-13.12-18.72-8.576-44.416 10.24-57.44 16.32-11.488 37.664-8.736 51.552 4.512l-18.24-26.048c-13.056-18.688-8.576-44.448 10.144-57.568 18.624-13.024 44.384-8.512 57.472 10.144l12.8 18.272c-10.912-18.368-6.432-42.176 11.328-54.688 18.656-12.992 44.48-8.512 57.568 10.176l17.888 25.568c-10.144-18.368-5.664-41.536 11.808-53.696 18.624-13.184 44.544-8.64 57.472 9.984l19.008 27.168c13.216 18.624 8.576 44.416-10.112 57.6z" />
<glyph unicode="&#xe627;" glyph-name="module" d="M930.944 866.944h-837.824c-51.2 0-93.12-41.952-93.12-93.12v-651.616c0-51.2 41.92-93.056 93.088-93.056h837.824c51.2 0 93.056 41.888 93.056 93.056v651.616c0.032 51.168-41.856 93.12-93.024 93.12zM367.808 200h-96v496h96v-496zM536.192 196.672l-67.712 67.744 183.616 183.584-183.616 183.616 67.712 67.68 251.296-251.296-251.296-251.328z" />
<glyph unicode="&#xe628;" glyph-name="reset" d="M574.432 897.568c-248.288 0-449.568-201.312-449.568-449.568h-124.864l169.344-194.304 3.456-7.008 176.832 201.312h-124.864c0 193.312 156.352 349.664 349.664 349.664s349.632-156.352 349.632-349.664-156.32-349.696-349.632-349.696c-96.352 0-183.808 39.488-246.72 102.944l-70.944-70.944c81.376-81.44 193.312-131.872 317.664-131.872 248.256 0 449.568 201.312 449.568 449.568s-201.312 449.568-449.568 449.568zM574.432 382.496l-119.68-119.68-65.472 65.568 119.68 119.616-119.68 119.648 65.472 65.536 119.68-119.68 119.616 119.68 65.568-65.536-119.68-119.648 119.68-119.616-65.568-65.568z" />
<glyph unicode="&#xe629;" glyph-name="style" d="M60.544 85.152l65.728-27.424v442.752l-119.168-287.328c-20.128-50.048 3.904-107.392 53.44-128zM1016.64 266.56l-243.136 586.88c-15.232 36.768-51.040 59.36-88.768 60.352-12.704 0-25.952-1.984-38.688-7.36l-361.44-149.568c-36.736-15.168-59.264-50.496-60.288-88.224-0.512-13.248 1.984-26.496 7.36-39.232l243.232-586.88c15.2-37.28 51.424-59.84 89.728-60.32 12.736 0 25.504 2.432 37.76 7.36l360.8 149.568c50.016 20.576 74.080 77.92 53.44 127.424zM322.848 619.584c-26.944 0-49.024 22.080-49.024 49.024 0 26.976 22.080 49.024 49.024 49.024 26.976 0 49.024-22.048 49.024-49.024 0.032-26.912-22.048-49.024-49.024-49.024zM224.832 80.288c0-53.92 44.096-98.048 98.016-98.048h71.136l-169.152 408.896v-310.848z" />
<glyph unicode="&#xe630;" glyph-name="slide-show" d="M398.208 675.552v-455.136l284.448 227.584-284.448 227.552zM910.208 960h-796.416c-62.56 0-113.792-51.232-113.792-113.792v-796.448c0-62.528 51.232-113.76 113.792-113.76h796.448c62.528 0 113.76 51.232 113.76 113.792v796.416c0 62.56-51.232 113.792-113.792 113.792zM910.208 49.792h-796.416v796.416h796.448v-796.416z" />
<glyph unicode="&#xe631;" glyph-name="contact-directory" d="M938.656 832h-853.344c-46.944 0-85.312-38.368-85.312-85.312v-597.344c0-46.944 38.368-85.344 85.312-85.344h853.344c46.944 0 84.928 38.4 84.928 85.344l0.416 597.344c0 46.944-38.4 85.312-85.344 85.312zM341.344 704c70.816 0 128-57.184 128-128 0-70.848-57.184-128-128-128-70.848 0-128.032 57.152-128.032 128 0 70.816 57.184 128 128.032 128zM597.344 192h-512.032v42.656c0 85.344 170.688 132.256 256.032 132.256 85.312 0 256-46.912 256-132.256v-42.656zM674.624 392.032h-72v71.968h72v-71.968zM674.624 512.032h-72v71.968h72v-71.968zM674.624 632.032h-72v71.968h72v-71.968zM938.656 392h-216.032v72h216.032v-72zM938.656 512h-216.032v72h216.032v-72zM938.656 632h-216.032v72h216.032v-72z" />
<glyph unicode="&#xe632;" glyph-name="contact-groupe" d="M938.656 832h-853.344c-46.944 0-85.312-38.368-85.312-85.312v-597.344c0-46.944 38.368-85.344 85.312-85.344h853.344c46.944 0 84.928 38.4 84.928 85.344l0.416 597.344c0 46.944-38.4 85.312-85.344 85.312zM778.656 704c44.256 0 80-35.744 80-80 0-44.288-35.744-80-80-80s-80 35.712-80 80c0 44.256 35.744 80 80 80zM341.344 704c70.816 0 128-57.184 128-128 0-70.848-57.184-128-128-128-70.848 0-128.032 57.152-128.032 128 0 70.816 57.184 128 128.032 128zM597.344 192h-512.032v42.656c0 85.344 170.688 132.256 256.032 132.256 85.312 0 256-46.912 256-132.256v-42.656zM938.656 384.032h-320v26.656c0 53.312 106.688 82.656 160 82.656s160-29.344 160-82.656v-26.656z" />
<glyph unicode="&#xe633;" glyph-name="contact-mail" d="M896 618.656v42.688l-128-85.344-128 85.344v-42.656l128-85.344 128 85.312zM938.656 832h-853.312c-46.944 0-85.344-38.4-85.344-85.344v-597.344c0-46.912 38.4-85.312 85.344-85.312h853.344c46.944 0 84.928 38.4 84.928 85.344l0.384 597.312c0 46.944-38.4 85.344-85.344 85.344zM341.344 704c70.816 0 128-57.184 128-128 0-70.848-57.184-128-128-128-70.848 0-128 57.152-128 128 0 70.816 57.152 128 128 128zM597.344 192h-512v42.656c0 85.344 170.656 132.256 256 132.256 85.312 0 256-46.912 256-132.256v-42.656zM938.656 448h-341.312v256h341.312v-256z" />
<glyph unicode="&#xe634;" glyph-name="contact-phone" d="M938.656 832h-853.312c-46.944 0-85.344-38.4-85.344-85.344v-597.344c0-46.944 38.4-85.312 85.344-85.312h853.344c46.944 0 84.928 38.368 84.928 85.312l0.384 597.344c0 46.944-38.4 85.344-85.344 85.344zM341.344 704c70.816 0 128-57.184 128-128 0-70.848-57.184-128-128-128-70.848 0-128 57.152-128 128 0 70.816 57.152 128 128 128zM597.344 192h-512v42.624c0 85.376 170.656 132.256 256 132.256 85.312 0 256-46.88 256-132.256v-42.624zM761.6 362.624h70.016l64.384-85.312-84.896-84.928c-55.872 41.888-97.248 101.632-116.512 170.24-7.68 27.36-11.936 55.968-11.936 85.344s4.256 58.016 11.936 85.344c19.264 69.12 60.64 128.416 116.512 170.24l84.896-84.896-64.416-85.312h-69.984c-9.376-26.88-14.944-55.456-14.944-85.344s5.568-58.496 14.944-85.376z" />
<glyph unicode="&#xe635;" glyph-name="monitoring" d="M938.656 832h-853.344c-46.944 0-85.312-38.368-85.312-85.312v-597.344c0-46.944 38.368-85.344 85.312-85.344h853.344c46.944 0 84.928 38.4 84.928 85.344l0.416 597.344c0 46.944-38.4 85.312-85.344 85.312zM341.344 704c70.816 0 128-57.184 128-128 0-70.848-57.184-128-128-128-70.848 0-128.032 57.152-128.032 128 0 70.816 57.184 128 128.032 128zM597.344 192h-512.032v42.656c0 85.344 170.688 132.256 256.032 132.256 85.312 0 256-46.912 256-132.256v-42.656zM903.072 544c0-5.44-0.48-10.56-1.12-15.68l33.76-26.4c3.072-2.368 3.84-6.72 1.952-10.208l-32-55.36c-1.92-3.488-6.080-4.928-9.792-3.488l-39.808 15.968c-8.32-6.208-17.28-11.648-27.072-15.648l-6.048-42.4c-0.544-3.904-3.872-6.784-7.872-6.784h-64c-4 0-7.328 2.88-7.84 6.72l-6.048 42.4c-9.792 4-18.72 9.28-27.072 15.648l-39.808-15.968c-3.52-1.28-7.872 0-9.792 3.488l-32 55.36c-1.92 3.488-1.12 7.84 1.952 10.208l33.76 26.4c-0.672 5.12-1.12 10.4-1.12 15.68s0.48 10.56 1.12 15.68l-33.76 26.4c-3.072 2.368-4.032 6.72-1.952 10.208l32 55.36c1.92 3.488 6.080 4.928 9.792 3.488l39.808-15.968c8.352 6.208 17.28 11.648 27.072 15.648l6.048 42.4c0.48 3.968 3.84 6.848 7.84 6.848h64c4 0 7.328-2.88 7.84-6.72l6.048-42.4c9.792-4 18.752-9.28 27.072-15.648l39.808 15.968c3.52 1.28 7.872 0 9.792-3.488l32-55.36c1.92-3.488 1.12-7.84-1.952-10.208l-33.76-26.4c0.672-5.184 1.152-10.304 1.152-15.744zM839.072 544c0-30.928-25.072-56-56-56s-56 25.072-56 56c0 30.928 25.072 56 56 56s56-25.072 56-56z" />
<glyph unicode="&#xe636;" glyph-name="add-selection" d="M0 846.208h113.792v113.792c-62.528 0-113.792-51.2-113.792-113.792zM0 504.864h113.792v-113.76h-113.792v113.76zM227.552 49.792h113.792v-113.792h-113.792v113.792zM0 732.448h113.792v-113.792h-113.792v113.792zM455.136 960h113.792v-113.792h-113.792v113.792zM910.24 960v-113.792h113.76c0 62.592-51.232 113.792-113.76 113.792zM113.792-64v113.792h-113.792c0-62.56 51.264-113.792 113.792-113.792zM0 277.312h113.792v-113.76h-113.792v113.76zM227.552 960h113.792v-113.792h-113.792v113.792zM455.136 49.792h113.792v-113.792h-113.792v113.792zM910.24 504.864h113.76v-113.76h-113.76v113.76zM910.24-64c62.528 0 113.76 51.232 113.76 113.792h-113.76v-113.792zM910.24 732.448h113.76v-113.792h-113.76v113.792zM910.24 277.312h113.76v-113.76h-113.76v113.76zM682.688 49.792h113.76v-113.792h-113.76v113.792zM682.688 960h113.76v-113.792h-113.76v113.792zM800 512h-224v224h-128v-224h-224v-128h224v-224h128v224h224z" />
<glyph unicode="&#xe637;" glyph-name="move-to" d="M378.688 675.552v-145.056h-170.688v-164.992h170.688v-145.056l227.52 227.552zM0 960v-1024h1024v1024h-1024zM912 48h-160v288h-112v-288h-528v800h528v-288h112v288h160v-800z" />
<glyph unicode="&#xe638;" glyph-name="restore" d="M585.12 886.88c-242.336 0-438.848-196.544-438.848-438.848h-146.272l189.696-189.728 3.392-6.816 196.992 196.544h-146.272c0 188.672 152.608 341.312 341.312 341.312 188.736 0 341.344-152.64 341.344-341.312 0-188.704-152.608-341.344-341.344-341.344-94.080 0-179.424 38.528-240.864 100.48l-69.248-69.216c79.456-79.52 188.672-128.768 310.080-128.768 242.432-0.032 438.912 196.512 438.912 438.848 0 242.304-196.48 438.848-438.88 438.848zM536.384 643.072v-243.808l208.672-123.84 35.136 59.008-170.656 101.408v207.232h-73.152z" />
<glyph unicode="&#xe639;" glyph-name="restore-from-trash" d="M910.208 903.136h-199.136l-56.864 56.864h-284.448l-56.896-56.864h-199.072v-113.792h796.448v113.792zM170.656 732.448v-682.656c0-62.56 51.2-113.792 113.792-113.792h455.136c62.528 0 113.792 51.232 113.792 113.792v682.656h-682.72zM625.792 334.208v-227.552h-227.552v227.552h-113.792l227.552 227.584 227.552-227.552h-113.76z" />
<glyph unicode="&#xe640;" glyph-name="restore-page" d="M614.4 960h-409.6c-56.32 0-101.92-46.080-101.92-102.4l-0.48-819.232c0-56.32 45.6-102.368 101.92-102.368h614.88c56.32 0 102.432 46.048 102.432 102.368v614.432l-307.232 307.2zM512 140.8c-104.928 0-195.072 63.488-234.496 153.568h87.552c32.256-46.048 86.016-76.8 146.944-76.8 98.816 0 179.2 80.448 179.2 179.264 0 98.752-80.384 179.168-179.2 179.168-69.12 0-129.024-39.936-158.72-97.312l81.92-81.888h-204.8v204.768l66.56-66.528c45.568 70.624 124.416 117.76 215.040 117.76 141.312 0 256-114.72 256-256 0-141.312-114.688-256-256-256z" />
<glyph unicode="&#xe642;" glyph-name="list-add" d="M614.4 601.6h-614.4v-102.4h614.4v102.4zM614.4 806.4h-614.4v-102.4h614.4v102.4zM819.2 396.8v204.8h-102.4v-204.8h-204.8v-102.4h204.8v-204.8h102.4v204.8h204.8v102.4h-204.8zM0 294.4h409.6v102.4h-409.6v-102.4z" />
</font>
</defs>
</svg>
