<?xml version="1.0" encoding="utf-8"?>
<!-- Generator: Adobe Illustrator 14.0.0, SVG Export Plug-In . SVG Version: 6.00 Build 43363)  -->
<!DOCTYPE svg PUBLIC "-//W3C//DTD SVG 1.1//EN" "http://www.w3.org/Graphics/SVG/1.1/DTD/svg11.dtd">
<svg version="1.1" id="Calque_1" xmlns="http://www.w3.org/2000/svg" xmlns:xlink="http://www.w3.org/1999/xlink" x="0px" y="0px"
	 width="105px" height="25px" viewBox="0 0 105 25" enable-background="new 0 0 105 25" xml:space="preserve">
<g>
	<path fill="#FFFFFF" d="M5.624,11.209c-1.849-0.962-3.351-2.272-3.351-4.237c0-2.003,1.079-3.621,3.621-3.621
		c1.887,0,3.043,0.616,4.43,1.733v-2.62c-1.04-0.731-2.735-1.348-4.43-1.348C2.427,1.117,0,3.544,0,7.011
		c0,4.237,3.043,5.662,5.585,6.972c1.926,1.002,3.621,2.388,3.621,4.776c0,2.427-1.117,4.045-3.89,4.045
		c-1.811,0-3.622-0.925-5.277-2.312v2.619C1.194,24.075,3.236,25,5.316,25c3.89,0,6.163-2.427,6.163-6.278
		C11.479,14.407,8.282,12.597,5.624,11.209z"/>
	<polygon fill="#FFFFFF" points="25.5,0 22.958,0 18.412,5.74 20.686,5.74 	"/>
	<path fill="#FFFFFF" d="M25.23,16.718c1.387-2.195,1.657-7.896-4.275-7.896c-3.852,0-6.587,2.388-6.587,8.09
		c0,5.277,2.465,8.089,6.395,8.089c2.119,0,4.006-0.847,5.124-1.579v-2.504c-1.117,1.155-3.197,1.926-4.623,1.926
		c-3.274,0-4.584-2.08-4.584-5.932v-0.193H25.23z M20.955,10.979c2.85,0,3.235,2.157,2.581,3.621h-6.664
		C17.411,11.903,18.991,10.979,20.955,10.979z"/>
	<path fill="#FFFFFF" d="M35.361,8.821c-4.044,0-6.24,2.696-6.24,8.09c0,5.393,2.196,8.089,6.24,8.089
		c4.045,0,6.241-2.696,6.241-8.089C41.602,11.518,39.406,8.821,35.361,8.821z M35.361,22.843c-2.773,0-3.929-2.119-3.929-5.932
		c0-3.814,1.156-5.933,3.929-5.933s3.929,2.118,3.929,5.933C39.291,20.724,38.135,22.843,35.361,22.843z"/>
	<polygon fill="#FFFFFF" points="45.588,24.615 47.9,24.615 47.9,0.424 45.588,1.502 	"/>
	<path fill="#FFFFFF" d="M63.751,21.456V9.091l-2.503,1.156c-0.925-0.925-2.119-1.426-3.506-1.426c-3.93,0-5.855,2.889-5.855,8.09
		c0,5.2,1.926,8.089,5.855,8.089c1.502,0,2.812-0.616,3.775-1.694C61.748,24.307,62.557,25,63.674,25
		c0.655,0,1.311-0.192,1.927-0.539v-1.464c-0.271,0.154-0.54,0.231-0.81,0.231C64.098,23.229,63.751,22.612,63.751,21.456z
		 M61.44,20.417c-0.694,1.463-2.081,2.35-3.698,2.35c-2.504,0-3.544-2.119-3.544-5.855s1.04-5.855,3.544-5.855
		c1.617,0,3.004,0.886,3.698,2.35V20.417z"/>
	<path fill="#FFFFFF" d="M97.95,18.76l-2.619-5.663L105,1.502h-7.357l-4.97,5.894l-1.694-3.659c-0.771-1.657-1.889-2.62-4.314-2.62
		c-1.465,0-2.582,0.193-3.775,0.539l-0.771,4.161c0.424-0.154,0.886-0.231,1.271-0.231c1.271,0,1.965,0.347,2.621,1.772l2.388,5.124
		l-8.545,10.158v-7.77c0-3.429-0.655-6.048-4.468-6.048c-1.195,0-3.198,0.771-4.354,1.502V8.437L68.72,9.515v15.101h2.312V12.597
		c0.886-0.693,2.734-1.541,4.16-1.541c1.464,0,2.35,0.809,2.35,3.813v9.746h0.648h1.663h5.81l5.393-6.433l1.927,4.198
		C93.752,24.075,94.907,25,97.334,25c1.464,0,2.581-0.192,3.736-0.539l0.771-4.16c-0.424,0.154-0.886,0.231-1.271,0.231
		C99.26,20.532,98.644,20.263,97.95,18.76z"/>
</g>
</svg>
